<mxfile host="app.diagrams.net" modified="2023-04-19T16:19:53.748Z" agent="Mozilla/5.0 (Macintosh; Intel Mac OS X 10_15_7) AppleWebKit/537.36 (KHTML, like Gecko) Chrome/112.0.0.0 Safari/537.36" etag="vJ1oaMl1qraVrS0Cdbcp" version="21.1.8" type="device">
  <diagram name="第 1 页" id="Rb6I6i_2jSoUafNuiqE-">
    <mxGraphModel dx="1735" dy="947" grid="1" gridSize="10" guides="1" tooltips="1" connect="1" arrows="1" fold="1" page="1" pageScale="1" pageWidth="3300" pageHeight="4681" math="0" shadow="0">
      <root>
        <mxCell id="0" />
        <mxCell id="1" parent="0" />
        <mxCell id="7krn6m4Ij22ZLWRI0r_V-22" value="" style="rounded=0;whiteSpace=wrap;html=1;fillColor=#f5f5f5;fontColor=#333333;strokeColor=#666666;" vertex="1" parent="1">
          <mxGeometry x="200" y="150" width="680" height="470" as="geometry" />
        </mxCell>
        <mxCell id="7krn6m4Ij22ZLWRI0r_V-15" value="V8" style="rounded=0;whiteSpace=wrap;html=1;fillColor=#f8cecc;strokeColor=#b85450;" vertex="1" parent="1">
          <mxGeometry x="390" y="400" width="120" height="190" as="geometry" />
        </mxCell>
        <mxCell id="7krn6m4Ij22ZLWRI0r_V-4" value="" style="swimlane;startSize=0;fillColor=#f5f5f5;fontColor=#333333;strokeColor=#666666;" vertex="1" parent="1">
          <mxGeometry x="550" y="400" width="300" height="190" as="geometry" />
        </mxCell>
        <mxCell id="7krn6m4Ij22ZLWRI0r_V-5" value="第3方库" style="text;html=1;align=center;verticalAlign=middle;resizable=0;points=[];autosize=1;strokeColor=none;fillColor=none;" vertex="1" parent="7krn6m4Ij22ZLWRI0r_V-4">
          <mxGeometry x="110" width="70" height="30" as="geometry" />
        </mxCell>
        <mxCell id="7krn6m4Ij22ZLWRI0r_V-6" value="http-parser" style="rounded=0;whiteSpace=wrap;html=1;fillColor=#f8cecc;strokeColor=#b85450;" vertex="1" parent="7krn6m4Ij22ZLWRI0r_V-4">
          <mxGeometry x="20" y="30" width="120" height="60" as="geometry" />
        </mxCell>
        <mxCell id="7krn6m4Ij22ZLWRI0r_V-7" value="OpenSSL" style="rounded=0;whiteSpace=wrap;html=1;fillColor=#f8cecc;strokeColor=#b85450;" vertex="1" parent="7krn6m4Ij22ZLWRI0r_V-4">
          <mxGeometry x="20" y="110" width="120" height="60" as="geometry" />
        </mxCell>
        <mxCell id="7krn6m4Ij22ZLWRI0r_V-8" value="lib" style="rounded=0;whiteSpace=wrap;html=1;fillColor=#f8cecc;strokeColor=#b85450;" vertex="1" parent="7krn6m4Ij22ZLWRI0r_V-4">
          <mxGeometry x="160" y="30" width="120" height="60" as="geometry" />
        </mxCell>
        <mxCell id="7krn6m4Ij22ZLWRI0r_V-14" value="c-ares" style="rounded=0;whiteSpace=wrap;html=1;fillColor=#f8cecc;strokeColor=#b85450;" vertex="1" parent="7krn6m4Ij22ZLWRI0r_V-4">
          <mxGeometry x="160" y="110" width="120" height="60" as="geometry" />
        </mxCell>
        <mxCell id="7krn6m4Ij22ZLWRI0r_V-21" value="libuv的组成" style="edgeStyle=orthogonalEdgeStyle;rounded=0;orthogonalLoop=1;jettySize=auto;html=1;" edge="1" parent="1" source="7krn6m4Ij22ZLWRI0r_V-16">
          <mxGeometry relative="1" as="geometry">
            <mxPoint x="290" y="676" as="targetPoint" />
          </mxGeometry>
        </mxCell>
        <mxCell id="7krn6m4Ij22ZLWRI0r_V-16" value="libuv" style="rounded=0;whiteSpace=wrap;html=1;fillColor=#f8cecc;strokeColor=#b85450;" vertex="1" parent="1">
          <mxGeometry x="230" y="400" width="120" height="190" as="geometry" />
        </mxCell>
        <mxCell id="7krn6m4Ij22ZLWRI0r_V-34" value="" style="edgeStyle=orthogonalEdgeStyle;rounded=0;orthogonalLoop=1;jettySize=auto;html=1;dashed=1;" edge="1" parent="1" source="7krn6m4Ij22ZLWRI0r_V-17">
          <mxGeometry relative="1" as="geometry">
            <mxPoint x="940" y="320" as="targetPoint" />
          </mxGeometry>
        </mxCell>
        <mxCell id="7krn6m4Ij22ZLWRI0r_V-17" value="C/C++ bindings代码" style="rounded=0;whiteSpace=wrap;html=1;fillColor=#dae8fc;strokeColor=#6c8ebf;" vertex="1" parent="1">
          <mxGeometry x="230" y="290" width="620" height="60" as="geometry" />
        </mxCell>
        <mxCell id="7krn6m4Ij22ZLWRI0r_V-28" value="" style="edgeStyle=orthogonalEdgeStyle;rounded=0;orthogonalLoop=1;jettySize=auto;html=1;" edge="1" parent="1" source="7krn6m4Ij22ZLWRI0r_V-18" target="7krn6m4Ij22ZLWRI0r_V-17">
          <mxGeometry relative="1" as="geometry" />
        </mxCell>
        <mxCell id="7krn6m4Ij22ZLWRI0r_V-18" value="JavaScript 层代码" style="rounded=0;whiteSpace=wrap;html=1;fillColor=#d5e8d4;strokeColor=#82b366;" vertex="1" parent="1">
          <mxGeometry x="230" y="180" width="620" height="60" as="geometry" />
        </mxCell>
        <mxCell id="7krn6m4Ij22ZLWRI0r_V-20" value="" style="shape=image;verticalLabelPosition=bottom;labelBackgroundColor=default;verticalAlign=top;aspect=fixed;imageAspect=0;image=data:image/webp,UklGRoB3AQBXRUJQVlA4THR3AQAv+wN7AI1ActtIkgQ7q9LpcNX/H5xRvQ0w54j+TwD++sEkf4pbcmX8KYZ/CX/8P3a/5frZueiqWnRVTRrAXCQZcpGEv07aNsm11iLXWosP+y/ZNmnbm3/3Y/W7ZCUgGdIkCe5Ga6O10dpGa6M1afIVoMuW40xzPB3OluPMa4/mjo1KUiGVhCKFxMqkEldISSqRnMEgicAkgCab2EEk1KwoicNIgTbbJmnbpG1v1H6Z2m9zqqZ0L2q/Te23PzbR1kRbhXbURFsTbeV6qKoiq6pITvzuEAAMTgDXOABgkOivLu8dyJYAx7E9BvtBUi9TysyUptoSL6+17GWTkuZ5qockvnMmSLYXw2WvZa/V9FXS7BC8GQDBi4P20tobNFKpHvoLRwdcOJoEwMHlFSYPSogwoSSFpB55DT3yGsvT57RJ20TmMqmSlCABojlnF5JSEpFMItJJSAaN7dVAKlWp1HdI8pAkQ6GBMInJZcu2QZZ6zFcOPI4bz+MGAiTJuAEE+7jRB8+DxJeT4LvEXx8TWLLttm3O/lfrJO4FaQCoZvsXrixJjpQXZ53Z1h00qi20Nf//GWg5gaVhTMQEgTBt2wj/f3Hbjf4rcNtGSY+Z7w+uBAAABQAEAQgwlgIBABQFEwRD4IpOhzWlC+CMs1xxxx2dLp5hJQWIb3DGXTo9V/CqJQjP7+HdS1idYAOOxql/NNCgdFAHMOxgTlIdajMACzUrdSAskF2sxjEFAAAloQAVjWZOyoRlspRWYBSZniAIT39tBGkuNnR4B9MQv0wBBkgSJGk0Ep8fjUxjYMIYZQwfczU7IjGLIUmDIezYc2bHnh079vsi5Tb6xS4q965xJEwdwlC+mQYAgFTWWoGUBOyDFelarkWSpGvZ77sz/5DZVrENUsU2RbmWX1LCoPy8ZNv6ZEUC9gB37kiSf925M/k1Pnd+CboAMAQAlPo1BxDCHz1JQtOSAoH6dYwn/xaCAQCUehFFUAxBkGxQ7b1AaHIECAZDgMAABDCLJLeRJEmSzD2y/v/m8MjM3mauETEBPG1+oj95wWLxs1dYP+u/u6fEg99NB6FqqG88QFFV3Px2RfG0+Dtrh9qpHai3fKbAVhMHHEM2Q0ZD1lqrQ4ZwYIM6lJooYBJBTQRIwq4y3qgnKpLEgwh04pAbvBj3EPYQURLCHsIeoKCgnozKbDHKUdxRrKoCqBe+qYDbHiBAJgFBvLklWb1f3Zm9O6nGOcbIWcx1Nr4IAs6YmHgH7RuX78QXuRu+AaM5S5L1mdfQq/u6esrxpLKrQyJ+zmvovq7r6kETHyRRRSbszzp+tqNvgjc8COuV7rwTjzF31+e40meSZ2HxvLnfPGyau83tPrzbWzP3oQF4Mf+/bHI0p6m6qqvaDZ6XYZl59+V3w8ycnDEzM50xHzEzHy0zM77MDIN2Y1VXV3VXS933H+7nvrvdqSfwUWQt3wonz2IfjbWytDMqLTnUAR+UHIZRWpP3oB/5YOm35Dn6S+E81kKftSLvrqwK+sDxKPJB9ThwtrLexUfLu3dw0T/NWVRa6lAHfNByhxwYtaKllsM4I4cexeHbIQcdhtJSH7za1opsVRisPgmUHOaRtTC3wsmz2EcOZ1QtK+qg9Wreg1aHYTQTLi35xK8k26pt27blqbQ+mUmc0sL/N1vqkpfIzMzMq/daw5Mk2apt27alVhYz7RBT/tO2dwzHrB6yIEmy1KZlIZ2McNf07LHA8ZT841fWtmXbNrvp7gkNk8TMzMxSxBgxMy2BIsqYWSEzMzMzMzMzTGqqmn2/z/u8X89usbSngkMMpzijrtJU/SVGQ4Yxw2OGPZnhnl9Vys3MzDBLsTG7zbA7xN2Q3WZmZobsLy2AS+GZGQ5T2vljzpiX4istgdk+82MFjNFXZU455/Ctcirr2jazue6ZSSdJ3aV827Zt297/dB/pyLbN2kzSduTItq3aylj7vu/uH4dIIzKnaTROO0Dm7u767g5JANjGbYMk7uV4BED5TA+L3ocfBW7LNjduvm+YQRoQzGiElsVgZpTZXjPby8y8XmYyxMvMu2a2TNKCUWiSNLIYRhomDTOcY78fzOfvm8Bfv54TTq5yN3eZSSfH7kSFMCeKyszwnoAKVyGcqwxPmSmko4bKtKQNM8NTXLjKfJXr85aZAj5KSWFOtCozt3cZrjKrXOdNyszr426ZcSfM/NddCt1lZpqewH9lZmb4ynAobNt2NtKeOE1tTDtcD9ccfV59tvWvbK9t27uzg50ddGonaWO8fmvbVm3btq2Ucq2tL2bc+pa2D7wN34ZsjZl5tFZLDklsIzmSVDhvS4poc/6qp17akG17tqfSZubrLqaXVaf33nufWb336b333nvvvffeq2V69Zvee++9996LV7mf5/3am187CIYpLwmI4RVkuhAIRAKrBEJg5WuiIORrwvRgEAzn1IDwoCDI69cMQiD5SiSCKAghgpBEEAxfjRBWMBCUNyARAh68EDBEAquvFb8mEQRBmLpKWCGwSggYEEKEKXkHBFcTDIISIRgIhARWCdNXExKQJQqSgBAQBEUQEiJCBAm8gUCIEJgqRAIGJWC+PkUI0xMighIbSY4kqffUql5aZEV1z5z643kAbJGkOTM7s2RmZmZmZmZmh8x25P/AzMzMzMzM7I+ZaWe6d6TZ2XMfxo8ZX0PW0rT0Ra6gzK5kAvNEB6EZR04fw/E9pmisVstZBZUc33VkaXWMuXnyJxld9gSbfSqNdFEbyuyDSsd49CM6fw2dvsEYV6qV1jg6tfHTl5rGdPQPjGWG0qmli8rQps96g8kO2mz/AkcbWxIlSTZta3r23se+99m2bf+z/a5t2zo2emTb1p620flldpiZWqcduJuref93KDMzt07kOFI4YhtJkWrpGKq5F9+Yn+1XLElOnLiZldXtYh5mhoZhZmZmZmbm/8IMDcPM2MzMXdXT3FPMXJWZ9xzpZlZ1DkNtfmZohRnSvBueY+ZjhlIsLZVkLGnQdMx4DLuSzMwOswfCzGFmLqUZzs58zFC6ZlgNhDxM4eXA8YrtVSnNEIYVpZmvmfGO0rS6Zma2V2VdM4R6b2amWplSqd5Z1+yrmfHSFG5rO95o+0nTZDq1NZ9t27Zt/S3bNsa2UduYmsnzUo4kyZEkmVnu7mEM34h/Cic8HEGSlEh17o0csIOsvvg4+ydJsnQnq+oM3d+9+1/bXcPlPPXXp6YDVH1Dcge/DZjuQHLQXHDtwpSUCiiE2otI/b+Bvx5AgGjNBdcuUgmpgUKqvYjQ/5zUPwct4RyOFBxcIlBCqIniTC5hcv0PNKgaB+0ALqQWaLhaKqfEnYdFmG4ofKpxkg5gQmqJA1drCRwOQBWSJEmSmvT8Odz4KFe07+pU3EZS4yPDi/5rTeEIkiQlKs516GWV2UWeWNz/k+TaUkaU7Z7nGTYc97+0O9gZIZV7qJ74nz8FL+nsIaTmgXqykpuW1PzfEwxuyYsIXR6shyMFP9Q6/L+CP78q+nhKl8cGgj5umccKzJ+U8PCUrEdzA4+2mj6peOryQ1u9APNS8aLVw6GOW9tWlfXdXXEY/VACM/pviZBIbiNJkiQ3yzl297X669ph4QqS3bR5KWPwRXqSHPjcBFX9t5/ff/38/qsKryFW6RFZwcIsYu5uAwMMMqihzGWOLaRruumx5szQWs9ABtioBbPEzjKJqD9vvjs3O5g/Mpj1a0FbNo0dG2d+Ns08ullga7QmQ5o7+QI6rIPa6XlrXpurjbajT/WNa6GNjHRZp9UOzAtz1vzWMfOBcmU9gtXVOYvanGk1pzYkXD1360r3Xvf0WA/dlper6lzO0YpamwVr6bbclvHAs2rQz/oMrfsuPd3It6C92e6c272LbK6t07qoLFy7dx9f3Dop12v9DOa6zm1ZWzRRrdbD87WeLwvaphnQ0SPLZl7WrTmVf9wFjLCKXnHjpe1rD9RO51dfOah1TI/NzcJpznTROHb6CmTeNHKon1sPV792T0vzgsOQZcF8tfApvzwzc5YhyP5vfEq71jJNRKQr8pet5pTs3ZSxcvdSG1p75syNH7exe4NW5fCcNn8taptL1Nwp/azQubdzdreeXDTLbLnd8MBYjvZl19x2adEe3xLEyrx5rV61rvbMPtbr5r3ffPfxHo6fPlQf4BTHb6hFU3xMPVJP2sjcVQy19foqi1nS27DqNwo7u+zQrc+/efyabhZbjx2f4I5zd//X/7XSDdBaNnfesMSOC6FXG9q3nG/zc6wG6N/2Rx/pzIOD9OmoHthxeEtGA9QPTc2zmx4oIiofVY/SxKZ26cGNqW/Skm2s2cqRLnb259apxzUOj/RsYz1W07V8hnPqXN2+kWct356ybFvSNidV9mljyy8txttAeGQ9QuvVaY0B7igl31ur1dp35Vd/lT0n+lfZ0Wa6Z3rntQfugwvaNQir9chceGAmL48ObFNDJY87tsh299C9dWdo9q+fwTpzeomdNRLRnj/6Xzr5xL0yNVD5x+2kn43Mr02T717AWq3WVbJzpsfGPtpIEW7/v85xK7KGq5fancu2pbPEGjDAyc9fXFA0CuDQH/TrXLfI7utXH0N8y3wBC9uBWvuCG6Xs50Q9HOumxyY6rWO1b2TOfK2OrYByhR7RrakuphmcaJdOdnvHF7fju/Nypc7t/i950m3LvPOX21JbPDWY7ZeaXbqOz/sYN69dc+W6mt7SpZuHycTg2r+5S7ts6TYT1e0Pr9sHuHWv/tmtncu9K9Ytbtw0td26qnoXt156We1fWaAtXdo6uY71essHe2zR+ubRLi0eFNhzzvoL9y+axiYGONo6o1fmE93b37y4Hf/CA6veHAyL7PwGAHrhP7ImZaRLj4chtnTpkZnyaTvuzO+7rcNqo/N1ML+lOb3j+ff9got7XafNNMVb8i3vagjc8S893A3ZSDu0mlOfiFuObW7onulpncOJc9d/8sSVGmtubr0l0xRCH1MyjwXttvEteoz+wl4aE+Udu24+0GUjIx9t5K79YwOU0sOyrYhoI7/hr9ObkF+a1W8+axbbIM0b54xM7lx/b+VusEle1A4sbAeKb3nj0OxZR7+Onn7q2OTORq2zda6Y0jfLG7lHtcdkDVOdagyuPRrDXLvHfsH7Hjjap3rlV2Oz7V17vOwUmdXEaHuqjDqodVkXA9zuC9Bp3dTyjWug9aqsOLfsnqsBOxTH1lNHnjuvsvrlIZ71IrPj5/0ywpmcru3rk6/T47MLcmfWX/s0Xj3EyioPXlHXqIPpLvZe7BuujHVtxZxsmJN9iVeiXK2seUMNgvyaaVmdqUqEdKRRjmic+j/vyPw80OrTngpm1B490zIcdDH9jFXRynTpoXolu3R8spPn3+cLMPGNazcm06XdSL0VqyyHO3LnVfXLQ8Vp8hGtl/Fbr3G/Mepl5+QCW1v9+BIstsm9lG+xr7LQ7aXzMF7ce0fHDd6fvVZ9wNu/VP0+HSHvevu2z7rNS4/Oe+s+tt1Go8M1htapQTOPoPPaaDs///OHW+6afN50PrXviZbj1zwPAXYubp1cUP8MJZAHWGJnzel+7Tm/sxUbp69mN9LuYnzLvMpAHu/QaPg0gzFctMc3qhUolm73fP7B9dBUqcDo3zx+9S974qTfEU1t9HPNayG7jtPdHD9y7/41PNEydSgkUzjeYwvzLfet7BRyVfKPOyL92n/vl7vg6/Wt9RXGJ9tZaySYx7zjhWp+szoGcbCsceP6/NfJgl03Y09gz2o9O7PQEBRpHq+xRpEjsiNFeQh2fkK+5KnrT5WRWcY1oxzt45CXRjtYwPzhqkv0ymNjIwc2tX6tygqpmXhOBkXz8GXn33f5Fu3MH5raUrMLy3KqlQFyzfRz57R6n0ovjd922QVccpXKpxibWWDZOlbW7Tho2s9bZO2LVqz+RI6m3nKqhGc9dZOdeWiqFYB85lPc87Q9vQqeR9/Np48f6ueiWm1oTsxOFZ2288KpAZqGao1jT5yytJ6M1/Z+rQeuCrccfOqfeE1e9maFJiytNxcNcOR5nRTr9VmmgHznzc2A3HDbkJ15qDWlQHuRTXzLq70mSCIBnv6sor6lS7M+RqJdOlaapI22R5fecMGWLm1F6nI4RpceuyzapQe620dr3Psnralz1XJ2aQ8Le9/yC6+U0aXFDcfpZ/+9d1zQPDGi4089faa1PnG79Mrbenrda5Q9q9ZncHbpWI8dYE1Wy4hzdNnMhB278juk/uQ90rhmfit3mXP4YryRl1MDBLC13uHFZmk9Ftk1z33cevWl9FLt2ALuirRepx3f3Q6bW09drddjh9vZSp0wwK9Z1j7F1I6yfezCdbv+dmgev2DjIWNNMfHu9zIPfah633cBRt/2ekl72Orhtq81f1d7wnONOUh59BkcbNcKt831+sKf5sJ8/tQWtmM5kEkeMbnvusuuYTJrWl2qAFBOtvL2ZQfahpnW1/sqV+WfYgIIwfBCyCjyqMkP16vpqeKGpbZp/p8+BpBGJwfumpfbRnM3+Im1a4gLL2jXxmsCGvIIXtYruXZnNnllD+IBvl6/+jOK9mXHcoNxW/Xcp243yvgWp1x3HLnuzmILDTaa1olntmfbQIZZ0CzQjnru5+J9Y1mnLZ8eO9XH5DMWtIXz5U7ff89o200TLt+hV95z+l+PnsrXwiiE3rbICtAguQGdqRgh3LGWtbt/7pKZs71rDt0x/czLHmy05cMda7sLnz2pfovsvexYo7DSTI9Rm81Bs9yDRi/vzb6psNg+1fjYvh1a67R/vShm8+mjh2seGWUn91/5uS47YBoa5Ot9Sc/WG+Dy1oUHP1eH1Ro5EMgjzidOSSfXACEUYumnvIjyrNEXnizlKz/l4Mk76vcubBOj89bmLr3jmYst9wAf5GQrb3fkXzFI9dApS5dq4dGlrVpvTpbFsm2p6eQdLXlwou3XpXpy3xAXFqc7OGbv0nJSxieyPq7uMfEYhPWTWdEerTm69LZRjy7t1bpm79LCqJl0Mt462d7tUU1dn3VrU/a22+OG/ezo9SGMzhRAZm09asa4WqN9A1wy+6lm3qpXJ5754XY2Ptz9zznQgUfrfeF+btncIbVj9oaePZQvsmJP/dfvNCd4tjqPcm+m17ptWSN+GHvD5tT7uPvQBbyr+faPLqrdy9mHufsAfdaEFXmDOPRq9ZlBvqPjOz+q3u8A0B8nyrOU4EO114hVrfd7B6Pf89lLDdXxt/kj8wTvL5lNr1prge/h9HYX1fK37+IcrMorx6ZXKnin83aGqrne+XqBBR/sXjC1Um8NLztU0d/e5Q5uf0NMvWHgxdaLrGq63iHAa98z9YjAOxmq6Vq+WwK8MaZWAi9oVNXf7oPPEgxdDq3qus5aoP0ytAPa1XU9B8gMvRWsSXVd8wU8x9AUqE1vlJ/rEtE7mO/mIaL3c/ezXyJ6+eN7fyyin+Gy2kX0fap/12/PiycAxi2IlApLzabbP0QX0UtvAFDPI+qDiD5Yd04AQOG3/8Wv/zRDVN3fOhb0hKg+P9C3z6rrWiDoWYaG9hnwUHVdT4BuGZpL9X2hgAUY2l1A8NdaAttNEdHbUXVZ98Ihc2exwdmbv9YWHCF9dRXUTQ9DwGx1fSGDwZjqEzzTX90SlldED2tvN27fc0de5Et6JRvTLLha21DKdQTmYdsi4XUqoi57F2NqZXtdn0W0pE/v6ATNV+6iuuEdbBZNvnpF9CGzOtU3bcJ6vaEM9vvrRW4oT0TfTnBp7sQbzK0Xh1Gwv5zf18O7HlNvkB//RUQvujD1Oi5q5CXPfS8+oPFTXn77iBbwg/uw6EPc+0mvi+gHfvluX/VNAndabUxU2vXRY0fJM7wCyY/10k979X08VMbqt7X3AbuI/rT17cXH1IfpiOgnf/mg+qaOne2AFLijwpou9v7DV/He7ir0590/+kDPnwDgw3aWWc4rV1QfolXh1AMsl9VGqLCmzQOwIudP+RkroRe3znn9iuiVYuq163+O6GOfqrop8tWlmCc7roELKn0mxYrquK0yZr+t4wPeInrNW72TqD5MEdEr7FGFU0ega5keNjYoKr9J0sZSThnWMjQYKyScJHr35Xnd+tC3d3eqhF7h+KAv7y/eokE++rvdonqle1F9W2fVOA0teK55U2FTkFdaTe1gadcQAAB45euKb6ZIeR0/x51KBXTDr/sqDoBXuhHRv/TGFdEL2Tuaapz6ATHUArTSOkDachcwQ+pwOTokluMN6/XqHUxlFu36sDfjrEepxmlVwQYZ6mzAqQqrcm2BYU0UO0/tMPlXXsAjGpXQyxyv/PyxXlv0CL31C49V3/Ye1TitaDBiqGOAXRXWhoPDUbD2VHtfpTcj+t8roi57F+c+5D0APmwBbGjREx5vb150qnJaDTzJ0CYBg63CWk/Y8CSsJ+Us0YjeuqKbFf0CW/Sa+Z2rd/uGdYJHYd5eUOV3/oclO5teCMrRNXiq4V2yxCJ69XutDsxNi+bxiqfqnIaAX9HQpgEuqqwWGzYtXlH1CDsVVUi+YgAYe816lwN/ZkSfcalV5zQXGGsCwETlb/G3ZtVCjIM7FQn+thrmN/+Kb56Ivq0T1TktMNuKJg8gldUT1Wbz00XVJqGCPOTU28+LEN2c2DgAunjpo0qnzwXcaHh40Q1OV1aD3H6DRX+a8W9UkDXy/fCmdU77Tz5yRC97TFTptLABFxhabvCxK2z6zfLOx6KvGVVrlTFpcuXpb7aJiVvf1j0AeLD5Tap6y3Qs65UGuweW9yqs93nD1C/9VaJqk6yM60i9YdomW06KvFrcemHeYYse6GtUE+DOv71ap3FgzHY+4fKpsD5Y9+j2gjtD7+WacVbFGhPLeKdhJkXeMG93onqdel3n4fjbCgB/xYe8sUV/Rl6tUw58fkPzDBZvFdam9hNdd/tSi+iD1fvtotp4YguWq3Pk5VX8nFfZfCLbGP54L/5iD718Io7+538xom/7oJr31jOGhgQdVNrx6+dHe973+3Sfb4I1+jg/02UTUW0nDgAAwrVqmLEFf+Lrvrvzfuv8N/9S7+GyWnhoib3rZrvrwZdcb3tV824b/BpzRdOEIVXc9q/zo7/4Pl/uJaz8g0wXG4pbLQEAAKaMDKPjA99+uJf7vp+vY61pMTct2KJva6Nqp41j3Yawt+BPSsD4X/wmsXnYTtKwv8KH2zUZ6LFeeeil7k3OGpJ3f1TvtCkwyCYMrRCs3VVWzXd3+gB3Dh87iq4lYRhWw61FVqzN4vf32E94nYcWrpfNxzH0G/8n1TsdA8TQfXCiwqa/n0c/+kuvHau+bvv5DUfCTiLr0HCpfT+Pvbvje30+H8/f9v0JqEptVJDc9YAGqPwj+Gj8yE9+qssH6MzLDsL+8+w6MlxBh8rdtiIxZIbezvZF/sQSH70z/SDPorc0UHu5rYqnRcuqS2Gu2bRGHDD9qRzPWZ4pwyuvYm1o5Xhy4ikfNgoaP+CjR+sfep175+ZcddhyXvzcK8xLbRuKDN854c4j11l8H6R79axwq+7XM//Fi9onelcHFD/M04Af5tqv973cHBdqfuOoFvepe1fFU0eDndbti3Kq6m9DA4uaqTvg0uq63sZ6G0ELB+a16rr+L+iLeQfABZxfXdeI9TpEs7CxVdd1EHhL2/aER6vr+vWB3NA+2FVdV5dhu1ChTzCo6rr6A4xGNaAMWtV19S0ojIUmcKq6rs7mup2QTVZd19INFmD9O62u6ymw19A8AUV1XTvhoKFR4Fh1XRncaKgGXFtd11uAGppLu+q+s8GgiW2xUV1XDpOmNglGq+v6BWGIQ1HpekCq65obLFcabGrV/XoEs7aNCba8ICrN6rrWATxoeHgRD1rVda3vYHcOANxZdVcO12Com6r7lx+ErrI+9o+Hquu6xroNYQs2qLquG6FmqjcQqusqoTDVhEZ1XYfgSlMBFk2VfZsil41FVl3XJIj1OkSNqvtOYb2B0GPVdSn0mKkpuLG6rrb1fMUWDFB111WmxqBf1XWNWtcz6wOt6rouhtutT767Vl3XMfhjzc0JM+iiuq4anKNWVF8P2F1dV6cBElUB5NV13QvjbctNCFBW1/WJok/TCSCfrLp/21H4/Nb7A/2W1XXtgkOmTkNXqu63G6CloU0FnVTXNdiwnbkQqu57KYHMpjVU17VxAXNk6Hr47arutxuAGnoIelvVfVtiGrbbDPlc1XXthvwIYPxjz6quq5stS1FtDHBVdV0CPZvtO+mjuq4W9GB7yj6cqbqrxwzND3BBdV0ZdJmhw6NwZ3VdN8K9poexqruWbNbXu76ETquuaxFwblnvE3Cjqu7bEp8rtR1Uveq+l9L6svdcXl3XFLAqtqsTnaiu6yHbbYaIwKbleyXD4cjNYCt5BdmE8bYlbNAUsl1vex18mIb5zVMBVdXhw/2KiHgqZWMGEZD0sylD2+ytqqomllPuqVPAsgEAPeS5PWFUZ58gz/Nc8jw3/gEZhvMhIuQiBM3Uc3WQsjGDqnNKHxS3AcqgydRR0QclYQhZDkYhIPN6DVlKDnIhyqZB1O+TrwI9Nh5VLQMPa4n2xpgEQQRFFIHhOR8a9SFSBBWf1UGcMaNK5RnZ065d+iC4lXRQ5HlCdbSpEPwAZmstHe2KZXj2FBw+bKp+aDfDDUR1FeBRYZ3diyAYYTAKNzznAxBsDjQL6jySTt2YSehRKe/MLa9JwnXseueNJw0trQkmQ5hwBak7HGx5IAS37oWnG5oANpSTNkeDAEGsbiJLw34+RD2UzjGDnHeCapa1JXm2UDbjwGWtPFeQRazpcDgrpOrUOIwZWjDALo8VXYMACVimMoKIyHCeD1RAEC01loJjzCgJMAY3tMyjd5ytJT8ub5B2jAJmLXONFJl9OhwuNimDemxLvNO2GuSocx2lCcC8sZ0mIJFdkOE8HxrxoVLE+zRk6RgzCMFU3uGRpYGNISC0fw21FAGJ8BkyYTKly+HKKqAOTcOcZijD/djdtee323wZfF6qirenMIB9zGiyfC6Bz0RWpmhc7mdDNYQ8LWh5pq76tWHS0NwCMpv4hhC5HUZQc40mKsrwnw/QPMNboVyHfcyAauUZ8UTcPs+kl7ZxucvgJRGtt6Nsfw2cFYXzxJnCPkM7BTI7r7YRgACfmg8N9/lQQDTqQ5FMEd89zWIfM5oUc96I4zyTnmgrR9NTx5dWwLeEJpsi1tQdfmyZili1XnDKNHe2gdj1ft62sqY2VyrDgz4omuKrVh89OMcMSTJiDp8BFWaLdI3LegheH2W6lqKsaLcc5dtnva//Fxmo2RzaH+cTXvEmeLEwiAzH+VCbDxVRFJGm54Vyqs2Q28cMQCLMeIMj3ptvp6e5HLGzpaCOoaU+ymXaxk/AmiaHF1vdEdPtcJepZRs8y6bOPQCS4ClpLd83bOdDbd8HQEs8ldXb7jGjlWdEgAQBgg3bDVdgH5dpqKP4LEpehKbB5lH7rHAoLex6EhSmugPn27Tuwm8HegtZIeqnRtrwTtuJp+16Rrre2mUI7hIWtXrKBr+WbeufvlhPXxyD5ZvN3/X/AIIkCRJEFFHLykuGAX2gikq9luPzaVmvOcYMqlSe8S1t7v1qN9vMPknZuGw3M4+/LxqnbfxYVrcpKvVGjkW7rLcLeqX1sXyjH/2m4JOrRgQwDOhDXRYE6aNRiIc0lAXpYub/4/EMjNwtKatjXqq6l2tdrKDAWWu5hHQ67PVbiz2mAJOmLoG2jfhv/sfhtxO9jU56CQ2iafvxELyOW2OrSN/N9gUPNWYeDWmr30zbphGr9rvuA1QghPfzJGIODGTyfl7clTWOrO3Mvju8NyfW1DF64qWOLfNi05Dq+p3twQWWdbfzsbtLYJKQSaCoI/SmRiZAKTuRMHNrSNCRFjdg4VqBmZSddyhojG38k2d0jQE/xRtXWeTwW3Xa2EiazayfWjQBt5s618E+r7ICSsHhPVP6nCjelWZ3kkMptuBIH5NG7Tj4Eu9lOmDVu3aalnDUw9QA8KZl6sPBOjm9Csn7cXGHISPwGUyLu7LAkeWd2XNHDKWP8byKrVfw1qaVEoJD8rZb5iiIOUD4DjmuFJ0IB2CAYVFniu6PD3y606bOuB3A/I92gh3ZcIeiKjGUOKNzjPmyxRtX6Xf4sjn4JWE2n/pNw1RpaC/MNTcwkiCD9DZP+HSZkON1n+Dh79F3GRmTYs7EDhACQcDVqe+rJ3N+2KRX9B0r3tWLIxk5r/La7zQDG3jWinduRDuy7Q71XU4Nk6pC8KZzj6ssb60Am0KSbJ71uw7ymqEGzJNLJgXe2b/vyzz/i4Qcb/+yLyfDIZjMZKCIM4HDBObdNo2Qa0aFuZM5P+E338x3vDlnFFipim/H7d7nqd7nvWbkveCDmxBmwvC6s+UOJJbSwKiiorHY4o2r9DsqwkbCbNb6+b2eNp0N7nKs6WI3UXjGD404BDGHxvV8ad+RwG0g+aMIdxF3xh1Vb/OeEO/6UJ9UcdIdYMq89aN+6sM+118yJILHlf12gKrifSydPKNjDHjSpb5XaXbEIEOsbCTOpk5NQMvUgyA+m1CDf7Tnz3lMuY6wywiMhUyznIBLCdwEphdzkZozQ6b5g+TDhFYNn+lxABlq+whve2SbeEf226G+d6GTLsYAqnEY1TKuUlxHJdVsxyCrGxL3XpAw4RQLmjxFpaMDDkAmAm/NnC4RdgopiQOwkCu5M9j9HlvtLvG8L/y0fU0YMtnntlr0INfldQtl1x2++02WyWtMeNLFG1dZ5fCkSzXbgma9ccCTULoEksm8ah6/1dN/uOfwWAir9kF3fIfm5IWciRwmrNM7blDFMALuj2grA5Ga+00ZiVV7iYnvX9epd1xHr/dwgEP2O7LhDo17r3nJM9rGXBxAuzd/Gz17+h0VYSNxNsWlq63h9cb9fD2EUOBrUPiiPR47E3QI5bR5jVFwqw/zU3niLWo9BC061Jr+PB0+2HH1uMsO0x1h44FPI2CL+zrlvez+DQ9a4JCPqvUCiz76kEtsIOHWVblch2cJdoa6q475A/SSPZ7kKZ3pyUDW7B5KfaYvA4dOttuhERdx/qSD0bIUi01RRZOvY0XYSJjNq34LDOgw2zYGg3Kv6DDH7kXc7RNvWSHs4NMGvMPuu99F+R1bn+X7xMAjz8MDPe5Ct37/g9/QcVUaNfivOu432Gok9Fjvft7qoV/tlRYq3OF15sF84uAvrPl9t3aegX7XF24214D1vM5I94R3PwNwFIOaIMwtNgbMWd0BmAE42my5Q8VbyTO5xpxVqe6lzMwQBpZ+R3w2AUmQzbN+CxZIJ7ZtDAbkig1JEiYhx/FETZb+KMfhBRw56O8+Ephe7bGe9ZZ0Jxe6AA88aVKje/2DE4XQW7a76vKOe/ET7hf95oO1e89X3bvOo7zY7/TeCjGKN65dYehv3qkEJnU6pOTqKyTplPQWnN6kNanWJzAQE4fvME64Tv+8suEOBY1xaGlhVETVn04d3oJ4Q5AFDk8NAZosiwL+9RuHRSbGzYUGj9fXRZFnAuW2rnJk0FGp8y57O65dzv+PPiYAtDpD9wA47H426g2wSO2zjWbfXd55UL08YOK5R31gfb760f27bhHo+pzzln7qLok6geYn7CUy05fqB4ReX/53+zmKff1rBBVAU4u3NNTNX5JqtprtvsCaQOkkFpIUmK7pGxYat5ankPFdOJ9AMNkPjOwqMBzn/+BNhCYc9IDL7PEBkv5Q50Sv98zHbpPruGZrO+ouTaO41fO5XcCqt1h7fF8l6yTTfKN89Ck5JQqcKvM6qz7Yq+mWLOxUdtyBaJzRmjLGSrFhpN+xdbPVoHsMzTXgOteqylFagCuhJ7uzpT/Wx+t9h5wSTELfznScRDAeIO+NEAUsM5PlwRavu5GowZn9jmH0E2JmO3kBezTYoNWIxJ3vPWF3xB/kj6qByT8EOPDIDfDq/fcg2XKHenxMC1N0B5x4SW3Js8ZnS76ePvVrQ7fZf8007PryZCfbrvW+j+fnfOHHbVjT/wggf7ifJE382R2rQMlGrTqcrjfMqHqmPNiW2/ddp2U6QE+/Z8Wzv9+Y6geCop1inq8zUlBYa8Vq7QJjNHi2564Wf8edDXcoxFBIC6NW5NSMpqWu3t+aarb5ZrtfgJ2584CEJIRJKOC4xGMs/8pyWaPQvj5y5mR5Nkx1Zoz76u8ZZpr5tjnqPaPBPB95sJjf0YgJCP7AdUDz8mttsWGXUYp2uo6qd3NKk7gYlepjApMhbMRrzfCd5jmz4Y542xSlhhFRxR8uGOMkHXWMUcBUsyn8SYbkGNRdpgyEFPh5BqLLwC4bOwiV4HcWDCCbGsITnol1Vb7aRrKZDbszV7sFEBdjlt8xi8kCCj0Hea92/GJNp06yWCeOY6uhmzuOu+ZP+grzx9ap1dS6Bha6lYpst0MFlVjH0MkzOsacN5vNW/J1rAgbCbN51S/YXvZ+Trlf+3qJRI4+X9Owr4vILTE9ggowN7xEZ0qykTSTAnU+/UTg29nW7yjPEMIzOM9I2P3BOm8R7RQSy2sBB7FkYaP36hO6xr7lqQbkQYyZ/XZojHEKKWCMNflLk6/rVs6WQdNQmcG9DofmmIW8+4nn+NVHbv59YMjued2he5nDm71FmbCzTq/iJYtqmXoOKRjatoEk5uP7fNe/s52FAl2YJMoctk3bYKff3fwU9+E4iur1L7OkyZDJtO99tn13g4gzO+5QiSNNF6OKn3y8Jc3qW75U12+ToDSU59Bl7uAcbtyxdNF6vZDQpM3HL5iP4DOf9NOPd5o8Z1nmHLcMMs2stOfozQGW2bbcN7ruPT94QFGkA4ATmq765Ik6d1ym0HVcaOUqz1nRu8hGPWTxnX5KQOiiM7LhDo37J3lG+xjwxlO3t0RZ47Mln5VX/eYZPM3UCxn0jP9E58vDjtleaOrPO4BvKNt57ConwOC+E47dGajLHi6zye2v0mkmSDN7VNjoVh33OvnneFsJXnNEx/Ugk6BrgYVff90EndcqtaLnWKrSI5ZacqdTG1Q5bqdex45vFxuiyJ471HejotQxhYqc7R+Sr2sctuSzilG/CTirZ3p4iTOYcIZmklMtQ0HH/T2s4zL6T+u6/ZjtS5X+3LP9ayHq512nb/trSahOQ5YRWGU7tIHrvssF687Y9geObbLJ9lVvC1mwC7erTYkLfVawE+Q8a6C77d6D6HmJEt2r5+Ttc0F3DuY7ya47EO+vJM8U3zlPBde4TJ7Vu34kn1WM+o3BpzJ1dnNvTyjJE4Pmqzcm5Dh874qThcj7rnVLdt/zNBtdbqQQ+vkKlVfrng9ibMUL7YekRttULOu6uVrpaRcbt+n6bfavj2C/evfsduXWG+a6Or7UjYaGOg+rNxJpx2/f1e+GnJbHrN0Ju/3/cbkhmHAGaebPMRvuUFTdR9PJMybdORddYlvyrHHZkq+nX/0WGZw1puYMrCj3ZM2vFes/+8iQo+OzTfHeE5QFQkW7v1r5kk3mcdzNlGlyPKtPaeS7Ol7owOpD+z9anuMoeI55MpAmXv8Qz7XtlJGhzsnXXximVlpAoS4DvqDTfhYcCwKy8Y54f5sORo0L6PCWfB1jsqUhKz/GvdbzFfuBtc0ZnJCEkJAlcZhMYDJhcddfG47emQVS6CTqzH47VOLdbkDqGM+j2DbGerug/QXiBnbYnkdJHU6b4q6/RhzLvNf6AYecNu8vkDchc4hmZMsdiuL7lgrG4A7E2F7Z6i0NrPFmToJGWJJl8yHrE9xiqg4LlptWkkAZMijmMMlchyFZ3PXXiKNuCQt1eh/cmPwbkMC78CSy4Y54h5IGxtgO+LG5vSXPGnM/CdcPxbN+B6E01YLjbloMQyk4MMdhcedfk455HsIplHkEycycbiMb7gA0xkhNByOCEIvM4S35OlaATZCE2XyILrTe998GwT/nuUI1IZOiDs8FxF1/rToAMK8TU+BmjJE9dygab4/JMzp6PiabiqLJ1zU+W/JZedVvjWB1rNsVL8ENrFHPEAAUGoSGB334fyl5Jr8xBwBpHpcVYdPE2QIO1eERZflRszq3J1SVCKuqoCKB58Cg2KBDJdbXUsOoEmcnXeOyAmzJZ+VTP4U/zX45o8uTqkasqZpJBrQ2HOhD0TjH0qlgVFDisbm9Jcwaly35rPzql0O2PrbH/ZJ7z9oUjToYTvSB82BSyKgVYdO01lFSXb8CeMBQj0HmPmtTLeiS5zCwYogO/7Plk2d0jrl4bADJ17ECbMln5Ve/DsN6BUJYLweuoKIa+boq+B+6OA6GA32o+A9U0OQZ7WPOSpfmcRmXLQ1Z+cB1AMwzQwPAERdwZAkdxnxxaOJ5SgWWl/2Ujsutlq0BZIbW7tz3B6QR4uiuFqt0+C6nj9FXYatgI9Vsx4A9tsf49Bd7rG8VUFFj9obAwCgm6Ih7NJ08o3XM+TPavaW3jmJhSz4rn/qJ1cOqwJzlNWFT0OHHr6V0PCQx5nQr4k/tCbP8+qjK1YK7XC4VtUxaULFJB95T9LQxbs1spJrtItiZm79KNo7H8euYZ6laZycGohigQ0FF8X/T5BntY86Gl+JxGZ8t+ay86vdM2++D1t3AqBPY+L5hzG9MN5MnWUrH5VbLNqdBplHlQM2DWFWNVZVUDNIR6yb20sXoDahbBVtINVvXABLV0z0WopZF1V5lzMEUA3QooOp5PJ08o8eYs+GleFz6sqlY2JLPyl0/xxUGl1ru8eXI7hCKEkC+xOEUG3TE3GNKGIOiBCtbisdlRdg0UTa/+i1qIBgLvyXkHmdwSNSXqIiAICIIIgz/+UBABf+3BGaZDJO3QyR1IJMhi+5cnDMyZRgJW7Co3eLO8GzS0JaGlsi8kCV0uh/j02HTw/1QtysoiKqilumUiBEnw4A+VFXBXxklMGMKfL4+mcNQeDPtY84GGGNcJmmRwq5kDjCTPK36KmxPuQUIzi+h06FBQQMsf7FSTtwQIgY0akNMBzJM6EOJdzIggTmDOdrkDmExZzDoYrFlMqTS4rpSdXjiVL6kxZ6Jnk1K7Q6tjPU1dZkfr9fUSFTR6P4EEQQEARkG9IEAsZYj5oBVJschEjgUdCCzjzkbXbxxqfdqJhOFf7noBG8uH/kuiwRc/d7TdQ5dZVrfg99CMgNz3KSxDWv7E58TcHz42pjvCs5LJsx3QirzO3cH9T2G+gVfy7VCjdpHxRZkBEOQYUAfqqhKDCmJWWzcH0zOt/TZxl6+SjdRfPZJp0COU5gCLuxjTr2/M2pbspcHGnK5moUSus755w24nmEAks16hPNe/z0aV6h3rg9SbDbpalPzi1cPOA7ukaOQy59XYH6AhFKZXx0YXIaOwDE3MKoKwYhXJcKGwjCgD+8JNAAkMwt9Sv9Gt+6xblUqN1iyfpeZEd0pQxbdOTxlCfbybndANPzcd1+3xX1vByAGdQ3bVWXvLXe75Jus9G79h9dc1HEhb4jyXnHG+8MOwg5Z7GwySKQ4vyusHno7uNhZVVVR23rYmB4hggwD+kBBYimBWZhYaG9kMhnoTDNk3rbL6XBAnsvfuXhsMZuMifVdu6a0vpAzF76+zayg3X7u/cfXLBR2+v6fckVhJm8osrS1peJw5hmcXxKn3++NT6cZ2ud+vB9qrA9VUZxVGQb0AfG+UUpkFqDAM/EfQQFOrFFgHXPeyihmE3gOfmmbIzZ15rLEbU0LuaShud/rOr/hx/cJzSaV8aEEbQFH1AVE7it+ayrzOw5FzfY4ft/CIQB1lkQFleFBHwoQRwnNvlahhrAyFacTMDaLwTYn/abDmDhlXMugOvdWvsQTXujz09SmWFsya+35H7nvsqU8Z/VBxRvNV/Y2kTHnBnRfpUJKbTO259/aymCfk1gRBVSjtVRz6oYMA/oAJdYHkpkFhBxf03Ca4fCNL77OuOod5xtwegWc9jHnTRbfSyQzGYie37Cly11/l/l7eXahS1Rp6Tkn3HPAmVobJOgPOQAxaeE989Zcp/KOIzFpndYddv707j9/9DfItFu5plcpc0lSmd+cBmPWsxsH5EWsUUoBsdgRhgF9oMR8S2JWaGMF0P2zkOcY1a3GwmMGj9t/3l/Cu6OZfczFvRnicIvwHJfo1daFdfn5JUL2s/1OizbDAy0WGJ6Rtraww8lcd4sj333ZcsWvtsmgq4oV/tH4BxOrtj9uy/2ADzm4TPf/Rirz2wUfzWrjThdsZNe+YldRARVUhv98KHGvR5DMDMgUMQvJtMSsuerL1HK9lvfuO21jzh9PitsCrdJStHVNHa8/94KeS9R9hZ+tcLWyP3XiViLYltIILUFb1LF2/t4mOh4+o+k51XjkhX4AZA1nXryLoPb1d1kMpTK/DYFuDG0S7u0KULGtE1UAERFABBkG9AGo+M8zkphlGEyZ6KmWP8HA36m13+pr6jsNu+jV5nnIIjtnVexxGXL0oZMjMJa5+PylAs4Sv9m5fbmuO33Dj1xL3mzcGaWtLYmj1pcXx6DWiUv1VJuWG+Q5/VO6dgdus4FIbX5fxXb/XwVQuNan3o9dXgCGAX1o3FPnCcyO5KRLeI88XLYhtNpi/8N13nT+fqM9un3M+cNFbPLbMMFgykkufuk+6wn5e/w7C6206f9u8LbHN/dZYCmNL9qm8DxA2jx3xN9dU+JuBAvnX8blvn6XTeuKbyhM4HaogCEZ6jCgYzmLaj8k6/p9+NCHa6ymx3y1H4m6BLDtKVdzHZv2L7h9f+fiocX1JmA4y/mME8q85ewR4F+62vMdcdXjPzcUlc620TQMOL4Ag9Ms3qr1imusN07ASaMC2v2HQM+U57fMbM/BuQYsNNflpqKoqlpW7YIoIAoyDOhDVUX9lVECs7yXaEIghy3Z1dte0Qd/zd15LvuY88WTEtgUSKpUuqObKWnFv9/iUxxCptqinnPnegf/rtLSRqxNBfQKOHoth6T6B377wcdXOrbb9RdjZv0u/qP0RNHHAabSNgHPNj00oGGX4SjNoQoRw47VFpEKp9SHm/M8nXs7JgfFX34eBSBAjjnk0h+sPPfy8Wb7mPNni9jMyzIJvn36mczAcx0++k8cQLNh8/vOvbZ4W382qf9BrRn0qjzv6v581u9wYGD0K/1S352o2WnPyFkJM1KZX4AVFQzN30GHc9ECIEUYoKR/Runi3B7g3l7JQePN0GNnFvsFbv/GnmNGw0aFAJCWtkzSvZSMZuMLxwbbGu1W9UQQfS5WW55z1mENA+eW0kOc/FpjtsMK3bOoNPZHDoAlS7RxPMe324IyN+19Skc3/gN+s12y+bpUQjAXh5rHY3yShPx3ZWr4kKgPw5CoEFlKnw8b5/YC9/ZKDv7yrhERc8Axs1dvBJZz/o/aso/XbPPpDxdvwQ0x04qbdJ/WwXl4rrJ1lt4Doc177eM6q6xy4mKx2cT8Fkv5aXnACmMdRLOK1UtuKLrsWdDTZJnT17+MRs28yhQTvG3FQ/5bsnl7yPJgX7L18jubRt75CAExVo9mXGLFSJ8PF+f2APf2Rw4qqMTap1eNBEIKmuVSrlLUptppBDdt034nv9k+5gz8lPdSfPqcoIarbnmcLrSkDBFwHa5vBNk/b9V60rW+hEVLH/Khd9kuOkfvzwRs5KbM13d/sGM7tFvkqDbl/6Qipll1in7kfgqqrbPa0SvCsiefaZMmV29+mbzVGgXOJpX5tWxzpo3C+bj9TcJVBo/PXvBI7Cn2Acp2Afd2TA6KagyJR40UMccc+Sdvdc5ddm5cdejV+he6zTGnryxBy437AhTWX7jmjyOF5/QH8zu03AoVT2yw/cpjjm3Wuj6INLQ5+Q3lHH1wjk3sRNGzneQ4uq9Xntweu67+9wGduPTUwhxGtihKOl+XBgWciapxBpqu1akw4b8lAlGx+EBQ0ej+FERT58OD87yfe+uvw7aIWyWO1KdGmDr+aoG3QzJxNz+M2PBXRyNbeevNu5cvHFjzwUaHmrH4VvHUl0dtap4xZKPzBG7b0sUn+q7ji5eWiaseULtCi3mbbrH45gnO0b9+RLxZsxj8ITfeo8PkybmeI7Ptr+UWbG+e6+rX6lh/OZNJVZdIeX4lsHQzPLzQzmPH5OYaoAhmyIIYvmwO0+fDybkdwL0dkoOKisbZ8amRGPiPdsfAM7c/QGj9f3erIPUcb81Gm9+cYOcsbCnuZR+3VZjctj4TQ66JfVznHwyrueSNWiW6jmKsPCPek8hqYh5SavO7BJZY2/Z7pdKyK4PkCzKu2JBGDKigYhZG0ufDybkdwL09kkNAYyi4a+QcQ5kEjniz1ZcfWzK7ybNnLGPRttT3OIWfpkrls0qh1eP6g0vHcj1ij+fnhTN5ybwUifpAEEsfCIpo2nz4cJ73c2+X5AAgMa457K6RawyRxBFvdvnyXSVEbAZY0E4qrSnMEQDfsZ9FZwWkMr+5Y33s7n9ozMftH/GBiMu3ySGaOh8enOf93NshOSiqSryr24v6jyElccSbrb686ZLbk7elusdx2SqfVeJWhxqwuGd97O4b5BUd+AU4bKsApNeHm/O8m3u7JoeK3juwOsZQMkeiZtW4gHG7BY1KW6vSMjrVimeVQrtL3QYNbM+7f9M4iYUk5LDF5UMFFRUFUVEkfT6Q7Q3u7Y8cNOLDf7TGrlHKM4u5/PHSbo+fW7rbEsgKiVTnNwHB1EbgH3PiBn4Bnys2W6KAaHp9uDnPu7m3Z3JQNOYRtbichKwCRR3x5rArxuog0pIVDgBL3//3v/JZJWr1uu5wr0wF6JYHsVCEbPEhqAAqKqCSPh8m5/YD9/ZIDqrxhqtXjRQ0J3EkaVbDt6/iLSbH6s8pWVuyPU65TUyvlc8qUatbwfVY/rqWx2eGOVazPwZ4QYzCiiWr9Plwcm4HcG+H5ACxvuCukXMMkcQRb7b78jsjM7HdMLwppdoan2OM1aYiSOWzSjpfl/oFG+P9Oyfg36yk8KdyVVVDyMrSOrkBIB0+hNw5xzKAHdygIUspNyIg8bmtmYCbOy0+CMbkPu/sAzh8fh4oGu+8P++MkGeOOyLNcWdMNiHP4I/Hkyi11vg5xpzUqFY+u5RarecrXmBqyOA2N7DFpWVtFkT6Ne3hl47Xr+LWr6Xrs1U+XcYJCkRd0Pb9k5GwSzDPl8CHmBO+vxpYd/c9I1zvOQJiOlSKD56QkSbnE+nnXva6ccd1y+je15WFGAKz5jnBgxsV5IvBA12+1lu/vclrPzzi1W/nnc83rlSRP/3Kd55+5esGy995sc7XayT2bt41G5eagBsWbl8fbDCSQ7kc6MoYNuNpG3HbF/7Jp02nX2Ly92vzv3+Dw8/fVO/d1xT8slkFp7XI7dkHdBSbA1w5wmGnzHek4HNp6DTM+c+x/J0X6H69YvLaJbDGMSGTtuqBTKXy6m//7vXe/OVNX/1u8OmrgfNZysi/QA/bYXpHqt2yxWZyu0KZeQV6UNnvRlnjiIGX0KptZ29zwKtVr5LGNirJlraWPX63WfTaSN52NzzNep2COXHhCqiiCmrOdpScXzhRP2t2+PXtAQnhgMgeEzLujKkGcdhnaT909uUpMJVxdUQgAxRFuDep9oaT/LkN4BzCv29337p1bN8zsOZjIangrEQVUEQRMLkNEJmPcy/f2s2/55OkgTxpkdW9ASaiEfwOJjLu4153iO6dI5lOKiZAJbqt7kjL8zCxv3c37753MLPJtD/8QyL0Nzz4+G3XHi0FzARcmXurPFj74HF7e3Kv4JpGpx32AHUBznTKA525e3jfJnrt5wqJSRv0QA51ZNdQjuRWagNYy+R89Tkff7ojldnYpw/iXn/Qv2duehm55u5NGgvpk//dNnVWHltm60xkx4LuGHgmi1obN6gz7W0/uMwhJzX37Cm0JJljJeqXphbVXniw4zAUujZM+NRvzQ4WmKnBuF4zQ+vsRBVyG0fq19X5ibzZXz0aIzGLBEQ2hT19QtbK6X4JtSq9R7E1aWiyV4GEhYipYfV2Im8371Jn6Bwie3j3YZwCA6xZP2IEXEEOmKUDuHX7eGaSaU/kamd70biCfDHmgzxrf9cis0puSzco0PI8iA5nc9v4mkpHpf3h32VLHd4v4EwiUhk8G9AqDwaDGYTGMd42do1j0457YGMc7ubb/+uK9sAM6RiSncPXaM9SpDiAYTpXKT6bKChz673jffrcp2c85Owreebed3D7wNoNxn/wSY9d+u23uVyp+I5ZfcRgi1jf6jyLNH2Hzq+1wTHz7TTlUNeeSou7jt4ljNtTdcQKLCgIzc/z9XFdL6i7oJ0wSFS/eHz4SWYNv08HTc3dCXn3CGq/EDScgjfmbteiqWIDEcmXBcA8jVI7tR5fHudqK30ORI5JWXg2xZGsJi3KUbH6MEpvEFj3DK/36YY8BeRa/X5ftIIz6LQm5EuwHOrwT2yRGw8fIkL38+Xukes4M2l/+EWcnoL5MHZNpm1CK2i9BzOhB3hyp9i1FLN994B/gi9KK9QDM6H3e+vENZfUDWkOYCn08UpzAf64cpw+IO7BqO8YovdMUNeKPd/ymBY/8t+2bt3vKu8Tc4GPD+KNy4/a5LRH7N4I5d/lyz/qWv/bs6fQUpk6Km5Ps8Oi14qb7iGYMLVOkLnXdGo4jSjJ/vlT9VN7s58uRBBMM0HoExNyxLUduYXTZxiEYQYl29JhR/UpIPoUGwuHo+niiTzS3AfIpJrmgfNxHzbYIhJFQATThxDdNbR3Dy5qL+RESpgpnt1mbUq+ehEOjE3VqDsg4PJhRm8UWG8U3u0VX7SrjLR6AeF8HEEFKrfOAwCIlbv7cvfoRe29B6sXEcwnWJEeQIRGO3Pbtr0Qs70HkMIlq2en2gT49gHex9LePSMfJX36+w4Ts/71Ggee0nE80Oz5LTKOK4nTmy/e8vz5/Uu4jvzHX/noz4m3JncAUkG2NDpi14own/opdG2mhSPun0mxoIIiEQgG0PklYsNP4s1+EQGYrdUqwiKIJI1Sw9tsIEplGgKZfYmDg/5weOxzhR6JjGQQmSo4mJytFAbl+kATwGAC0SVELaUTSff2rXsGV2hX5IfdrhetsDZHPtigCxLs5m5hHiaTqXW7+ApmGqn94dtgFUHKde1pwwCMYa3NARL3cXun6O4GdoAedEHpZcZWoAcWD2Nz88TVgFPRgzQH4LArFs/5hHH8+sB3oOLr0bztkeOoPfo+0cGZZ5rNcyz32DU6B3YsvnO+ZwHEbDU6n/d2A46+n70d2Lt3tmavv0Tfb3kHr+XXnrv9pH3W9NpctfFlS9B/aO8dNnmG16ziOlS79T9/jhM/w3N95lzPsvq/6+cdh+n9Km3a6G5O38j9q4TzW7xg0tCfrbDIfCZRGMEGUf3akfqJZ03+mQMKq8JjlZdKw8Sidl8JPgeQHrrJpEKTRd5XtcDKYp9VRTJJ5zzyokfCpAVAZ3KAAxqQI2W41XeNJvFw1l0iW6iSvJYCcsmIHvxQj5Rzc+SyiVRw3PnlcuThTr+DDAZp+8Mf1CFHN/S7WAwxWhl8q3+UKzSe5g6x1wnUAXogjTbD9TLYsw8sTiNyq8S1EKeyiSkOQFlkGeIZ0s8orerFHXv7fh+nKGDuvW0es+aoUxRouPiurcMum09vwLitNwNCjnubvDzomO/68FuUWVUtf2T1fRFsd4uuVRbZ7hwvGf+4opJsE+o9+lu0e9PDF/gQAVv9xyW3blf9qa/S3XHVuMovbZD/fedZyzXmNP2W27/7Rd6rY9MxqbQtN7jQ0PXApDM4VSJfR5XR+fCn9CafrrhrW6KES2VU9RAvfMXJnTBX9k3i7AnVSdKnLYdbUH8kFJph7c6glOsEhCKyuhm0tKFaR2hVbnIWRhRExZzvLADvHL0aMJqQk6eCnINyeAzl5skHmj2LPKyqjro3f3covSzGOeiKGQMlFW1/+K0yYghaGjaV6W/KQDPcHn2wAPjel+B0jB5gI3UGm6B1PTBLnXeJ7HmUTXqQ4gA4V91GqH2a9BOCsw/iLjp7xsNz5m2GiWupQchVuP6H7ZvYWSG26fkDg44OlSWx72OsPO7FTm6++htNE6r8nBsd13qtteudfFDWtfUYe+PXO2ad3hUWHdEJ6dj3uOkbXv+Vlu9Q80MlffyDT+x8xJSt+3/NWo5wSv8Wh4ip27zTjvt514oP2wF4vPX+gMRjwqYIKgqB9i8dq187VsfgRxXE2FfdbTvpHHfJu02QVavImqDyut0bwXqJXfdrzAOXPyf845IPVp+WDLiDGSaFn6dxukGbuROz/APGZpYe6MkxbNoTefpYsrB0+jCaJz9/rT2Rmcnt8w8wd7VcQGnsktslflu1cBoV+PlcwuNcAWutyQESRzvXRG51lB7k89RRJvfpAykPcXiEJxU9aN8BEJyBq+amxM0NEvdWtd1ZCUOe+VpbDUOVuQOZ/IZafLThOaI758kWtVVeLj/oqNVwVeCTT7VbrsGPDGheXtZd9XJR3hN23N8UvZ5j7Fik7ecar3IXRv59brJxbdnP97vivRnc+mVubQeMVXJesQjZfe1TA8THdt1khIAZm//9aU6j8KlfHd7EGWqIx+voFRRUlaAode4/Z3Y4Adc9PFcC3wZUC9UXCtkPVyiWAe4ZuTKN97BQWLz3FAAXMV01sEHuy0B2pyiTq2UIhmqznTiZBY0WG0WR6Hvn7oG0L3I1JIS6No9S8+SDdc7Nn1IVVaLcigLNzeMTT6GEadZ2iq8azvEtfR4pzyYyzAaTlrg12gfV+wbTYXrA68ndXJ5W9UAQO+8T3BU9aOcBkCZ2HqLYDMHVB6oE7wNyZ2QdQ/4BjjtNB5hOCTKBhlpMlzxHZOe86aK2T9kv7LgdSgnRzXXMa3uiIt5doPzv2ywj5KhNxdjWWqOJ4xgwYjSZrpOHOfPJ3aX5Hqqy0tmXcgKG3Q2grrn1cjEZ3/Vqx7k3LPOpX2/gUWVYkcPwy7pXd6qiogikzq+j8xu4ldGeEOv06QKjMeSkWSAxxHsafQcJ5Tp83G3gvMwEzdp98gjNrVw4U3SOPDGvyUyIpGSwyxSmrgJCBFlABBgsjWcyg1nNkGcpId9T9O4yHS2QX6FwyszJ3YwHxToK8ynVxXJicPvDT7IipCrx0+WLE5RhzIYrh0gfTHWk4/QgXbF0Z68+kDSFzESnzfQgxQFkJVGVN3n1u1Ld3DE/ePWMTCYA9NXPalKV/FwFXuwtj2ayoENVVDQOm2K2EqXCjlIsB7Cy67jVgqujMSV2eJr3zTFNLsLA1Uf+BYz071vtJNeRu9NG4iN+zZtPKyprVs5J3rzWQLJ+YzIYMp3YolJHkXR+IxAyw8OXg8IFKxrFQpVo/9Lx2g4hl2Ox0E5c4YiULmR7nUNbAkfIJombHDygbGOfZnJJEs8mOhy1SySLSdmDEQPnrpwNtDqIJZooOlM60JXmyNE0kHvzgViii6wF8vNWp6lWboVmPLD3t+hlNpmxKEjR/vDFIjFhJb5dvHyGG1U1wAxcdTCJBzpXB+qBXax8huuquw8Aige4/azN9CDFAZiASfmDvvf7Ul11R1Q0zkD16BmB/y3ic6oPE9TKlALJa6jGHfo7Ft05T7y4rUOpHkHH8NvoaLL98jxHwcaicMGyqz3YSe0XbwYS7j7yLmG4rTEFodapUwu8+ZRgOMP5A29etQDduNJePvyYO3Nn5FO/OQ2KtqF5A13jnOcAECJWVfdfw63dr6fjUbnMhJ2+sxGLGigK6QCd0+BOE2Uy5K4F0kCBBQ5iPSQqpaQd4pAdMBOWMErqRepTl0jBo/wRDzCpHuWw3ZFDpPooaXAL5BtKnS3NjDQaeZNPZ9b1FRpgSgqJTa094jvFhTCV+Lppay7QmMAtcJsNK1KO4dKBeqCbNrlgYxBnH7BR5xhHmvagXQcAI5ds7//DvzQzDY4+UAL+Cx494xhD4u3yLwp04OrBhuFf/chEm4ICvoq3DNQlQ46cDxiIUBXfMbWjUKPrVzp67Cc+6WaVo9dR5djyaBaaRx/b15vPDE5BLoXevBoC5N73nv7eFswWqHLqGNSsdB3lkqCqKqKKol5+M12PlAUhwaUzEDpWdUdALUR2ZbiN3fT9Yzwvy4C5D0nXnPiG4IywX+u+UACGDFxJSAyiOQzQvUb26Q0IiBijXBFYhGKz5EWRBvKXz2EeRGm6tEA+0OhsGSRSdyJ1h80q5gHOW4jVwowFgFD7w2cRAOVKfB2gc43cKVxhMFG110GQqrNoO1APtL/ONfN37u4DE0kzWJrrQYoDABMH4/fxyT9mM8HVB0gs+fWMZAbINO7XyiH9OONMQm7D3LfbUeY5Yjvnyxe1bV64Vsix/6hzSNBwgucYVeS09Fn/cV/1lT/8ikpyHSG+FzeG207DcK/1Wt9oo4uu7s2nMQO1Kzf25jUcSUWDhwiTCXP5hk/9JqBpakjwjd0XbACiEXbp/LE+KIzgVWX7jmb1vcNjTMpLciogCaXhkhld3jVVb2wwu3EYcq70BXpf4MGowxhqMbmn5bZPuPB2qggSLbpRM5jEeUSaJZc0kBdZiPcCD3ML5MsR06Vi5bY0geZiG/78Vi4QZIGhPeLLFQOV+HGp7VMs3CdntsoI7HUQoQ7Vg/gbPuXCLSLOPoCkZnuQ5gCSZhZ5nx//o57h5EY19vUHRQHxGEPiq59V0OTXXm2qb9Tyaz5CwBV1euLFbbteYP8b+45DL7Pr9zqyOV3H2y8yRpx8rCP8hrO97aFJZlMZtrzJneU4Nh67oGhSupMc1+LliuywuoPcjmZVAbav0eswJ+iKR71YHmDJ/lCD0B9DQ4FVnceETQmgBFL12VI1Gbg6H+1Sepjyy6uQGER5NovefLmuB09BpQV43lNmSChqlkF0A0SLFw4jpozsYsqqJPaUs2//gSCgoqhg7I9Ss+TtFJDP3OnTInAos5bIZ1tqVt7cX8UE1Gs71M9yTFEVy2iX+KAuUcUm+HiW2beTsxrMUOx1yE1SA97UgXqAjybi0QciDThNyNt3AC6kpvZ+P/nHdKnOPlDiSP16hoz3vrrGhPtzHO07LestlqbucNgFvR0LqA0f/muDmE3d2j38US5hcLcPaT/aCe7fiwx0WvZ2j0cFv1vJcTZcrJBMs7vrjj7yr1+kbe/KszuOb8m5ERrxuWs5pnede0RuJnfh5pUc3CssAqImTXfLl7Flt3M/k0wmSzS/AviSto2KDjqBTebdDwWIg0pr1z27PDjGARqKSaSI+5KTiK5qljJxsNNDtirnit6YKajJ735DTrEQ1KG23HcQzp4WhQhxcouGzEoenOT+4JmTREpiZJZKppj20U1YzTDIULVzW+pAUGmToXNUfoI+CQrGDX3rA6CfWSzDOCahCBGgjus8Qd8IQILBLQgqiERNAJpwH7gqzLwZ/Lh9IAHAI4dYfUAyRZ4FAJWsCLq/VOsF5uGgb0K/ob+S3NWJHn0gqJs73pWHHRkJYnp2KaUPqy/H8FNbHD9/ngxmNfvU0r5OFt05T7aozeBDH6/XknvN16df8VeqtsJZMeA097DZT120cNN1Lvl3c40qh6z6H+9zyOCurX9ghLHSr86FMxBz7InbgrOWoUy9DR7nTB0Wea1lDznAZCdX2GzswFJz/+vf+Ud5aKvNek0q2/MjW7a8XIWSS8EqBy/Q7Xdmldxu9BGLOSOR+dRvLzAvtsf7tE7uWU7oH3dK8gmGAwg0G5gkFSyWYYbB6OAQXdf+m+NeUlGLhFrpmtRhpAK4IBuJKeUUQWTXysDdJMTyJIlYCurBrUFt5KoucuGDZ04ls7CUZWZGbjMUxE4CQYOb2+Iji+CDINYT9K+cDikHVKHfnT6HbACbUmIDy9Yly0/QNwIIIaAogKv9VbNNSbYPBGZQawY/bh8Ezz7gE8XpgzBoVAC0Rh/51HtehBe6D5sKBXTQDmI3ubsPgm8fxJkLiIctxw1Cva/mu/7dOsvd593v+gHFB+23YYIkixFvwMgcABru1ryK5Tazg9r8uGsdff11Vu9hmZ79nU/3Vzv8OHJ73OqAbsAWJb9R8zy8QtLRBtDjii1zcnvkdquXC7D4+KmFObbLpDyAqU9ZwOhDh+z2YV1K/gGw/wpTC3OY+eRF/vx96tfdgPsNTyVMOHEzgsA48oWi5OXJV6v26YfRqE57Gjykg4TgCPA1pspuGQYWdoNzFFMhRDXnzILUBO8RlJbX3c4ds1IA6uRWBWzk4iSPPheYh8yU1DmlKCawOMedu3r1W3V31CEQJGRWul6eoM9ymh3xWIrfnT5MJAlUkTMTZSAnwRP07QFIlF4MC4aPpPuA2bNYc/gJ9cFcL04fNFoGQKRlJuqLk0xMxIEJdyFOoci8cJG7+yAPfn0A/kPVlRFCBsfRagY0fK8rglxH8ZWuVV597mbnIiW8xmKdkxGfA4YyN77WovPd5UTwu54kp8bGB53GdzRes0eJb28ng0P/dX2BUm4TTltwfoeWn17w43U9R+bD11zu2/Pw5tvpkqM6NLFDq0zMdxzDa8w2uQSGsKRte4F2VC2gx9wXnZqETHLM/1Wlsw8OX7W3XUy5wWbFXidpFs6owYGhaiGxETspkWahHFNhFboEGSIP1pgLNCODUcYoC0Cc3AKa28iz4CLHB8+cWA2oQzJyZjRRQwHxMCxQN7fhI0getJCIwvUE/XHQEOwc6YOgLwbATMyYlQutFXeeom8EUES4ERWILBkWFOHGZPsgQUipsxn8uH1QqF8fML/i9EFsK2kLmrQbBI7WQY4sasc5c7aFkFQnubsPRPz6IP6DeVTL/jCc4zsANMh+FXAdwmasWISZIfcMULzRGy1iM2TBFteOKX8+mbAErj6FYI6btLTF7VngSNS2VjZlHo/nU5IwZ54O2N2UTs2UVweE6QlQ1AYEJNe5YZdJyVlEVYLDOyWTcF4EWE3LDHERJ8DqUrdNo9kQJXqzz03oTm5F1UoubSf5ywfNnKBkgBDgDve04SCgd6gobm6Ljwj+AbL8NP0KZdUN/eG708/izmoV01QC0ibop+lLUWqIcKvaRxICqDLfEu4DUyXkZvDj9kHw7YO7YvXBPucoxooRB60ii2z08rU1Ivueq08bnSAucncfBD/uuMfUHqsl/wyrzywnz4Ep+JE1bpdQpNETL2oDCLfISZHXmtil4HWEP5xvJ2JPv8Onfi3oMInqOmDaa8YmyOBwv6CZR8v7sIuLOUYpdhmnR0l05EqqGQjiANyYkxYWYBYSixozNNBukiTYJRZYSLUPPbqRx4sb1Tjk1AfO3KoMOKkaEyGRAqtRQcORm9vuQwvRgbr0FH0Z7d259ygB3p0+wxjsWarMynDQR3yKvhFAiHCbRxyCikqEH9Bk+yArtACawY/bB8G3D+a0eOReNpGIJRfdZEjQtAuDJtDpAARZqIvc3QfBsw+89+LMSAwfkjln2D7oCr0ok0FI0WsseOPFbZaoBfzWuCvUhkBpaVPMnn5Hovn1mO02gTeZ+3dNQZhkmDA5jK/KvQUXDMGIfPGErqamdwxD4dTt8s5CBKIjGjiysyGrqMGS1EwyJw5QYGGRwAHYnIOYAIqbG8FGrk7yXB88c0UUNuOUVKgAgIJBL4GOm9vuA2m1CIpP0n+BR2axd6wPiD5ipzEESdTAgitP0TcCyCPcEVwBEAEBidQl2T4wNguwZvDj9kHu2wdzK04faNaJYypthJGiJeIgdYQKGUxiEWe3ODvR3Qe5Zx/E+OjISAy7mMxk4Hw7FthI14F5DoQZjLHYYnOwaAsy+pST35rIhZkwc2eRhjZkCtvT7xD1elx/C5qhGnAM9zdKQkIA+duVX0kvnEaZxw8ENIMMNN/s4NPX6X//d38CgRngs+hPJJ8g8lOmD8ci0V+wkzgbqaxvzF8znXQCzW7u9QBnGgBoxMbabCPDSpCZJBPINZ52NgFpWJRPoUm3pWIbYXNnet/ydHMHzWzk6iaXvrjp77T1/Feyl37h6GahHfT+WsPfF2j94QHcF0cwHxTpnM0/rG3+X01wxm81nXr3EOajWeQLGmG8sdqtFAjCmEEyjso4Wgk1AVeTsQPBYyomQftkpuLmtvpgC37gUa0n6J/YIlqgvyK+odHXb3z45U0D/pt/zmfRP3dy/9vsvKUcQSO0EVTDflxG6vwId/e5AAtLUUKMLyPMFfjzuRAyG2IyE2yeJ+gbAdSi0H69r0Mtbh8MNj1Pcyp6MA9nAu0EKpNINUjcTunGKnf1LWOzxBoMUBEhLgxiHJiwwj2o4ZnDRovVB0ivUtIDuLhwliBDCpfdUwm4KiKakbaL3N0HNd8+iPHHNW4tXuQ/U9wVTJIp3BiDLmRLel3wS05r0uvGkHw7kIY2IGJPv8OnfmegMDQxCWeb51THB/xNd06PMRY77VQoWR3XHvwlvt32y6/6iabBTzbjn/cZ1CfQn0DwFWV9z0uv1j1uIfepS2cDvZOoPITNXm6HGOwg8fzZ5yEObxS/plJGte3lPkl5/rszHvE+u8J0R+JT3DaQ1wvs5TgcAsIaiGF63ZAgYeqOAdSHG7CSi4v8nPkq33vl7k+dPvTDeKec7Dj9dQU/n6T885vGv3dPz3c8Xlr49Q7SXxZi68xjz+xhTxcoPvb9XV+8evg6ilbNsY3cJ6qc/+4MNGD92t0R+F6uV503qfzs7CwQwGMFAYhWYXy5UdAI/phw8AT9U5OWdQap76rx+LurPcKf8VXwKaY/k3y6KOAL8QPMO/c91x791f/4TzT5wg/wtRdgWY61EQV/7auFr2MIn7x8bhNYrxneiMFyDusZfbrSc8Fml4AMU4aZO7KYJ+gbAbRAPabQZh3i9sEAkycvn09BeJ8nfQHgfu68YmQfQxrq5271SvW58vJ3Yg8geJZqAUdUdS5hOQcHiBG3D1q+fXAwTh/UZqrEuApqYM2gtlcu3h3zGOahuoeCitxF7u6Dlm8fEP8vPTNL7PJEIp2NSuG6SLk9XW1KoS1rHOpQDXLTQ9fADV5nbwi8e2oRU3UOR5LIVrCBIU6p+CN6Jyn31xT++lG+3/4xsyd+9OwJeNmpdlGhz1B8/p0n7bom0rGk3aAXE3jq0v1c+ftZ2q95WAoAz9RxHcmEXfpYjNS5YuNcszbPXDw3SmwBB58KJGgSEdqNQ4P94kVEfbgVK7k6yaUS/gZ2n6rAwQnVGn/EY8jXtXq+X1jSPvbZWPvnOVp/umLjFzdMP8/cfk1gAvjvgafv3BPoiKCvzQitV6v3WrXzlMUBMq/ylCxDDYKxOjTQx1e7ua0+ovgptesJ+nd4UUcahnKf+gf/dJ+v/zTpAz+Md/LGgO962dVz93WD/LO9xFWXv5STGu3pWh9qA40/y8Udkym3VFjLdLQjagYOvgopaDB5g/4TBkyrgiKRJRAAMfC/Stw+WIYVrxred/YvT9TddpjBpcRzpcbccOl+8q53UjqKcW/nWobBJFpqjRMZKRAY6hBWU7O4fTDt2wdXxemDEhHDq+qckpltRDA3lguqCRtxQ0CtHBe5uw8yzz6IdzQtAGLNzETsDBV0SYYQUpJr3lMxW6glXa1em5lIrQ2vLcm80u/wYWtaNiuAOpx2TVVA4ZH9B90BzG03WWAGuxkJING+p4j5aIeM9rR4wspzBJPnSb6mkTBYP/Y9vLlp7HqWwrlWdV41fJkbjJQwl/BAhy+WuJ6t8Fy4ORtpfbsoR7E3zf6iWC2k0Kh+P3npQNSDWxAbea4ucprA/wwp9it2CNNo+IhKYF2Ar9GOT18z/N3N1X88T+550ezz5N37VyM6Dh+bwJiLe6AjL9q2d3eti4lnhIZEqUI1ibKHccDCUP0yOHFz231IXmhA1OQJ+h8OiSRp2Hfyc+j/K0nGO35UnQgFKSL/Na+w+PaU5ecGqctEZQnm2laHmR3DugxTGUYSE9SbDfcT9I0AahZuEHtHiHJF3D7oioKKFD7aZMZXC+/LNfp05efSwtnZt3QXz67ABzfBh4sZkYDVVRlx+6Dm2wfzLE4fgEZ3IeRaQBtUeZCgIWOjW4lwo5HbTe7ug5pXH8Q4ZHdGIEKEzY4ieFfykpLuXAw2KZWWlFvBAp1G4jZLoS2LHA7NWu8HsD/ux/zgjQwhh/CfSY7D5knGbTn1GkwJbZ0xhb8BMCZheS8DLV4psv8tFnYxvbdnjaW9iNh6VOBESa5uvIvnepHs/da7eFPuaZyD1kbGyp0Pb6mbG4H6cKtmNnIKJzm0EQojtvmFUDY+Dk3IfX/24x/u19mJ7539CzgRS6GkbgzczRfeSBvW7oAjdqqmUmR4cnB1iZwO3dxWHxH8lp08RX+dzBYbOmPd0AeHsEKZOg5i6guBNZhI+Tqh9aTluajQXb2RRLMIN1NpACdTMRARe3CLu7sO8wR9IwC2SFTFcGDOHSPnYsTtg6VYcWaTFN7A55+4mdqm+OxN8JOBQZFMVQ1EcfsAPHO4KlYfOIeA0tWjNg0whNCSe7/OASgJbCB2k7v7gBh94DtJt2XkzEwyJXQBOEUOy8HozRa2JbouhCxy3SRvhRTb4vNLvyPx/C6x3g+IOg8oPnx8Qb0/GcBhJ1WcSDB4E0ejpvzHg7t90PSow5j1rpEJxkLyGuG9g0R/i+mE1oACZMCskDkk+NeDh8CsBpx2xeUuyYyEBtSHWxUreXCRW2mky7lh/tkGhKq1j/ghm5L7PT1rDJPL8FMhvSvIZoUI5hBigI2zmRcFiJl9h+HklC0Wxs3t8JHNlt0hn6RPmDkcFZi5oQ/OQdfLw5l6K1TgC+OOvn0Yk0/6KX8OHEPkLNpZ2+QQziLnUKgzEGpOmH6KvhFAibXpQFRQtqgifYAuSK1MYRnmfCx9LYS2lriAdF4pclkeZHKN2twh4ERyXVQ8FxVnPd13dxjrajNjzT7E5LrV80LZ+9Xn7xfMPteunT62oYjbB6VvH0icPujI1KCTOe76nBjbGBCskIDw5qspLpt520Xu7oPg1QdxTv87M5KIWVnyMzTk/BGEKT5jX8VtlvZWUCDJUm6LtJgs/Y6E81tosE7q/TsnIOfbJUxyAIvXSIJ03lejQUxcGMQHyHBs5FyA+dF6276hJ+KJCsmB816uxR64ESu6YBg5KNEoFTzEIaBwpPTp2zQDzLsZOnyPoB7cbJKVvMRFjgLwSaY5lnQuAKw9gXTcp2pKnnhfLpdvzFoWMwj1n8BSqIESwUZpxUHsSoIgJJ5QcwERjMsEunh3c9t9bMEHZElP0D8sz9FsAENYEj5BBPDn0J8+xajE9/DjvEzsukn6ecLqeZnoRT3tfBNjaOfjJCJiUJMAdl9+gv6bBmiEG9RjHq3aMXH74EQ0TWGoQT+bb5/1rNr8FeKpj8Vl+bO+zlXrHWb0/s6Mo7OO0fM3e8Ol59LCBM1uG6o8benZUmZfx3ojz2XPWnj+7aFGOW4fqHrmcG2cPvC5McDN7TOUjT501WTYCx42mioiPFGWu8jdfdDy6oOKfKc4j7pNoOApWoAQmiwSkUZvtuQ2c9nh1uQufBdx2bL42YFk82tjecEdgvlSuzhDgIwH+VeW+4gFYPpWyK15c2a5L57qfxuEzZr7OjqYRsnJC0DIheDkjSgAByaUfWyu1DhzCA5jE8mQG90jt7J91Ukn8VlZz+OtqFjJcxe5iIM//1Q7hc3/DBKFGo7jZsgPZoNR2uzLLQGyE0qE3jZXqvdrfhAWpmSOuhhb7rmgagSuRbu57T4ky4tNCnmKfi6RKQv76jfoa9fcuR56mwFfbGd/LtfoWdR+za0UusG8XSJnTWAxEBqr7HqCvjWAIFFuUcTerbfG7YNGDPyJ1coUrlUdPNBpyQpOHvBElTODyFN3vOYTeuxr+eyF56bpexO1WA7oh7yUMIew+aFvFsprhteztL+eM/W6sDjPlX9SQn1wRZw+AHjGZweHkYonq3HzZRR5hCIDtMPKJM9c5O4+aHj3gf8U3ZmRCEt4hgGHI5SS7JwPm4e3eEu6WpHCN8gYHxLOK62OxG0BKKPKCxAXroEkmSQS8EpfRmcei2iuIvqedUBMtd5z8r+BqbX02MAo3tzFxSDOZJJAS7FiXZ3vDuht29vu5ioXE9rf4nmT1xKM0IYYRNFLRCwUcJNsJhioenCrWMkLdZFnqvGn1ETso/VFDYTCjBvA5shn4qKfRZLlSIzQnEijqZftP7Wl2ouLZ7DV50teZ1Z8ayCKmA+UAiyeAHZgP5s3qGoU30Rr1hP0ufnYBLqKxRv6iJceSN5qgL16aL/qwv3DTCcdZvYALoYymmZ1JGZLhDvyJv03DagpKmocf4h5SCCqzFlx++APxVoGm2ptQOKkQTbraVxE7BbqvGz0OohNDcBD8Q3DdZ+w55pPyGSzCG4Y3+drzZOVD8UvM8Di4+/pypmGGQQ3C65XiexnLj4/df/ji5h9UAO/HA7G6QNMgJ1BsqLpPBppdoKYkoKoYKCLR84LRyd69EHDrw9i/ROOjAATAvwzlMnjBF2hv4kvHIzebHFbtEXh1kQur430tMXtaXcka5vGtkHhwoEL7DIcpTlUgfiXgESHi4dK5RAxDRJKG1cxDWGRc+9liUWYpVrFlDUioM8X4Pv9f+eGz29szf7sif2fNn3o19KLKPCzQNsN91VdQ/WnYAFb57ycQhA3N5G5Yd5eXeomT67oglXZQiY87Ac2qVT92GiOfBkOuiOMHc+T/1MF+zRy3dv9/v/0T6YLBijS966x+GB4UKk8lzcKBv7pMDwUwhB6ygBwYK0pmJw77LcaYAtwPukN8g/+Cb+lTK/HMkoE3B0NwIa/KYL4rQA8xRsAMdtCLo7bB5eD+05fjPmBf/uy0fYjnfr3mqFaNgNDBf4bejOTCDQizCW8lyeX4ucR3Av6qFsH9nxccq7zQQ4nUZ6rNW/QH/f1io4lFLUsw8T3zeE5NnJLH3gEAGHolgNo9Ck87kY1yRAcnejRB/v8+iDGd7ozqrgPB6M/nrsOlWdN4nH7J86mOLROtt8dnWwHFB6zHEne2IP/Q2WhwFTXUc/ID9D2Zs+G7rp8wPsaZM0kwXtRGLt4J4Fz0vx18EPMOvvrRxb+/PNbyMk/7svKiVFMA2gzTpQmgWyYi682DKBu7gS7jlCS7vQg9wgsQ4mFRuh8IGTAa2InNUve3xoswFOI4UaJL8ZTS5Yj5xHOItbPQcxAGUYUoCGZiGTnEcKe3KAmvvCGAVjD7fWEAQc6ZW8Yn20EWVaM8J9AaBqAyW7uHMo61PBXcYpSUgnNuG0EYMFf9boRI7ihS0sfYKlDK24fxPCMyfFLxTpIQ1D7u/7ujjcokrGUtcIl4whmNcE/il7dkMNNp5L+Nd/8YpytZf7EE898NL7wbDxDDd6gD6eSMUBbeW7g+/YBbDQvcncABb/QrAig2SZeh4443BUahbMTK9IHMd59MiIpHxrxEZdNE2dj62Vr2a4vvEZuTzJJBiYv/9MNWtTBK8m2jrsLEUlHSfmLoZqo9dAZvDsMNoUbomTVTFH7/B/wK9vLv4q9DIo4NpEyUhVCoYBCKB6Z7fBz4MHNfEXQYva9SRUXuSRbDP6J/e0GcuZqqElvSyzCSSp4q+bIR2oPxtK7078BDmKucfQWhlWQq4MEHd1wE+X4wA2q3dx2H00zgN0lJJf9NgNGJF/QPINjoYM/FKlpAKXzr78YI4EO3FQ5dY4RgAXfZufwAhi+wTvydYm4kC2K2wcJ7OWFrxsoa8CpQZExepAAuBkmkjbBn0WCfiY0zCiuWXuWowAAcOahzHqDfgFKKslEJVjxvXJAT5nktj7wCcAv80BVBNBsE3FrQEARMfPc1YnuPmjg1QfxbslHEUQUYYsS8aECEoMMnN6URFkrwiZJs/kgteEa6/TsZmdwIOR9jfhiIqt0ZmrXRgjjZZcAVEtQlrPySQbcSftMohZ2lCckZlZRsk9yzdp5v7+Uu3YGlD08tQwUaGIb9HSOmTHUBETe8PTgDq7lHA93bXWTsyzBmEI6zECDMQKbDTHB1+eyN8DLMdCEXGUb5f/zcMfQqyYfEWiG/MCG7kPSPMdMOzHhcujmtvto1HLVqFxEGHqDTxswbBALf3zax/ePdEigEp9TqgmAnuGB6QRuHyMACz4AmZkb0kBUrFNGBRVqcfsgA9xICmP+PiEkZgyyaILfzxTziOiXwQskXvs4A04pOPAG/YS9blYbtS1ZKEx8jz5AQMZt5OrXicOGSTNuGkAzPRidJRz3LXMRVye6+6DwGAexv2yNCIH0O+yMvucB+OSQJKs3m1rZSJjNq36T0BlDR9w/d/7YZyUSfBGDwGvVoHtPz3S0QB/6jNk6Bv43cOR9zQf41c/TbF+LnyPEkh0WL8OfgaajWe+vBC4g1a8JLVt0O+YJ0gLu4biDM77RyM0dmMAra9wruMmZ/Xv4FgwQzUl0uFFMoZbmiLeqNyH3jbV7a/n/d/N+0B1kAP8mNyXftExB5jHSIjc9MFRDN7fdRy5w1X2g3k2S9/OUAXJEQh7E+xrM9qxtUFh0VK3OQCPIRNbFYEiK14oGYMMXgzOop9IPpcJ9EMMIZCMpjPn7CstBMVJvE/zhxizGnE6BD4cRRptJ4Q36DWKrwyA0cyu+Zw432siDQe4RQNiCT9MAmvYAySsPDERm4OxEjz7I8OqDuFe9wZpZpX24Gb3ZNHE2KsAmqWZ7EP51Q4XH/48qEybkDpfIv203qkAHy4GOH9OBLRAPpVUJuO6dHL9zYD1f5ly1cV4vtCN5I0DQC7ZmS4Xb+fdSTJ+DlFnrtMzizfNaMYyN5OBqfXkcFTG84enm5h+v7RvmPcwLF7lZTX7dx6+e87fmvq5lkBzKvrYXF/rFZuHxemcjSgPWJuTeG/Wpyn/9re7o/zCJH4cPikpyCy6zutRANoLqoXYo5no7b7sPQiunq5aDuBB5+IQBi15UICJKTr++b+9iENTVWJO42XFUiwJgh5SjAdjw3SGmhBumjEj0U2sdQtw+0LDCLAlQtpEeBLhGwk5Cu9kuxFFX62HnUQ/msgD033Ms7UXEqUxhI603Xrp39q036EOgUVVSNhqazZr4vjlcaCO39IFHAOg+VDMBOFcGEFgdmGedLufB0YkefRA8+yDWHF0sHpEkfLgYfeXyljhrRdhInE3FoQuhbSgAu3wuOBXyCZ8oWA26RsBJGSlHYBpkMCeOIZGLJ+zNrf24XKU216qe1wptKLudReGZC+dLvHZ4KQ4wckVU9sVQuZPRSamnzZKnmULfCKQe3AHfYB6J4EO+cyDf73Ur89ypPY30Yc1/+yeunP/k1cPvp1DFB4VUkKct1fO0xf9+41eKfHo0cyWF4ieVJuSQC6dbJQc9jQBtEGVbntyqWPAljIBEnWA9QR+Yigkd/A1uDHiBJDDckjMrkiI/ohGJAqA7KKruhWgANnykuhO9yRt1HWOoInH7wAdhAUoZx/z9VIGPH+LJKs/LR/fjnPlJqs/7fd3gBvLNA/tZi88l+LmLL8LyiKctnq7Iu/vyBn3Uy97qtYJkedHOTHyfPgDlSit5MMjdATBB3Jw21jvEcDTnuxSBjtI6yPQ7mY/pHPwVv8zYL+1MPkt236+qCaTC1YkefRA8+yDm2fKO49n0Oyw1joOnbm+JslaEjcTZFHXv5S6rNsSFi8LafJYRF8lzvwCKbQWAU8vsShWRfyUQUxjg+duuZyo+V6vNiy89D3L6EEemUmygcQ5pLsl3LOOLJfa75JUvIgCLHhhoDBG2TU4vizcxAdNEQcrzeAMVK2TdbSlc5KZkn+elYus58vPyi/ctg+tLTCDXAHt+7u/rrApnPNi5M6D4GE9c+e/Hxlv1Qu1rsYVyhpnzT79M9PO7+94vzBLQlLxHKYCOCOsQGDTRhGLIzW33kWkeCB1eADcaJ/2EAUoKTDfwCcKtAU58DCbskimYJfykGNNNYHWzx20EYMFPUC35jaUOfepAFrcP6nBiEK1pYz2AmRpeMbL/oBfIzC4+xzL5/i7UnHO2eqvgOtJhkXBfz7q3Z/0wu3jXnq5MobKD1B/+rGpfKranUXmD/lrX9boUUAs5tC34njlsio3c0gceATCgg3yVencS5km6rzc3TfSNLibO43e/PpxL1/dTnP4/v7fFs7/LxAqIw9zZie4+yL36IIZcHtPgwxcvXWxbZf0O2SzcCGReJ3OQTEaATxDJQVCoT8dIdCwyNOSG4io+/Okyv4Ze/M3ljGJKKczFeaHEdY36nKfJNWrzJrAplK8V3rfxr3epKvyWcubX0Et/PZwahYA2q1A5QPO4YiJIstVAD6E+3ABzkhRqJ5QuciFT2sO5nqTreh/Xrc6HAj72t/Ncqf0gbrGkYJPJNYVc52g9Bnz1BbijuXUAe93T85pPqALWWUSOZvZCMFaSk66imMbg9D0mZQQbjocedXf4KJU40dwa0Bt+0gCdLCR/zq+hJ7+xGurGgKAbU0nH0bBbVKnAtykUf/GBTpBzkNLZdyMAG7670IMneQtClBsRhYNx++AiO/gKB6jLLCIb6cFMPGOpFd2Bo+g8W+r6zZ68fNYy/RSHM7lh/LqPJ2C1ZRgvEd+/x6X5uUH+6Yb8Ew9j1g1S175c+A36ilmtotEHJr5PHwiQW8lLg9wdAJIIFJlCcjTtqugO+UePpnOcRzW/l+r07//9zpv9jSyEanRDJLg60d0HNc8+iLUY9RgNSyrvw8nouz5w5pAsqz+blZ+k2Xzqt65s6pw2BFdRJa8YCcEnGLDur3NeUQ2iD0bZPiC0dPAlcD/8Daz573vRhRI06Bqgtwwsf6tR2vgEOn80s4KSnzp14PtYdB5YUx99tdMPbdvZDqCUPRAGOZmgcz8J6sEdBcbdw9epIviRzyR9wcSLhxqsa3Q6yVgqn0IryV829n50SR6IGSAzw87eD56k89tmyM9i6j4xwVoZyI0cW3RKbm6Xj5z9qrNQfcg+mXqCPgsfRQD+md/bon28Qd+78jLR7YE4N8HHDWNXsD7SvRp3zPBARgAW/Cl07ghueb+RCJbmVJRNidsHv/3Q5/7PCALIRnqwq8+n7rpCpBNh0ylfPLH5o80k8ktIBT7C3XyL+iN6m3yCD1lDfIO+aut4hlnRRsu2Bd8zhydayYNB7hOAFDT89UIbCJGMXiO0KwN4kzlu80BLVye6+6Dl1Qex9yhGRIn4cDJW4Dr9qsmzxmcDTbSefvWbhtz08IIG4j+bAgRfRXJvlGA72Fo4Js/Vm7J1EApYZJJkOdfozLFsUqlOgLPgorq/AvjAC4mEU2QbTdtMjvrEYPAAUA9uINrpXSW5UBe5xibkkyn34SJeNEfufYDU2VryG8E33QxJW8BNZATFhyc3KAZ+gHOBfcTKhf2EATeqxzcGvBv9pC/eFQmzEiMAC34bDB/3t2eA1cfHTaIPvj14p/pk0uZTmIv55ooq8xv04e62e4lqJkVpwffNwUJu6wN3AEFmGq0PAJ2UcdTZie4+yD36oLIvtFvlfVSQTBNnY2tmWy+omXrhzeNnXIKQd2cHROp8xJyu0fsM3Ti5nOZpqsiJXHAoDGJii8gKdmK3aA6chmAVH0FH/ZiUE1hBxFmWa6MRIC7u3MRR29PpolqZixxtTv4auTSdUxOwdcNtRulTHKsnN6qgmrVy5gCjygLwtAEBl93vTp8hVXgMG1ofexgBWPA1O27MTRwBVSQVfaBofQ/eoM+DSChE+iBvmvh45vA4C7nRB14BwIvOcwwoc1BpFKDiZO7qRHcftD36IOZenBkl7UPPo9jmjvVlNFticBZ+qysh3K+R6s8Er4O5e0Cog8QcpUWdxE6hWC1jh3A04cRGwkAhuYMZjsMOpogNtAvbvbh0ZzaH+rK44enB/W8DKRQfjQmSNLlJyWfwAg+Pt3uydCixgRc/brWdiA19cB36jhVEPk/QjxMJ707/qNxDuO0+oRGABT+bE32cT/AWxTUh1LlJog+WIJFa3YM36KvkLt1R5GU7a1rwPfuAT2SSW/vAIwAoJ6c1AZhEIjAjWJyd6O6DOnj3QYwT6En6cDA68GJ4S5i1AheTaPL19KrfLwYNU13j/L+MmgEk5KUnX5ALO+uU+qJqieykk52JAJBVVzgHdLbEBtMCSGAHzms2mz5Zqi+H1j0kwwtpes6+45g9DTiNoOrmBpQLW33qvhttF3mQtibf7eOBo6mMOEeiOk2Gjj25UcXAV1ZKvVh1HRBPGeCQ0LvTnwtYrg9f9ssG0EYAFvyJYLVvefPNlLHXQZPog3kED+bWAsLQ2h68QX8eVHutg+RlIRZ8jz4QVZjbrORtg9wdwO6wlZYDAFCfw5z04ajqwdWJ7j5o+/VBDAVXRmjFfbgY43ymibMRm41Us3WY9fLENiwdD1owyRsxx+lGeSiicWCITZIVvJgxU0jwiIzYsiaLFRPPzlAGL3XSfBBDr4MUmkADIZOXHYdsAPXgRjztfhgeg4s8oq3JSTGeOxW2g4bQhLZu3ms3t9VHBD+NCkiGvLOfNGAjhQ+A/poO1lzTixy9YYANH+2QFpjwhm60AiIoSGJ98OY3SG1pdQ/eoF8nIHFNqYJq3YLvmYOV3OwDjwCKAHK1LgCfgJcq9m4Xjk706AP164OYI1WQSGaSmA9AYpJZvKWC1X/OZGETJGE2H6YFC/pk6krobj5TKcmZrgUwWSy7d9WCRLOoUijCqzgh5xxnj8TNI4lVTBRMZ93RrrvAghMwqILYqEjrGuecNoAwofpw54Z5Kr5YLXGSW5uT40austgQo2VaVUMSJDy5ATUDoHFjAAPwaQM6bnwA9PeRjgyAOlUxArDg59aAJ3gbPWjQIwp3pa0PdKre+Af2uRohz0obvm8f3GohN/vAJwBdKkQtkztnCe2CQMDg6kR3H+DXB3FvKwy1hAXpd9gZfQEjdhx9kSyrdxEtbECibH71uxZWlqkzcIEbWO2Tt+4IjTnEqlW1qMUiVgtsodE9nnB4b+NBjEa1wPRAAWQsVQskAEN1AYBJL5W4XKxS4+RIpoQsEqmTs/bIzZEXzbSRczS2oBRUwGZez3y4rVn8uauLZglYrbjxOXwMG52aJrtxQKjRPA0iRgACy0pFE3yspzSrVnC7c2B88+27By2lgHWVZuqVg3ekHnzIjz+rZz59UKmLFJR+R3zn4p8LAGSSZ/UvnqKJ1w/v+h2DR+ysj/XrjMf6VFVVURUzfpMkkkIWpWjpwkATzJAE5xyqGHdvEKnu1GkW735cvusQsgo4JqE4B4IfqaCHd8lMXpwekDhYg61xULBxI2YwhObIpZ4+clKY5qojccZvM1uqenADFdPoZZNEIhsQPn5xOpYH/rhASjbr2MJ7fwou3kQMRjHwE8NYUyW+dbNZR8Wd2cBE6OP0QcpTsG6266pTBq8+6GnTgXpgH/rDz+qZqkcfxNkQJzojkvThv0N4L7O8DW82TXX9xqGvxmyvh/O6OEuqCgIqAOZlhlwAUGEirAHuV0ThwMOqo7ZjhYaFVNeFI2Q6L9l9eRzvPFZbYO0zsnuf1UaJSpZiCJI1GnpZjaZqpBphjtI/eg6yOfKinTZyy2qgUjNcBdbXtJmpg7u5HJgXWlTgs/poMjlXEi980oHKulgKsnrX+756SN7jBMCgElqJr70Mh+gNzGCw0Qu2OjCWmLbvHrSQgvY0HKKTBZ8+4AarHagH+qrvt2XH2gcV2JY4YiT9juDOxTgfM25LAav3FxKvH971q1lfENsVgV55r1UDCtW+eg1EqdPI17jZl2BGYCE96OrDdgCFNEoh231ZbC8k02gGU5qbSPyaAF2QYk1wjsiCYrX30qlC3exg9l7GNEcuWerIXQnKggwrSh2gtRUQO3dzc2Dto2GgaMf4ZEyZ03kWfdzQdycn5NzQz+TRQZuJE4CA2ZrgyxC1A626Mkxb0wX2dt6DFlKQoYoDrAafiTxrf40O1AN5/bcqA1vL9kRJdq4CXBmUPGtctlSwBNTDWOfkhtYuj9fKUoksRQwadKjSMlou6kEhxjGCjmmjZocUaMQ5YB252ykj97QzoYUDAyyWhXUy5a6ertm814BgbKWGxBgi95EpqFq4BdTMWNdW2hw5mj7ywhCgTBzMdD2prTK4uZvMg32I0jLaao/ReaNhPI9+hbXl6UYZOaJhkvIJY+BnQYBqJT6PEFsoK8DNcisRH9ChcpvvQcpT4BHS6YGSBY8+gA5TuxjZcXrA5zxdK+DRBzEOyKNnstAB+POFbFneJt5siqa6foOC3Dp3cpkSVCwn6VTzp/yRI1PqrMZk7K4DBkgOiFQuxsZ4q4nuLKVvWNpGsW04EWoWAtcGW+qjvaB1rQ6pzKRmkrn8ySYBEIylCF3EgYcRraIZ8lzSRp6LlIWc2EzU4tb8CapuboYxjD2PlAaRnZeSxrBOyHjgT8m+oR9MAKjHEdoggRgBIJtwU3zZkX9KVwPQfA5Eaul5fbldEO25B64UZPvGSai7D9jzh1pLno7TA5l3FRD16INYGxSFjel3RHdO/C74i9uSZq0AG5Akm2f9WtbtCi52gyuqQDDoQy/kSHG0KlLUPLuZNOZBkKIi8ti5x6IZd7ruMUyUimlX1U7ZcQVJMC2IdhrBxJTJA5kh1vqq1KcDFKma2iZNZqxhRIv+pu2Y3E0U5BkAp9BbZ1OpWXBzN8mBUQzRGKKg1Y4X+4HouF3PoE/Qhvtm5nRD/0QWO6qd8y4GiBp51gp8GSZ1mFHzJm1w5gAu/rL1WtOee+BIQX7x9ySoRw4cig3E6TA9kMGK8y9Z8OiDWNLIGQkq78M+5jTmhgWZLG0D0K2WrQlTarus4S6PuRSqUXDWXNuoMV2RPAdIBLEykUlNlHQvyOMEfk1JWDygVncKOcMpno0W+2K3dYgx4hhjGmgcgLROJVthZmdtnO82iahBbCk8c+gLXb/xaFPyoGkjL9UENURIYOOta0OqOLnNrGIeHuob1kf5bs8mSkRnKm78lHC5gFwzLGSbA9ZRF2Z1jABEJGiyCvzadpWnU8FsbE16AKqI0Qf1jWuj7bkHzadQ27bcalaPPgDn+iixvQ06Sg9q21aPKrj6IN6Cq2cMZYFDTTpi4EVsgibGuvWyfT1gytAEzFseEzZFUFEwDWuG64zgTx+glqA5WQ4MhHXZkzpfBDY/B2czHAFqBDCAHkIPsBN0ci+6gDIMVu9TTMSuIoFUzUS1rzbDNP9/SZJHuC2zJWNoUd+y0b4GTclrRdrIcwoCYYaZch+DbfhnPgBu7qY5cF6zUWsGqbNq83rocLWFspcbH2CDSANBg+AFn9dgWBgqRgDZYIwKfB3WnJE6pSpQ8VacdXjoWE/rOuK05x40m4Ku3eqG6kTGpw841PtCN6ucDtIDHaCwReuoePZBvEWwrPsFojvnu1oL2rK+0Z/Nxp98HX3qN7CwLS4cmNtcNQ0KqkpQlFlrq7aoThejtTolrhcg0rR7d3RCgb16y0FrOIBhYomrdGibbSphD8F0ZdJLJAx2IeKEVBON1h25dekcCcREoJa1pSoKQLU2ALFF6Y5NyUPqyNmUQME4ie5YfITFzW1NcgDnoi+wTaHv9auaC14WY/SMGx9wxos2bC7wSp1coA3inQwAE8gr8LuZnLv0nJIBsDGbOwdmr6/aqjwNpu24B82m0Ghx3tJ9ijMeOYC5OHnj5vRrTcfowWkXKJxT/PvAb4ru7tn0O+I7h5fithSw+srCpgmz+dXvImDjMrSpwUa5hKiKiiIAaHHy2jbb508PhNaUXYxMpPb9Rg+Pk+aHx7nMnHv3LjA6KcHjIh2yuwDs2GT76ETkcUTH4MBsQOu1tFHlqU4DKBogRJAFRICBvX7yhhKbVidUkpNCcoYyn2KhkA0aM8Jop3pxN8lBudYfWFfvFqXnN0tsqZdHOU2qzvHA79Z5b58jpEoF3Y7rAH5H+qy8OoVCjj1X/gizmxoYTRWoUYdoHwy1um3h6YFs0oN2ncJy5DkKD5zh1wdcW9UP2KF4+hrTEXog25eeVUk8+yDOcsQIlogPFRWNw2ZEbZIoq3/9rGySOJtX3RBDvYLSvdIGRaNLrF4/dYTazXPTG+EASbQVZXCNbIREzntfBQhUu17QCgInNAVVkVTscRAuHLDQg6qkDlxM1INUR9VnIPDdUimt4gc09wZO2Kp2hvBTryAvSRs5uZsIo+A0tDU78M8swF3d3M19Bxzqj9tM6K8d2/itYusEcW7+Wih9EvIc+gWGnffyDX0CbhalQ1AnTgAmAik4fcbtcz05OYNh3IoiKsaa15y6gdxNCqcXtN32oJkUGqDbFO/BQGK4Zx94/XFrW2yTmX4m7b8H2KR6NtQ53fHsg9hbEwRtCfjQiIl4kwGFbQCJslaEjcTZFPXQ42zPz7EVJz4Da9EPOGFjaTbLPsstKIoqCJx2jlXqUBXYNmktCKt9UZy23DAtCyrMOSTJwmgZFHtgcEq4ol7Og25cnaHIw4BUkpl60bPXTj5jx9IztHYSRVE0deSeTJVrUv31z16bmYDzCpQYMNbaqYOAj//G9tJvGNv474pQJtlDuvHNxjBeM1eD01QPQMqhjmIEIMKqNa3+1+fMn8dFZ4AN3BI3YumDt9y0ORtnZ5lte+1B0xS6WH5/b1lmBjz7gMPJJ3yVrdKnm9b23oNl0G3Ks7Hqv+esArD1bVaksRgVt6Vzs6JUs7WBhqHeBUdxu1RVEVWUDeoPPdY2knu2xaefPAxh2/BV9/uKWl0nPb2UIQRGWUsUztV1EwfOoWmDA05gIyytIGSAbrMsQj0NtikOjgAklgIR1Sg3EW7YDBW3PGdsV52tsk93A4ZISB25mgXAfpstyj2L1Mc6GF7cTXNQ1t7A4+5fDv/L39hd/UxrppMqsHF/ceMbyQ39Kw7O6jpuCedumnw3AwLDbHjr7Fg6JoGNGcwGNsHCLSjKhooUNpFmx/TdV6bd9iAAhiESZyvebs6m8O2Dh5321jN7jqV7aKMnteceoJ/OOfJzwumhVT2I+7r3u3sm/Y7YzvkqupeaNGu8+mni9cOvfjUoDOkJ2OURGqAKigFgXzMAWAsYYfY8mbN57vRWMfZ1UTAb3uRcYJADDPYjVBjWns5oigOzG2ySpBSXKoA2CIghTk3If9p16x3VOpOBY4BUlhBhAxiwfJ8ZNKw6YW1gE6nnXXzboDLdrFou6SMPJHraUPFsV55V1cxs6sHdbA6svuac/YmT/3/Gl7OXPkNNnHk1BHjg+1x0BET3MdaxuuFw0UPEwHcyli+6VfGMVImaGdpcTZyFMADsq/6DIcBInfNk7k0Lp5dWY09nCtJb4SzVM0oiujIzw7cP2OuP+5LDbHcoP9svPgNabUDOXZJS8q5mP82WjSOWGa3gjnNQDo/pdyTdOU9Z2Jb1rd5samFLvp4+9TsGiyCq9cHn/1aGolgqCjDn+n9wxlBg89acK31vv3ivW51+Ep8l6zNE/Xk7bRsGobbcy51aqRmlzqx8cZxqMKYS1HU2sTRZFbKF9gi+jpNPohss+xjtq3aQ1OFq/70JQJliFAGA+nDDmMOaEz7ocNtt6+e8c/dZs2fO/aGbdoO7lJF7o21vPf21M7Q5m9cZhIgaGKzm5m5hHqwBJX2VLzH6/sn+z0+a/NPf/b/7D7zHdOMj7TMrqTPD64AQB1FYj7q/A33tYtvDZKDSYcJsVTpnbcw6BgjOBjU2hnFrc2DOD70I/LRbiHPuxXub9DO8dt7TP5e2FPK/saeZn32wNBvXWV9FpWAHdEV64LXHfckPOkrrOXLP2RfeFvz/35tsk/6gr5myPji2h00fffrLM4qfjcWGGJwZ7NkHMeTumax1nHex1Wz3/zs4eLy+LioqiGEBsZiXdvf1v7P/868sU4KoAFiGRXI+DPSsx+Njrx/NGCAiIiCIiESQBcvY05BLu97KQpCQFm4RJXvW6+vHXq/V6LfzjjpyEc3K2SOz0wO0yqCKwZ18Dg7pmcfr62u7LRFPAqJ454CigLS7X/579r//mYXU9UGvx+Oj19drzHfMAyAxfb+fEoOvTHgLkOz5Ssw/9noNzWflAWjcDQvMDDfH0u8I7lyMVYLDm7MulfdRETZJms2nfh1mu43QuQLU84SUWqY6Rk/kRa1RalDEhZGkD5oz67FWm3w6bzx8atRmu9UqVUkPNwJ75jHXtOF34G0xIGgoy1a91cqC2tynoA6ke621lqCoWGJX7xwEIG/XJlLXB8KZdV0zNPlB5AHnfo70lVMeQHL6WteMTT6Ht8Y/W9GQJAcoifQ7rGPOm1Ht49Ldp7F9VLCONjZImk0V9b/v78e5/SqoulIkoshRc8giZsTuK1EfNL3cMPnOcQqQ50VWqmqauCHY3RzSH0icIgRFszKEENTNnagPw+xuMyKUivgWKYpG2vpAMLzaaIIfQB6Q7KpC8pVTHiBtd9sm+Mw44x5LEzkzkQUO1Yo8r3clPXX2Psck1Ww53GyoABaYR1lVUVRVESNjUUHyQlGLDwWQpH3QMEM+FRcCdp9YfYooWcq4QZgg4bfzTu5Q44gguLkT90HHILkCasndnUP6+wAmCYIfTB6EDISv3PIgdkgS7+B7HAEQ3pkscajFh/fax+XNnUv6HRVgA5Jl86nf0LL9vOpq7tfHNepRFBXX1EVyEBQDB6MpEvZBAOTz4gIc3LZ21zRx24A+IN7WbEQ1FdwuLodQVA02D+6tog8gQPDzdB6A75oHGu+zvF0jpd0R2rk46zT/cUnlfWytbEOBgRhqCyw0n+RUIYAKtv0pgsOHoCn3gY+P8z5uI3dFUQ/u7Yg+iP2J3K+l3xHfOV9JnHGZiA/v6lnYNGk2r/oF610Aj8O1LmBRRUXVWP+rmPtDNGJBzf2l1Adi2982gNtdh/Rzq9lsKGz9OXy+xNtwE+cvJHDNSJA1DhVVcawQYoxLd18m4EM9361sSMJsPvW7Bb6KqXkLjuGY9CmY+/M6azn1PnD4OK/kfgfbz5tzeHeeisb4J0Qgaz8lH9s58ZO6vAEJs0qcczLRxOrnrJI4rMw36/NvvQjaHjVQXMmqoLK97MORu25/5KIAiP+pgLe3mSx2qBefiKZsXAa/GoqkjU3sSc3Aks1QeQjUrqCqiCqooohiOBZFLD407T7E4Nx2cMvWw62oqgqKooo7h+2IPvBVUTJHJrlfS7sjsnMh98LLHd7cfVp5H5D7SERsbEjSbIqqg617YLnZ1q4csuK2kUg1TVywGRYDyuJDU+bjWTzPg7kBMWMHzvtzeC7PvMg93/sQFJ5R2h3RnStycSsvCos3r1wS8EEu4vFeFNjYSJxNyR316wrcZB7QHwJNm6Oi3c7QCLBGsVFUFLHMXVRS7cPNeV7MrWrmrqi663De3wcKQYq254cmXvwzAwEoCx2qFLUcD7VrrXjjMv2Ods1nvSZFo2myCSrJsqFK0bbX7wJ40Pp4P76etaaNyaaCCBrxoREDghhIpg9Irw8BREQi8LLVc8fnsDVwI4qKYUTZ+nPYJnGTzdT8duDxbw7HCGCuPP0O65jTSZ/1geQ117h01yXtDp2pFT71q00Egy3CkiwbbGHLxfd+AZYafBrrqm5ipATLaSkVHDMjRK2zmFT6cHOe93KjgKp5uOf1OTybp47UcvFa8PRXgqRgQxY5FFGlNeOFVzRm0FjjMu2O5mQtd8NJUZupZQYbQLJsqmST7VzEot4CS7aTMGXn7WHkCIDFmYpZ2O1mH6gtdt3+yEVRHZnxlq90InqGWeVQGGJyppGLuNkaYzftS9O4lBGvqZPUZm6aThGbNmYa9phWCJrW0x2lTdIYWUJmrOxUNQItltWxaSDNPtyc58XcChon9+2CPsjOzLQFL2HNzIjvjLLO0Toz0s7xWZg5I804fZFuR3PMq4Qi7cmzmJw12EASZtPWJTPtHIf6ZOqE4zZCQ5i9+9lrGWE48y0bnW6p4ntQ+qSPYTlp+aHQhs14wQcvhNk1PHsVSY5Lsc0GVJr3Sit4oVvsPGV1tvaS0+nppqN+o7BS2G4fWOxFLafvfnxzJloXozbAcKKP2dlm5v9OPJpPOnpLsoyWg5mebZZ+eFrO3r2S6RlSUcfm2E2tzEswip2diQ2G5NmkPt0qHWyn4OExlbleSysNrenRu5uTxs33oMb8RdDhQR9Z2Soz9RVI3/2bfsF9t+SJMqqKClnWaoXgqVDOnr57tpMCEmPLAwjIkZkXoNUMii9cSpIYSDyrzmbLvYZWWFnB5qHbcP2Z3XdkumgPT+5tn2hQjTOR9+zdv+kvcXBqMuFFLVsSgj+fhrJ+5MgRqSW3qAIqYfTeb9FqtsBTJiKMTjMSfju+FkLQ4FABWrfZmHQWNas36/XZdhuwrMMAhv18ZKP5vQWKxhnQLOt3P/73enZ2ZiIxRtAwSq2IeZskWbNeb87mtSTryGh4ScZa9VaItXLSUKw+/qZEszolnvBB8VhtFa7rEo67hGZZmYXWvrpSE5UIgJrTmWE6HyE0W632mac8pZDYs4Wsvu/glVeebtUma4mMmZq++9nlyEijkFhCQxkdlxm1vNJsuQaZbWX8gpdqzHcDa1E/uT5dNBqNPIH6SYxVPvUt3/KE3IOoBsyXoY0GPicrgkLRzsNsCMOFv5nZRWNi5Kabpkby2AZVQ3P2yOnRfUfqrSTGDCeMfYvlTM00cqnACRIp2oU2s4qzKUV77Kapm6TVqpdxPWuun3rC5lP9rTKBg2bNtfp/cOqpp9bFQ8eAuWZoUHC+R3IIebs2OXJTpjo8qLyoNSZnJiZqIvE9Bs2azdnperOVwJgh+0X58+89s+VjTIkCedGenBlLgg2FkLWarUxj11qLen9gul5vZqHyUs2hdnK9FjIeWtiwbUR4FPrj7XticiQoOky4U7Tb7cL5tThn0JVlWWZB0YrLlz7lpplaIRUqRXtiYiyrPJuKapa1yjLE98vQXC9bWRmSELvnwl3ZRwsGGGiG+gf2+wGLFO3aRBgmfEdEcsmRyghUVTVoIIEdjG35TCohgTxvtycClV+vadCQZUErterQoEGTWGBl5db6y4H5K6LIV4Ovb8mlYHhQCAhS8UsIIQEBRZHnUrkVVC5FEnBK0ApaVSIeExCwAufnAO2zzLDQJ+icGGWVYfb/dRzv0FLPW8ZlZntIj/ur7//38a6yvf7VGdBFdV1zB1RtFzN+6uq6uhsgUTVyaFbX1bOsHmbgquq6JuAeU50GC1RdVwGLZL0MsmurrmsE2qYegKK6rmfDWqmhoYL1VV3XqkB50rZhwUqq67oeCDYPq7rquuYFuNrQR4TnV9fVKdsGxCGD7lTdtylq3BPVFHDNsIjU6Yg+xMdLafp8zKY/A7p3tqsTMeKV2bt4OJUoUOp0QLdePhZCVgKagM+vbBpqsLhhfQ3NvGRm7xz8RZm5rS7hQgxcee2Hf15u/PvOs9/0mf+M8pFEKSLUBwLXlr0RUs0L5Moi+QBJCBjV0YcJplYAAjNlDaibGpuSEWZTec0CiLOC9Cn9ZETpeoqnzYRES33E2kEjDiUjZBrrP5vEkRMzODe1GjQAInG9Zr6e+NNK6bTR8qCJzAOOWe3Lrz2sbzCV3vihrxtp+2Zpq78sbCHBXh19cLKHhhnjo4HqEsJ29iJbjci+23Ujk4enlKV2kO3Tr6f6DHMjU4ptYY5Cob0xFC1oSthcZ8gUF4pxsdM4SCKzlouWbO50RopJxnUWDjqafs+Gc9RLjPJAFQJDFGxQ6W7RW2ew6OYVdsxyzjS9TNVHu2xXJfi4wHU+X5HpPIfPMynv7AbzVBdY9AE4L4+NeT82queuqTwOmIaDlIOgt/wQIqhD3T//9ei36kHtvp4P1o58MbLjOz8kSVt8yOoy9/VMLX91GP4Z5T07CShuBC4qgBBXGxXjzebSRGG0bUA3zCuJ3w0Xu1VV1k4dME68lcRIPrteCcA1Grx6MN/yvMp8EFiIUuDYEyQgZRXffTmeQKY7S+xEhBEFIJx1bDdHHCOWvGuJkeiagqvbOv8031LawJPIVI5bDc2uvV1I025fZKsumBuayCvnCZlKnfKtTGzpRiY0WWGae1gTHEPsAFZg3Y0zDVjT5kGrQtfH7ihM+aAHdR5bBugwIgxEHSJUesPtotIssQUHKZfOHENOPQwv/rRXf0gkJv/fOYEJ3K+3A8RoQom97zgxi3rHiM3CnYnDtY0vByYSWw8Av59lnhM/NlgYgMRZCCt+bKULYusFkxUIDAqcEe+rXwDiCO7Pmymejox2v3KPnp6fcIVvypUYmnSyk3/P1/EHiT6FkXBHd3TRJ0j9eQCuzTsOkoRz/UqRLAWBzSip5TOCdi4R3cxImG3PdbxZn5S/3gjMGFHbGOOiMucJpixio6r2QVPesaQu/9lTYM4U9axA0nU0AQIqYhZUmNcMAYEgg93cSHaf45AKYraimuh2/XOzrV1AodKOX2Qrb3QZQBNH1W+Tie16Q6bspbPw4h711EYIJ9TLRysHyV6rWmDqkd0UwEdQRgFe98OafAqUY4FCXWf5eKja9WhF7dwXUWIfcwrOURXTBHbKbGX45d7/Z55HTA/AQhmqdQ+cPc6Z2o+61y0OeIijo8RGRMOKQSDtZGILGDpqSoUWcWNbt7bp/cNCfSC2IT11WOloItCseMQySx1U4/Nqiqcjo9rCFkfOnrkasmIHscr2Wf50tN3/dJv6lp/5z3lYY0TO/JsXjZeCYNypWbA1M4OAbKI4AW6C/3l53m3kA2Spm+RtgNjmQXDFMoCpeEnbTciPYi/j7928UqmdvuvpNAVCmlmh1CZA1VjaQzedqYbuoFJzZkQLimJONXhtNxzDFGpvtip82lzNwyp9ryuoieaQ3PCV88Au2Eza84tstTtYYilhrZ6XJ2VK49zIhEF2XK7GlJMWA8Ino65Sr3t689EiyHKNixHuJjvHc1rvl5ZTUJMIzvg+N0nNFo4eSAgU0X3gPlCY2DSwAGqlqvS+6pU/1ffEqYVlfVxPCwNf2fGe5ujc5zSTs3AHim3lFdxx4ACVTGwWZW9n8DKR5TFjA4Qk9uX6wGzL5ftpKO2CwylQ6as0ERJ+3k3xdGRUjTa3xTyVFXzbe/nTEbf932fhK3H5PwcB8jdjEQniLnWMEidw5zsesQ47Huk8dsOxHQFBQdBC5FRO37UpakniNYYBZ3PCDAhEPmFPgRJyelZvOT1AmjNmoS1TqA43A7qbOkutUBCSOMoRGdJ8Mg4ZEBQ4kcv5tNmqS8AV0zSL4gXeOIdGS+3/RbYyoRt5TZTDE0Kib2TiyrmVyYZw2mJwPGWILXFURRsAoaC4jYLmOlpVbFR7A6swVB/yXtOkqi71idc6SQQqNSABJDEBJUecUtTDmrIzsUZ2aa96w/nq0LKxbj+8bkHuSG2+7b1OMy2LSooplVFSDqLUNIjkgRxf5ciDjrG6GQiYm7bUUOJoT3MAmg2F6UGryIZXMFOkpKomhqycZYVdSlIicGObRTBHHpNx39iWLkIgkpFEwuZ0CPEECtulrtzE3qdiXeuVTg/uN+EwKTQm8zozMzsrZbBtKEEAwBnzgKIe+gFlZyfrCdw4TU43TZCWbBZMQZbMaEhHRwnDIH5GqrU8ZORttJVvJRmhIYF09xq4M0L4Zbt+hhv9m428wySMT67/L9z3P/JTfBYDW9tEV5oC7ztBOaHjHqEZ+c7sUTTF9+eBSJEH2jQOVVL2O5hDel48bfGmIhJ/8DO8UhIoeUkSDj4AWFfhfhpq6UrU4pwL7Yqo/Sv7FqqMVuB182wc1TOmSZlfpbj2k70+8lJ5/uP/9wOevvaLz2GgSzOohCJARmaVgQMMAeGEZkBiT2Va4Xu60KKEa0gj6gAcKh2OrRuHL2NjYKiIE9kOueiAiRuFOiQbUtCuAkgLj3saFpzuzqHEBPfA3eyduAuLhzG63QgOp+Kgi82tVTsT6qQypREIIQTD1EqY6PGQPl6Q3Hcgv5zXP9DJ6V/yLTa14dxEFD2UU/bzkzr3uNopWToFyCaeOVUkNuO4uFzyS/vAaQHLpCFZNDs3WrVN1NFig+6llPpaCcecbQVjEzBBTs5UTgccRpmbQ6FFS6C0IMswo9QJM2ZsKq6aBUUfhEfOFpetIKPEmBkcqBC5M7r65Mt287PfzDs0Yjm5+Isf/RdfNfLL8p1IP7R50OjbjjeXgwQEC7f9fhEwl0lLk/RG1m1XspkU7vomVCSCQsPHc/DkDqEpedaNwvlqKOEQLyY/I9gC7vl+dP5JrUyMmHuPWgySiFR4CpLWewZPmpcG88v/2vz5fm/t5+pkEn/sLePPvKaLYTJlxzkcVNkM0dm5iCQRkiV4EZXFTrD7LKATe4opBQiNY+5clHFehA7ayUEpWAaMsII2xQbTCchuOQKGcSyv+2NgwoSQsVCLreuUyV4tGDksrhRJOLBCC6RYWI6K1qSbyHGn7wM54IwZ3WRdYzJobICvrhmvPvwl5/ePs6XvylPIYJVKm40+WVMrj8xxxKQmJBAEMuWKxBbZdsXb7NhCe8qqBAmNGrzXA2rUvePF1gJK2IdwXl5gihWMLbBTSGpJYb2AVNXRdR02oYa1YnCKBg3JgokBuwMcY1idQvyM3C2e/owSjRMtDlYV3RkdNPkb/vPLfLL13If87Hb+3sfak2DjHbiwfl49JnWuzyurHR+P876JZ5PWA2vBdVXmwD2J4K3GQDnJPMV+qy20d5JybqKG/b6ZhnUOg0dAMqWgyBtK64fj3qBAqFbXwi6+JdsPeS6zkphCKW81DCH/s38l9XO8O/gb+JOjZyKO8fDDnRw/QSaTA4EoLKJT1W3vPBp9qoBhIXl1dVIEIW5bgz6lwgJU7psWhxkkF0EwGYMMert72g6IjC9VEnMFrilzCmVvshM25AhqVlQwB9XghJvLPUhKOGkDLmFIYJ+wLKFWqIaAnCZioFE4INsGVy+TeBjidAVBk/ADkSnU3dJPsnX81ZN9nsQZYIWsD//D1mTp9NG3UFVH5ZJYolUkNpMRi6TJKtUN43LT2sYY0ICApe54sZ0U46ylU6oIhBWMLYFMMpA5UJKMSAoIpJNkZ5SAZhhqqFB9rhwU06ULmfgZOVu8TH9GXlDDQ1aunuWRkQ3ef7Fn/ohnfsok/SM/5X/UR5GXN1Wasy0O/jZO79crums0UYzg9ljZjByuUg1v1DG3l8uaMqnEccrgj52ShqY/IFRvhrCdDq60w7vO3S1S0uxp0EmqlBZRjp6S3rAjE6AwjypBZOrKPZmEsELg/81/4WXXZ46Hn+fz3l15lkxU3nr9/Npe3208aNOu1s3igXHSPKJ62iByEUgDylVeATG7gOxpUPAJ4QetQqldLrQ1LVsa27QkcgSemOhQ2yCpqe2m9AgK5yjTd1hC7qJ0SBRcisGG3aR6KDBTnhrEE3dGMhqBrBXw1LhaWl42w4FCJeKpAzUHHDCNbKZaVgDnyyo/1tbxRXkCLWCNjKCAo7bvKceVmVOmO5AUvCaHroBqtorEVpd6lZN1rzT2WmDBBQJXWsVKs1w0lZU6WGyQi6AO1P1YIF/R2ApCEBZ36XRQFko0cU6MQh0kh1gCqwCiYWe0zGazrnpB/IzcLZ7+jM4JWHElIE13RlYb85md/Or/nDwTMzT/gbcOhohj35OGIGnZkz5jV3gX1i3ZgOujADcNKOTOUS2/miHr1vkBHEOaeW3FaegUXqrQWKqJcsMpi/KP51rEz/n9oqVD30cmjGo6ORYjkJqEwU3KnC5vL5xOBSX9s/uvM/63/ZJ/tn7zyVB63tenMOy+cj5LptizPws4k5gYIrWt44swdE1AMSBYHAzo1S9wsLF695IEi/EgY5NkLTioQ3VodMU8UpzKqAo30YWGS0HM2gnBWp1u8Mz1OFqvq3MRjFDFviSCYZpIcuLmYtWLIuoeaFDAxSBnucyArxYEpjCQQbrAewwBYnDKYANO2PY8Ho/ML7K8fyPbeQollhfAXToM7relVh27gCQDh0gW1cQrEhtrhgeOhHFdSxFcRA80BADXCsU6bR0vtpY228PEwXLVFYwtG0oLsEyuAvNGr2ttLpPMucCmmiWxiAOSXjxdhTNIJnT8jJwtPpn+jBpUcgpzIQDcGZ36ai919Kv/yv15A0lj8vn/ZeYIUD28I6exnyaX09XHwXLHroR2tlQVL6lSfWWEiyh0fDmcro8S7SHJQ0Wlc/HjYhbu40ahOQx1f+D3s6W27QA9853XoirWVotF5xDOHZNC+3v2ZERuR58bfyjRnd/FBM9njeuXKa2+JM+ZQ8Y9uttAGKcoosvlo0TdExuAwkF3b9pTQLPUh68HnMn21ewLctW4h7sOUR12RWzai2G2GQGwOaaqwEIcpMphg3mxQ1FKAwTKcJCdiHgEIYchyeigiMpNwiRmgVdxNVtp1BAaoVM0zxmcUkCByR0gGLQ4zIBkNUIFhNy5oXT/OPHlVH6eRb31lsFSMzx8LvhaFmWdswtky4hkjJBAqEhs4rWxprHnAq5JuTT0eJcap0UXxAa9WDpabKpZq5D0pTJPZFnB2CBZSSo6JhrEBEL3otoEMww1qeYixT4AUWECxJskeFyK4mfkbHFJf0avJOhx2Dae41H8EbDmNy+76xlr72ZIk8pMetcVGhhEQRRttexXOqHOS1atKnnH/j6G7pIZ0uZ6GKMbxwDl3KauUJDjUNqBJ5q2np3bRcnUzu9nCYo4TkWkmtmL6uXgqPWEWk8m7cs2L4mkLvdKRC0OVaX7r+d4nex/ky/8r/qPnF+jsvJyngOqjk4SGQYUwbjQbbfEhqlc5omPQFfAgXkv4LQhqi3aw5qWWpVE92qjDXfCOkpzIFggiyPLlR6lu4ud0wSIrNnX8uqpsIFpiQSu7amLysWcYYiUYbGZTduQHdpVZAd0tKgwAKZqiqfR3jFJ4CSFCZZhoSEajJ0X1ypSSqWR+cXn9pMfXmT7HZBr7bC/tjZZda5gNGGICkzF2ya25MSEmoRIOqdbGpXEvGQMMzfBS9bhYkvncBScQlgKsqKxEYPdlKUMVEvMlQRkGjhqiEEsELIimRJpEEcEgKSH8TNytjjpzyirg9U47Zh4hkeNrKn7l+1k17MGSWZJ65b3JPR5hoODIE4gmoI0HqUJNJ0r757F3QzGx7moNn0xE+b+vudms2N+d459wmUXR233V/vqKmjD4Hi2UxGEJERAYApJhkAaN4J2Xw6V6gYw5z4OLJC2dWR54DIy8m/7z3zhP/uf+et1Fp53RIQ6jwoS8ZBhp1gwFMOfAXZCMYygHTrBsAAetCkmhZxNIOgJXEc9s3oxEFVnw7xJTgaQMSAQnS4vnQVX0mdfXRa8TsYWFATh1F0mzZ2rse+uy4WQotDAgrpvkq0h8RRBmmedcLJtnj0IX1NsM5nWEMZHvRZEl0hVaRmO4vGgxKgp24NfO+deT+CrwNItN36Ubc7p2mKNmAIcmkFG0naxRVF4thOBHVCVtgdDQCzVoREGtY4WW+HCXaReqt6fB0NXMLYC0HWTbtHn/a51ftNc8xTF5bQ1hhmAWcWscKRQwJJR9CukgWIRAFjxFt8aMjp3nquhkGHizuhgb4GfFfTz/oY9s9ioUPkue1UQ1ythM/Lws3GoO0XoQRRWlaA1j0OEp5f8pb9k/VIlq74EbHWeizoHZOjUJaK+HX6EgogsD2RwrE7vCFKZlKAI54CQBCUBkVRVausZykA9y7tzJRXzx/8n/zdf8GUHs1vPG3OWuzXCN+rLC9VOrEGxEfCYQE8yXUARrI9d2D12jw6bfZOyNyQ45F7cTAi0jaZ0E21wwYeBNzGJZYME1yKoAOmefeiEgSMsVohySsjMblpoUiYuxWripfkSQlSRUSGmi6TovSp0KADpQkMEDiBDdZgSxrVfdpkwFrPzSiI54PlNEl6ewoVwCVHNW4AtvyBfu+akBjEzFNo2sS3s1eZ0qUnLN7YF8AD3C9sIgjFlmnW82Hg/ZlX3kNwEWsHYEiXu7XbjTm75n2KcQ6S0Ko2zRG+KHZdk9HY6OOhR2SoTsZPWbBAgqm5WE4ifkbPFi60io5vs6aDp0J1RitnBZ06jPAsijRZSGkWd67TwzVIlhJUR9QLdTUVm1X09nFSnbuQQTDyMdrs8lEj5fmPCysxEfqiqunsbm7XQMdWD0fU6hXrJM5SIdLyRxo2jU2hYAaA2DSCnVIa60WxvVj4JWFui/H8m/pX/m/fnE8d1njOPFCoXkqgsDMhWvKY4jk8nG2kXFkOmimAnbJyNTk2f3RCRouO1aFWWOU12rjVhsxES2WzoSES4gNDjsMhMV4CHzzJ3LQKDNN7rIkT0ZZdWp1VAy1VuZ14ODXmt+9Vw9XIXy4HFYCWpCahyo1YlTMcCEh1FAsklGmjnuHVOQBQLF1AfP1/Rsp/CpfAs6+vjesjaZ0tx1UDmzBqMuFaR2HY1VeNdK4XgxrbpOEIbNtF1TYuNtg4XGxVi3DwrHh5WXcHYWAubUObeNzjkGZxoHqDI1pmKLdz32E7sQuslvei4r/YTf7NyBpPm1MqAIMi+Ch+AR84W160iI0wpsFzF8chIfFwjKHjWwP5NP7/vVHLX7n/GMO1GShZ85/YySG2ULRyoHOLdzPxTX/+cPz/X9WWjE+VZJBJfLq2lheDebR0C4f0KqLs2J8PUaFH+vGoH9rMRJo+8ojCbJwViKVHLTNOBNwwNZs3kCVB2/8xu1cz/8HlPE2rETU3AVPMRne0xwnOBRoNWulDswnvORw8CkhqceUFg2w0IOgTREzjDHlYSaDwU2oEITtAWRYiqZCVdG6RhKCGj6ILKXWmChLBc4rFP0jGbYK2bEE/KbRwSBaoZc4gyePomayN1A24AqdM2MhCaRByp4YfcNi1MHLPUuOafXgqemtH0mKHc+fq4fpfJmQE11zUui4CKxIZU0+ztctM2IubGtpmi1WC/aRs7OlhsWG6UUG2T1yvbisaWmcOMGvs+0t0zE4fEwE1AZFsuiV0Bzgkgy5q8g4GaC6mT6fgZOVp868hIQtElmGbbJ6OoZOG5E+qGmxsN4eA2G97eLWs6w2FkfT/wTRahpvfdlIdMmFircD5tfvc3vgtuN94h6n5uRUjvbCEOBk8xTs75iRt2U/fuPuZmjMyZJghIlWLv5Y/INcXzgA97ysOUV6z6qqxCIa0YRPnviV0cE8+UiSs6lKPyB1Zkq+M6sFUrQwLphrIQn6iKSlDHOmWeEoxqhgF3aIZASdR1kwdZRU6O010EePEeDwNOlBHbXb5Q3WTo7GOqh4ywzkazwcPFZnOHvcGlyDaYm5RDlBy2pWRYGCtOQpSt9sl5P1BD9hHKcyp4EyNwm/X2glpWfdAMMpdIpUXSIuGfUVZZJSpAHddJ+4hZR4ttiyl5sEWHjBWNTSgbZ45KsW5pgNP5Kv+H9h1zX9wkIijzsUCkXI+iyKY0T4XY7Gg+AI/sLb51ZNSjvgwPHRPP8GgWUZoBnjf4J7gGvIoIPg54Pwi7vuzn0l3K4EmDiZv84W4OS/3DBz77RcRU1R+v7Li4YMSlYaXsZb/4JnR3nZtI0ZUzl8IsbU1GxMphJs9gVVRwE4uK1ERlt3Ou52CaG1ekQwkKof7LCX8E68/+G8h5pk6mAkAQ64MrstW0rlXoPqCCDqaDOF3HALXrSqNNg4LYSSCEI0EtxgR1kgNT3XUGiEICe/epqxycdbf6vKjQUdlx3yUglgL0azjNO2ZnjeAmmpqtq8ugFAQoH6KCNX3Q6DoZpjoZrGiO+2AxsVuDmFziFTyBhWa77kAASquWEagBAlZ2wNsoNi90HzYVCuigHcQaHfNtxdrqeLFdre/kfL65TSkjnm9iZb7za9n3b3V/tujNgbNSRWwb9XipVzwiwzLN1sVG0LhBivNtzx0OOU8hk/f3cYGtDovam2WZ7de3yCfr/HqlHF+x02z1Qm+Oy+y1By2u/DbLkPe/4xFzdKol9xQQIh6phSp84Cm+NWS0S0aKhns/yyO56lrC829BWB/z29k2//TNIHdXf8CHJ6Rh6sTSV1TWdu9BJAD5QahM+++rfROqLrfdjWiTZaitNHc4MEcOc6bUdtO7RVjHiTW+I84rzbM/u6fjyuqrh9msXqz9AOyvjJCq4xCYJ3Z9GZVYEgWw/Tf4s+F3+BFhlVnpevnAimxVF2NXEyDZhTCVAu3MoDROtoISxaUnimzFGdI2sQozIdoXK1QhOYR6lHAQsH3Iq8/JQ3cY6douPGaaUKapBMQp1i5DhHQv9zqd2ouICQHVbJKeFttAxhbLh1fFPhAg6zxEBMxaq0kCeQK5bfvhvc7n3/1/NP8qaTFVJLZMTMSBCXchTqHIplan1EBOAoHFOXWw2NKPL5PypZy85sNIX9zx1WX0/LpFO671qK++M1e2IrYLDvtrjn5gK2NzS9KNdrCP1/wdTeksHVz0JWfy7HW7t/6fu53gyw18vQvzCdP8aj/7k6a5hJHZnOgC3QfdZ5242OexSw2nVQEnFQhXZqnPgdenwxcZPyNni+fpzwj3IuDaKD4e1+XO6Hx8RwfPRwMezXMci6JdxbOxMH87OlEtYsIOVjf6smxW1XqozaR9vXJw1lLGCNVp1wfeDP03UzwA1aKQIPIl4mdrV0SCPJEVgOWhDc1ERVEPznP0YBfWlXB0nuoZZGTXxxW56WDXfxHz11l/z3kuVOC3VxvLb2y+2VbSFjRpNwgcdaITgjlxDs8dAQgkaBAPaNgDNljtAPEwLAs0hFICZDWUBLbYwGMA6Hg1yNXNhnfQH6EHHU8bvF61uZoIsOcUobDGzcQNqqE8cJfl3gRHAhiG3mjcEBYBR1aknMlh0uO2moBOndpv2SmTwToZajRAreqC2/yrpLUaFYltHeTIonacM2dbCMmEk+RVteIOmqjM0sFigw44HApG1a/y3db7ft8V8+glAbYBHs+7jQfu/c60iq2MTYWxFAmj3Jf2wi84ucwuJ1xgkvFbdOQbWZ5f5nP/2v/DffozQTFFWmjyL511hTj8uQs0aj4fYA5KgNilmqTSScXPyNniWfozWosDr9XN9WnAeYZH6jFTfDbcPpqLzlcS6vVKfQhSLynQzXnZ7n766WLjMv1KrNPLBgLnA+Nyker79bU6Qwizw68WNsuDuqCHQAwUaUVMvKwCsleFxKhugvKm+zxLyucwOMcEdkRjFltzf/h0di7USkD/DfKH5Nlw4wBZ/uCKbNVp8Jp1biM4WF3d6IgUKCpu044bBAN6hwqg6mHM7UEiKjGP6WvDLzudcUiGuwHVLPIEwuSUG9GdQe3p9LqScbIYNhks3NOT6iQMCdk6awCDU/c2JVNuWWYcrTdXRRpJwk4FqxMUnsRJ2NSsr5FpbtVfp5vSqZnyupDwzyjLDhCftAk6bTj4ytw2YA1oGhju2IVAncbEJoAusTx41k2W04NwsYWp/DRLTV/zVzqzmlijmuVqHEsrGqCODxBsmwF6Mt7ybxaZqAodnePw+e4waE+KRYYGYiKsYe0uope0pIsN3GENlWkQ4LY1o2Sx0STQz/+5AZI1pTC4GGaPY9s9r0bPopJoNpbjKhH3h6JT37xt0kMahCQMj2qWvPWVpUSvkyj1hCB5oTEHEGbfUClw6lUDW95GJAgxq+F3fzg9XFi1oszM8AdTgXNjtIjU1sqRnBtNaTy1TA0N1CV2cTHHKMUu43jZvLGs5KKbDAmadmHQBDodgCBbewEWQR/xkAKrUUHDEdDeL3ZxgVEQRpOWctC7m4yqpWpGBZzPYfIlEHU3Ndwa7js6LPVmkACGLACS44uFGF5DmDSlhbATGGZA1LTkm3vDoXBII40+gHp5I3tlP4k1gktNvZDBjFWfLfN0jbJybRNiq9SEEnCmzvWxUz1ALd61UDYLR2w0YCXQAfvhxADcIcQNmGCzH+rqb7vrGQ6dk5XPstL/e6mOMwTMmq5qqCVXy8ySgWEjk04suPMhiEncD53xUru900HGF4n1FIOaGPlxJ/5nSTmWb2Yk6CgdDvH5rUfwbfOkUnj2jcbdt3jSu4HUz3cHlofEjn0juV6Z3g1BOi3tCqp9dMUnECJzvxs5TmgUNQIx4RnfeUxkUckDGz87vyIiZRar6wWKRPWslg/qbtJwt7svBzCXplaoCSeJeZY8W3JhW3dh1tPLdD8ERSMwIl88oaupWSeOqbRvXFO0RBykjlAhg0ks4uxGsTcssODKBQAFg14CHU8oJBjmHoq3RgINLW4P0LQoDjqwCo3dR1T5ABFCK+4xcYjYVcdkQ+mRU8AaUIwi6BXrAUtB14qARdswOVvZQgtRU5jGgWnuxp0P+PG2a06gMLV4YIlZ9ec/XSUtatsQW3WnRVbQ3j6hykKSSApXbKpDe5C4wwgWwIgOFgGtodlljqkzp8Xdj5vi+m32d3Pnw0hBwgiJrQC+J4UeYTPGLyF5oMcxSyRWOJezmqCPh4rYRBzOqnymCP7xCjDV4L5buBFLbRVet60ZVR2zLaX9bNRLc5zznIhrTB1iTmKWu+C1awNVFdx0s9ShnhntwFKaaQCzoy9IabVGmXxn0AlqBp8eujKM0c8S2hX1LrIIIG03qRnQklqqW4Nu1NpktVlaZ+eMkMiByPvBh/vbz18c03Y6NVVYgUe1PveLbIVZiu+iCTZPKiZB+2SmckUk7aRotmF7UhlgVIaRDveZiSDFi5WV04xsuG8+sgsRMmZRSbcmdCt9zLFwCNBkuwsVyrakOBNRiguHwVoBes9CllQrSFDuBbDuT+ILw15TXQbLx/5tT1dJK9g2xHZNJVG8cPLYNVHYocNWZ2yArYa7FR/bTfC5jEnd/gKEZHTANOfeah+OWbK6xUpnCtz8LyVCJYscoA9FpX0Ir2YHsvR0MF81JAhUFqigrwOAyQTqItrzr0Ryv3JVqtyEO5qc8cZrb1szSrprxEad538wbVmSZMnUENVCZweh6YCMm/MzPmdljRzHyUtpHqrvxd9SKw/pXJXC2ybb3Oskq+MMLUvmA6nCPncFXtB+NaaszF5MnAO5yWlYRFXBLnJewgxVrRdWp/4AZr87G6XaTn7x21PrtKEx4YBMOxVKVse1mSoxroIaWDOo7ZWLd8c8hnmo7qGgsUCJlyOL8VhBAKJVmKoAAyFUDt2aBHEXRIgC7yoOkEENxuYEM4Bp+2QF7GqmtiRbojFdoUKiNxYZX1EDYUpEuly01QHMC4chvDOVBWNkwGF5dLEs4F51CW/5AUGdPVMLDJZu9m/bOT3GWGxxmxDbCjI5kyE5B8tKw+adq8QZm51phQKBPlFzaJGIhXuxwgh6yKzLkb//3g/oTrtRtw+4h+bkBvFc524CvGOKS2y1dBwakcCv0teFhFhI8l4uMVuwVC3mAxxUQPT5qoA/On13uBmbhDrxAPh81iMaN2tFAp//2ITho55HJ6IvmaYGou86dkVy4/r7ycOoXdTtLn53y2/PL2Dt4Y6aWPYVs+uHMNSUhz2xBt6bglr6WWjkbHkgjTdzu15RJhJTqRLnKi0fCRIOqCoLXRkyQzCNCnG9kpBVlg14ZdHxtBQxlVK7IpGtYANDnBIRw6vqnJKZbUQwN5YLqgkbcUNALQYYvUZBg4lgrA4N9PHVd1+2EaM4jVhm0ckhXIUm3OSKQTcma9IEEUxUbuA2o4y6mElowqX0xKDw0C6Xu9A18AYWsgcq6rSsYBeRatuxD4rDM3uMq7Ia29Sxl/pt/w/Z/wzr4/aftOqfTkzVORxJVduE2EYk2Fq1LBLIjW3iQCwyV2ymS+jFBsWHFgAISy16sAqcJQz0AWLrCixQHJNm05X6Jj2+w/4ziKRClBITAlpWRBbFc/65sAQTPqPhkIBGhZL40JCYJqgakmclJ5fyBfiXQAPMLqOTUkMpDSlsWzMiXEj3oZ5/Z2uDBiLONEPcuwPZxwOxYy8SKC9J2Vv1ww+1BhDHkhZDubOuhHBfZvLKrqiGjupKGi1TdEGGEe/r9OE4w2sJQjddFHeBlA9l6ijn1Zs1ygw/qHfhXnG83hsP6fVsyqSdMEXl0/KvtBMQNfnKoshWkYr2ZsP99iJb9W0aAX1ZGWUK8jauoQ875kBaiAvgo6sAG+hOuXnkiYyAHY2pnDbZJGBWOiWZB0sqSGy2MDkz4apG26GBpbPQDMhkAvLuqeUXTxs1l+Zv/vRKhfWx/ZQwr1n1V3YHMLfd9N4mxDaQD9Nrdjkm0l3lxklP5ozNtock2gohMZnbdGTKsp7IunGMSInMBhw05aV3cYeD3XylR2VcIgutJ7fMLDCZ0kOMRJWUGW8v8Qe74Ih3PsKUHFrNdWzb57Q6N/vPnCmfbCUkFUtofAWT4xfNxxdNCgCmLIasz2c9apM3ernPsxF26shLHQ4l1KlaBTTyRkiUkazc9kTsZBrWRoE+doQbBPUzpmy8vkbxXXGOkTOFIfZ9ljTr04qhc7uiVqvr1Wq4Oq8qQpA8oORautHVlW8XTCyWryVphNY1UvzH4hfsChy4XtanvglOy06+Miiy1ZHazZzdXYcZnhxcXSKnQxpE3MCO11mUMsSlpWLMzPmwhHVArGVFbkap0CZIewRA6BwWD7oDWwhBQN3VHYtTIFQroESmSj5m3QhkE7mUjpymIptwQQeGNFeH1JO4BCZM7YDBZdW/PzkOmyeZubYRsRGccUk2pQigGdLuDPWILdCNqeIkQ8bmOOcmb3+IKQWNe5JceMSuOF/OiM2OzDBX9h3XiXGXE5bIUUHqUzECLWWqKDdaAhi+NvuBU06p2J3mbid8R9iXPPc21w5x16O8SUVsnKPUcLf/C/iiCgpQpORYdlw3IoDc9mZUkAH4eV8FuISrn86G110Ew9A2HJ+h78mxhywUBqGsZRGhCdrOrm+mnxRUi1Hg0gRqGApvycKwPqa2XlV7aS6rD4m9+UFHGBFc5DC4wmF26u/+SEhRbpcwSiDLC7G7m+uZkKDs5+v11XSt2vz+gFNf7uoO+ZVDka3YbCTdTpjuHYaTU7ZYmAJiJiBp3gd0GqVm37CGjNWLl4ByHeZU1yk6oHGQitjTDBbUYKEQl5FqZuWMgjmNMsFxLAAl4goXGlnWUegI545hGHQLODSIClQ8hXp5Ess8KE3dDkfsU5Gnq6Sls02IrR4HrK5ijuYctQMyh5AUV2xHRRk5NldqyDD6CTME+zo5YCrHNBjgZqNO3ut+T9iqTzMQf8SDZ9hhrXMVXus3UYhnCSKv2QWaEHV8xZjt24MZ/6mvf45LvMyV3/bIBaZU7ed0RJLBfu9zjf2foImVEjinzgzoN28H38rO/LpFv1krv06RuA7qnGUw4SRVWJ/PelSI1VRdfP60yvWS8oHBLu56yYsFq3LnwhdYIQWCtMs+3Ycegmzr+r50vBmotQ8Psx3b49wOiKp6s7t3UwAXslL8HK163+VO4GcDIYdZp7NbbedMjYf/9N24I0yZkEkN/jAWIvXcpFqdghINm1PLxOHbq40VFwbxATB0c/sMZaMPXTUZ9oKHjaaKCE8ko8BVSu++LBDBuEygi/fy0ECI+0mN0ggphzggE+VKoqsWkVTH2vXR62OYwzcOHL3WvhjiZTXB0ySB0DqiVrIANuMJwxyOTL8CHjKalKlOh80BBVS2SCiAmwGk9UD3k5iz4NFlaoWgL9YLZr+o5ekqadnbhNgwNWBFLeuuT8NjETkmyHVksuWIzQQB2DoHGiDQAsPb/M/ZNzA8kv4e5kkcMut+j/0bD5hUpcyeDphy/0n3uGEvm2iqULFMWWcygoVqwQTThOw36V63CtgHvs0+tunLegm2G2Ce5MSiB0wztapJ8OheVbEarc5vVvELPPK1ZP0VfqGnGd63ly42y1UqdczJtjWjJsmEU/W/fi76xRpXi/NQVezToPCF43MsKw2cKZyHrv8pvndwm+d17zZ+vQJfVvO31fTQ8e12o9Am7FeAc/lydj54alyQlBwEZSwr7dlIgbvq6tiqWKbN2H+H3/LIYFeK0yyimiEm1RHFKTRmmv35qd0KarhJ3XjGAMHWgEAAnvHZwWGk4slqlAdBkUcoMkA7rEx6k+psNlbZlXsuqBqBa9GNMbIr91n70BIimhQtDrorAUONcThHrGs1zhZDgEDznNeUYnQAuLNyUt1SQla6WULpqoMgGqM6lHrnKlUJgAyrrjqdIB4j00lk00t16l5v6/f+N5WpPlzPu/+TdJX7iAVgGtgmxIagncP1EtR1EXuHYAhqpJ65YsOgcqOFBMiQbaHhfW+oZnU6Ist9rmKak4Q5Ive6TGYlCpGLakroUAtWPV5qibBMr3K/yzAs8Jd78GMYzuYcKZFZiKSsUeUXfSEFTHSxLhwDUbpbAD6/9SgrRa0++SIR4DMbsVPPdZuG2i/XDyKtVUGMdo6mgLBK6Ec1ZKRwSC1dt3S52L4p6knUOWaN4xQomPrz6NGmgTiTTj33/7RTySKsrPUM0HuSanKMtDdb/7zs6miiAjZ1BCgIMe52yAQlWxNt61NzpU20Zn3uF9kKTaIAJMIdARZPADs3n78KCVa4HlkEY6QrDchMpfaAAGfZxfEd17QhBUAMVKYZw1dg75hawoK7jOFMlNKGBw2LxmVHSZEGi76GkzQdDjAmictWG27QUsg+Yn/0JO6Acyuz3XaQ2uRPTnpLlbRmmxCb+wK3J3euRacEhDJQGAFnbLncXfbyDGNVFXcVLYObS2GUzJJl9oF+f4NloII/gf5z+O/+c/nl/Hya3SH/3V/4NwjOwPQ6D3mCMXk2DQQWg7JvvMIRcc44qRHz5zru2C/ZgOwC/XN+2c/96xWDGm6/TMIrnYbVs0B/fuwR1gAVXp+a5ueiAaobq9vUlq0rvRsR/GKhE4K7WcSOkHCVQXW2bhxLs3nXaQBIyl1aVaK0ViC+Tx++rtRxQQlittTpw0OYtaac3iyKnsdx7J/yXXQ9ci42T02ZhPIiCkvAH5V5bZJS3VjG/3DmP6TTMqDVtF1RKoeIaZBQGhxYC8LQ3gVvOADQhfGK+DjEaa/huxfZ6iUQm9U+LhlsCmPhUiw+gm5qaNx7DFwfaxYra9GAPW2ku3EIZJPhOpCAFY0u7t1e8PCGH+QjADVo8rUqlkLGVvXy6cT2REwgFtOT5j6p6P4k9ruet8tB2/t82iwg0e3VVdLeRsSW7aH0+Ai4sa3DkLYdd2xCvWEbLp9tdwlsYhJECTIfyMqSJTPqx/6Gpsc1gH8DfOG/+8/gl/N9su1f+Umi/4z61/7VQ0AhCmJxYdMiKqKc9hueifd52j/xVh+S/4c/Gw0pwxvGm1PNxggVRfp8ziPvFt9n1ZcpxOTzMDM6z+VQtpumvHboqcIX87P4bHMrDsk8+vsRmCC76PH+6ihGmaid03RgOQayfZrXbwaC94dYbqwLJPYeQ5ngUw2CmyTbyq5FqEWqas88PCB0fjrHH+mNpOwQlaOaSUoIHxKaqRs/4bTskpMgxx9Aka1mEQA5mH2bsd3ENUHAfABFttJajcSrgKha5EQQj1Vsmwyuvon6mO6zs0xg0WscNpuMitmBTTnM6UwunHvRLTcSNOESTmjQbFhELFbchxg7dYIgqbA2uyP6sNjX67XwlgWKQK3w+7+RVawvNTufpfNUzbj25jYhNrlQp9F9P7gAZIHTCBotOGPDcYwHz8vmTFgrGExETEtVI82cTSm9432uAGPi9IvZIbLtz4GAU8o5i6jGLOYFjpyVk8JMFInTYCFBpF3pQqADbfXqz3c9yumMHmfvL73Q8vNw4ipoCIdNFJJApmcHyxz0bWftwKq+qcWBSOsVJhwKhTCTd2eMVFPpHhf/5Kazn8YJcOW9zXgLuOjeAazq1BdS+K731M6mqeVqf+DJu4NqIKrbRd3NoiZ+sUR68alxkTl2vl40D6flToI5dcnvXmSrZlHooApoR+56Qc6JCME3KYpUhVAoQJTjAzeo7jxcEUWFgNsSpgZadHCvLiGCPcJKzr0E8NLeGzTtyTlmTJJCbqIvunal7TlU8DhwsxS5TNsOQ93v6dM5vJs88akGoH0jybCFbvMYLy8FSX4Sx8BiYwLusu1cX1L51JWeqBkXu2ubEBvBLk5wPwHApXsVaZhTWVm4YusCz8vOGk9ZlOpVZihSJVzTGdpq0kCBz6omi3PSIZSCC6OAErJyTmqrNbOIZNPTUdTCAKRPd+2MjRytGsWUOdvYjFz0rmZ/asrXNNvqZ44yfZ2Vs5COzjEg9B//jV1ULtPgGaXbJ0sklQWQ5NJM14bLjiiQTg3ydpOScDBb+W02oaK5nvO5+rxUlURQtlmDQOluViRM2wJK8j4PqsjWeScoYHVnSiSJCjNRf3t+s/7ymE7LtZBqJqV3L7JVl/eriwRjyek6F1hst6qbLNDENujpHDPtxITL4XROAUOCAjBITYKgioadpJo64TSKHc/J8ZADSEQCsJkXoIgZ1UNGC2kotaQHqw67YI5wCWAqMdJsL1s23AQWo0ysg1BgSIYbw5xafZ7EBNSD7baDPrVFxeNv/rVuyCdF3Cizayv4/MG2OsC0ipZnQ2xkAsVUVFyxXWw0EEKqBRVWMimSBqmVGqKwCjHAHIxDkCo6ZqBJCaNI5GaS2ADASw1iCQEJUnehmq5wsy3x6oqc9IbEsO9n25rRQ4ZBTb6mLfk0kYt+5ihWujcytbNVIV2tr6uEhDC4ItyuJDunBK4Xvus2s7U6zfaDTF66m3s3jWNKPqTKmhtZJ+qyr2c/H49zAEY1JfXoVdqZSG+smbYxgBKmhu6E2pXeiBBos1URkTDLdZUqKV8dLYY2zKfFVB45Q46mZzpaoA99xnJEImzBp5sU+5GDRjZy6mFhTKgXQcsW3Y55grTITQ8M1VA4AAcFy3EXGqHvQJNO59HoZBleaN/s8gWtQtTwQ0LagAHNQifnIfYIg9BN8UoLpAGVo6aNQSdwm9QJTYCFK1GvyootN5N0iYycnnC99dzcdhjaIBhqttCqxwDf/6GTzL5sCy/W1pwRvI0asgM7MY+9L6Jgrn1nQ8+rUdamZQoyj3FG9LZHxNEgLIaDoos347lA3K77W62HdoKp9DpU5bx63/igLPl6iWWE1qnV5WA/QrLkgskEnT7gjfppnLlxuFwAHSIFmIEPL6ncB11DcJDUOrGUiRkzxT4H6zTPOCl4fIIjo6Yjo1DmbPsyKopayFZ83ypGWyVeukRyqLl0mveW0kev52X1/fUDWdsF1fZhVR0XZfVirNPwtltTspHrx8fkJQhAGkWLNkV8V7rL0pkfSMkXCkSjY55ov+huwwwciTVUx2HTWPFdK6Ihd945rY70sIBVy8U4xtj5sOJfj6e+0W6h0m2+e5Gtuvg406fAgssJrE7IWmXRYsusVgxjI6geaodirhSwBnevAzYQginhcj2oMLindIZZ2gWZcTWzqKZ0ytukWNZ06zQ2c1gHbkL0SdARm21XN5uCOQcggyZTAHOTmS/FxNvdTIMOgCNrRgh5z5P4WsADtgMalG0hHT8VGAcceZmlkxIFNZgSSv4YczAsJg+lVQEH9z6X+nq//HbbYJ51umzBZVaXGsgGqYspuYN6rcMs1l5zN7oSwFVwZ3+kAwLqSl3WlNJyzlIno3Iidd8XKWpOh6WVl5UsyW5J7g14Umw5uI/lyMa8METYgDZhuCs5bGG9GBOtkAXUyarhITv7srxrAi6JoV74QLosbBlpyNvb3oyg0d7wd6v/60g9BO8jcEgWdZ5Vt/yuQz8qfOguFwogEuUsAi7F2mX00cFvL58cl12ORiCKZKbiX5kL7tHdgfnT1HB/P55t6HhlAN6bCE2Qevvjfe58A55GtBJoc+/i9NoOstLcnKsgbNHifOymEg966h9yDCBWoJSRcgSmQQJTMZkgbm8XiBNTOc0Ax91nJCKpdy+yVZ0FIkpxQOyCwlDdxzns8LgVdXJg0kZV+80liKorPGSQdkZYBHzoEMfNyQCOkQAcHpHcLwhy89AB3PPSyVmA4Rt2m8y1TVQeCERSXk/jAuAKv/8bWSLlY994ouXYi108qyALYCZN3VcCposM+oSB6Gr4ZTHtt9r2VI2yLsiF062SgzZVdqfAakztetA56dML0T0GIGNQU7tHOO07OcjmgAxOFp07lgpCi33aYgZnNqaC3u40tps8Lbr8hk3ZaHLrEuMb24qy++MXc66TFhmEx8h6cXLySDEk0QKUWhnsxnov143REYItI1XsGbVLzbd9GWmLubXuPzVbpeKpOnJD77vRibR7ktbQM9EAt2/nWm8aVvKDEPLsu9xS7ihwQeCwBKEqiea5JZN60HrZGwVqr1pp19dvrgi4W+oldx9tUA2NQzJzcU8ECdsXdJW9Nphqcw55SJn8ikK6vjyAtrLfn5aKBaI0ZIttBYBTy2wlBaYZ0DFJgzkglKWulZyxYZiyhwjbJqeXRWDQRBOKITbWrtcC6YgrRoPsA9IOMUk/pObhLAbB4w7sNCTPjJH2JTcYxGNM2zCr8egUVAoBgxRAE3RjzQFUmiQ8aagR7r0Y4ADi2iEBOoon4kE9iY4GPOj3+riKSOejHzUJmPCwC26zxJYLgCOMkyKpekxc4aHVEWF1kYTfblusgDjsUQqgb8M8ZqxmmBy0K+B11+sLw4noO2OFPqap6szO9Etd3OglIVi/FdplC3EDKE3W3QxF2ZERqFGrLlYlgm88I8pvSovhe0LgdSJXE5kC7nplgD2sXveEdJKC56DlolFZYO5erjOo0M6EUBoZFc6MskzY9mWU66a3zXtDVobgLaNc0HndxXLuAhqj0Hh6P/SN+UMY7rZlJvKsjhVvbzluiJSDDNQHGjwyqHGbht1UyLNzkWPcObU8dRNT7gpBm7FkWGqrpI6J1faDMiRwvUCuhaaDn3G5YsS7atbVb5gp4fbUNxGAgmAdOhYZGnJDsU4WkEQgtFlCH7GRskmwiDqWAkKsQuUAzeOKyRurNhwPu0tgmQMFjXLLD1HChLN9PBQfBxiexEh6hp6uhnqRKECMhFvSHtoST9beTFtEBB02D3HgGeoYQGNzrAJvQq9cExYaJE8zRDfh0gssxk+iBm3jfIewx74DhDof+5jHTKpzzC2WpM1ZhFV9Iz8JtSquzYcQISbrrKCfYZtqFIakqyimMTh9x4A1CLdZvQRsAiBaARp3u7juPPEl+KXlRjJ3qiGmI8eumxCTNVIVW05ih+GZFlCh8NE+nc4xA0vd2YPTbkZiEqd6co4bAFNaIxx2aNxv4h+A2GE7BFoIRlFWtcpEgCCUGqIZadHCkVG2Lczot1j0ubpeSwh4v4sMudl8XtmaUMMjKwn4U8Pu7QEVafohoSgmd1AhqfbtqqeyzXPJRs3kXOTx92HGgxunhTaeZkQo1Lm+e7+eC5kc+iAgQRzHCwBKyszTJE2Zf9MVVgilpCGRNwFKUa7PSVVOrROcvZiHP4giW3noOa3Tq0hASYBq10f3jZVjO9sBlLIHN84eW3RKtSeMlUQZqB+lgERbHMgOEsbbgEkAh40OTEXQAYMCKhwlaEJRNBNCFA0lzW5D12PwmAD01eoZZXV5pHgh1fQbC1STnRxkR2wzAZi3TWg3Ue3BJTOqHv/oGcBJM0TmPs/iQrvUXaLaaMF9MJX7daDS0sF1D4ESPAAA77fbhoXn1ozLqSZyBmUESC0xFghhQbzuBw0UGU/uhoyQuDdBAMjpgYuuitoyCmoUPQdgJ2Gg6Y0uyJ0DDG7ce7jOyjHJzt30va7ewA57qXZ7EiWMYRe26xjNFA1SaRkCgWKYdr83GVw/2C5XRmPNcpuW0XLM5dTu4vmga+SLPh3feaEv+o8aucR8lHxZnT9TDPuBS+ypY8MlL9THSYapYRVVrb6qtei0ezpT9yvMR3/rifXO5lAvYjkTu6pyGyUuoe1A7VynlVmN3MRC7HPulNYircxKCDNI+WbI5xc3V0cZwGDXH6bxllQV7v7jIlSdli9QkUo5H0iRrfahV6HP3R2g39gBZJ4s7xAJp8g2mrYFFFwkKD5EmjLQoUT7bK4GU5Rk7RohVPUw18icca8XKuLylT2xe7icJpeP5tHBqo5JTkQjPQBaJVfwAmkzxzkaV7j5WJVgwRRXcLNRW+Ckpmygq5DK2wZjhjYsIMPxR8rOU44/5ZTOmMx+2++57G95ounE0jQu7UyY4Ma3YpVo0SrZR1UhV0DHz6ujLMertssp1WTEqIVLcjBELynkbEPxVO71a67qGWX5/o0xVP0dbxmaq4rC4OLdkrIMCMdKgXf3rDru4tuDjhf9XbUiEQ6Hy4pUI1vj9fRjhaXO1ZTT2jV04+RymqepgMtueNHBNNIsTN/3FDtlDgoNgTofQJGtCAaXC8hBUJWItcExSHXlgqA0GLCoyJCZfW9ipMty1E1hjFSfOpVIYCcqIhyiIUbZQowQLK0twQPYnO0gpIqdzLzcmzri7llBZj0W1HwSHWb7PW6da8AtXs9cvlqtJhH8ttqbai5qYxOFxNkRqJ3CywNJJZSJcLk4p55SQphD15/H/hCIeXRncRf9cZjA0RET1BFBlTWeTY7IvqyF6u5y8f4wspeZdXdnSfZNVHU+CX73qSl95KiAyj4JSeTsWJPw1IsopeOqKNr1kqq0ujx9Qhq7+ABbHBDqIDFH6TiRYCgnJ0dcLCJiCIq+EeoU1PCQHUwRG2gXtnuydCixgZdqlVAE0m2g7+lDDJUaiuNW0Ku52ISrrNzwfIRVxBbBnkorOPUejRn2QhqoHjJQsypcV5tUALuRvWYRKNEOCxQAdIC100a80nNHjPqwBL5lMH9Bp6w25pnHyUuTRMkE73z7DpQ9N4o85mPipVq54NB/wnrf8GeidkEYyhTLgKnzmYg/HUqYoZavr3RS0jrZ7ImEwPuOIfsrkXYuv/509utRg2h9neh9thXihhW5nY3ygLyioi4P0zn7rYNrV1ZRKAcF+wMphAk9Je0mOOdO/RFloTKqk3cvslXz6pM49luKbOWeYFHvXmSrTnDaVWDFNU2HutFHBFydcquLrJwgj6TaABF3IAy0U0JQhYEvIn3k1kGalRgNTwQVLD4gU0ZuiCu+giRLJHMqgHTcQNqb3rbcpHvmSdxq+33ReQ7Q/rnzj9+7yCWejlpqW1UfxWo9eCFyJRCorRdDr9Nt7DfFH1CAm/WSu8ljP3s49qrarj4uVILYdU15EBzXln61JPYlTkOm4aMgCHU8jp7CcDnTw3GpyM8pi31Oq7aZtP3+59MGR1TKuTrlCyUazuLILp46ofQ0uRjaABoHhtgkWcFGCiwCyEWwmPGBwATTjE/ICwBb0xh6HaTQBBpCE9qiY3SuRgvt2O4JlFkrUSMSxdyb5FFYapQLNUzKCYSbj9ivENvw4HpNZDCqGYoQjSAEQQ6HaIzDM4HQiVWGMBGEGk7hVDeOr2StHVa3mdJbXjAWYL1sZzfSsRi+eOOOpncHao9df1HYoSZ4xDEWUqK0hyQRv4ZjLnBerHKeORyCiEgZs/Ozwe2i8tuG4Em1H9XBEF3v7PPKdNqICAVC43fj+OM9wa8FyptdkFTu30uii5903QaQ76CsFrYM1VNDH4Rcqk1INIsqhSLccYO6VIhcaK5ihWUTzllCd+oEkQEwqILYqEjLtKqGJEjgnlI18hCiKrdrXyTe774QMAACp4wwhpoEgZdeaRCeZnCR7mu5nZBr3R2Wu1EdBzvQxXRPzimH4FhY1AFdEe4K5YQWRxyafXC52CJPpSL3k9go28vtUOQwPnyhUzeCJjv7tHX7N6txw0ifKcvrl+p0VaVroXaOeclvVvUqGFydO98unpsAlrAqzvgGHQACT+1AyIOIrSlGqtqDY29Gx4VAqu+JOKTOOxqda5ewTkK54Yuetfpe+KI/qEfYfroVskr8aRnvmZfq3fOBFdlKZG2YGXSdCUgAhuoCAJNeKnG5hIzrcsCkgfJU0nfWtC4SlE6gtZIXAAy1NZklLGAy4QuvPjDjSOYGlJH3HeCgYFwbDFxO3J4FdEqOeV0CznjbVGK2F8ts5TTVpkmyIbj5IcBksUgYbxsMLOtlDQvbMMYTdMm0Z1rRXeMmcea70u2Jjg8m4iHOIUYuyWrHROwuU+f69tEx0Ub+yq9oZBfA4Di9OwcRcTn4yK7INbHCkmxG1qKDb3wsQ25QW54fPjZhKVvFw+zUmwTY/v++djuH76/3xw9VRTQco+PmtKwjqh2rPrAiWw2LH/Zr1wvQSavevdpYzkEDGcaPFNcR+KpCBqH98N7MY+zlLvdUimicWRRSOZWdZhq54EGFIlxnUsfMtWiisRGz6E7tbjBQB/4QEclmq+oSlOYVm1SijO4gUV7q6XR3tOutu2Os2xUfG77QiQ8SlhYhD0V4qiqavsuq9HYblarcs3NiRqRFSQZVnbrSUixAsnfPjuLsWC+1UH9YX78xBZXvPkEpWfwkq0pcVGup/3UfSIzID2Ua9kOh61Tfp70/uMCj2sN6JfCyXl9XurnniT/sHdZ9U5/6fJFxArj66IMrshUIEMf3tWDJ+92rjUU7jFU9KD40L8uCqMJaNgKPF1VFZXXx2hkfByCWa+aN7YCucBAOzEsJe3rcBR1CaTNIgs5MRkoQdtm4Q3I6c0p+gZUGUCajIu5DZRLkJtZZbxksMPhypo5CMYzx5QUl5368daG6boNdtdrVAq98xkN6s16mLnqZKRy4BDHhjSOyenkgzUYVNFg7J7s81Iditlq/Mfs51oBsKuw4z1CSgJpCUvBd6lyPcnARLXurBxH120mnsZdB3SRX1Z6EYt3tnH9ynJb/THyiTfjBsi/BjMBCetDVh+0ACmmUwhAc7bgGwQD9gVQbax2KE5UFnWaxTVKMqJOhKjM0zNN9NlanfF6EaJVnxkJsB1s5qwtsgiILjXKAFE3YoUmUAnCGB7YvrUcOWBNy1ctSvKhQB4jXUi1ZxgCGaD2JGdv9f7VKuG74Yhm879hfvXlIHSvhBp33eWhtMUxhw3nmHIxuCHFCfzsiHVd/ZJyPnbfhbvF5KBgLUe6m7dRxaLXMivZuXqdgBx1R/CIphaYlFQF8yTLA03RvprG/W17NL/T9+oP43K508m46H3Ho9cNRT63UHVkzTfCDK7LVIOWGLLJc8LtXGysYyAwg0wLrXJTEWbhp8R3QXWLhCDejU8nxuhgCe+1KjHKMBqjTbTBni/BG0aghgL53l7LVbRHurpjg1YcJ3WCMqxlEDrXcIbeRG92RvBT2zpPoGdvvk0YuwxqvuYG7GJi0//XF5sdOxPRsKqzQErU0Gqf/fKHahsp+3ArB9mLqKyEhIEZLnSSvLGXyD2fHQXH5klSxuIJUhXEP+v1nLwn+9QVxqooylSqLDi40iW5Zhah0Pcwr3kywCCKx2vTktHqzXq9NkJu3lI08MN2OkzvbqjTOwpKZzqZS8fdEdXQvqU3XAQMkB0QqF2NjvNVEd5bSCQDbKLYNS+K+ZgXc22qCx6oUpoGtSInJhKKhLBVmRhGe4AUbRyBQzKwwNknMSMquhVqGErszMwu5aI4uXLhVoSAw4MlJap2aYVDL5GScBSyGUMX1EQBqBn122KRQaG54h5aZpJpHRMVwciO64KACYZ0n0bBtS1y84AbNYYwFvQq96v46Veu7A7s2dZFLINY4scZNPdPuR7+FtchLnst30SKC0PL3lud1EIodIcWp/lpJddF7+/wHVZePB8/+C5UXTMgxvXntSjvveozUmHatBB9eW6d4gUeohBDSlew25z85QT64SLnhPoRtRkC3f+h4iiEO45Jpemg7a6Hnc63IVhrLu5EULlaJIks2UxUBSy5cm/4JPWEiFc6QlDVqSEFKC2wizsbGbB7ESGHJqBpzYZ1cCBwxAXA2Y2FSVy4kYTbgkTUiitQ5MzNYlKOHzB0djStImU3AKWmYBonOR7CBQdq9xp41qfXGLpd1UH76NUXW8xVfwKA1jKHmd778dO67SWOcUM/YE3NJV9cJdZp5upPvk/Y99jOz6hOqa6vYW/BFKx7vI/lax1xzRO9dCqKi4D9Ev/APD/r54kGjf5AP+gRnvvZQNuCYA0phsSWOxuCohWUk9MqdEJNJ111aQzahgDQqa9kbehZXiOomvmtKE4OCbS9m0+9vq4BKAUvJNL20PjS7WJ9rRbbqGNn3wUAiya6WDe6RJVrgREkZVivYYLkWEqtFy2KqmcgoBVKIFRAOnZ1Zm2gidSS4CbMJ1zpJk3lIzNmEsjB7rcyOADIQJWaoiRonEDgRshFmEQO6BoetzlLEaEfShFcxOXHqlKULzuOE6HoSuyA3tcRgahhD9fzwV1KwvbwIpEqACesfjstnKEvORlq6/oI1L9CgAuhd9MBPT/cuBs8zPjhRxQJk1x3Wd3Dx8QYS6XVFlx957n3dzXavoU0F13ybGwtBXP7e1Cqbu8B93NthHn+DMADv9pLzrVdba6ynJMb07uvJ2TX68z6zJz51n0iR7FsO9ir7b7RT3jUb560PbwMxul5h4P3+yiTVcogBxw/pcjkuQiQmrc06RRApQ6monis1i5ufa0W2Ut5zGuL9u30x/219n/0b4I//gi95LPAlYc/wTvhFjnWvdnful0DOMDLmpBB1YxJmNzPAFMTirKw1ErDDagme+Cmv9WkvVwq4egGTZzvDTff1I35JPvanmujJOC/3T/qQuDAmk4pfpRSoCtckQS2klHJNz7nQl/q/3S1ZSxGCO6tXQjN50dpNMXFhiYAOG6imir5bizkRzXSfHLt3n9KTOG09oInhjZ3pK+rbYxe643U++KG2DqaknlnjO6muE/cEGD7Oyeohi+D1x9NdcxH3LKn8po5+3uu9i+GWeqOd0g7Z4uP/3brWsG4/2uqq29MdbyNnGZnBWNzLSfVVq652b3e3mQvpNutJjt0T/5v3O/Zaw9mtnny5lzvXX/LEHUmh4Rhlry+xGBDzBjvltwFY666vLaKvL74YVPMKy43nGhtWOdzcMByrqMS7GB4DQHuvJXXFjePFxAoXdb3Pvy3TnNNZSj8+cM7qotdApHnT5qITCuzVWw5awwEME0tcpUPbbFOA3Rmof4NY/6qZ6R8ZfmroQrMeFvKgiMcyvqQvATatOKyJsHDJxilaBM0HGKqJmI1cnWAQNitAUiopWKniDxgXYVSDVUoFTKJBN60xgud+3R7L6GU6XOTqD3iL11+ZG4+7iJDhLGqJnSKLsDKgknNQlYGyW5T4CUkhVkeIlK2EzQeA6sRhHxEyQdDMjDRzTyxOtGggdM60x34SK8p6tyB3wsY2fCEzAIKsq3p9JR/10HcUmrP/+KfolKSuZi3A2a/hq2rRzU9KcXTK5J64yeic5TbOPt/Dnesd04Wn6904tOHEINMd33Vt+FhsaNu9yi1e1gXvTfCwUYbd3GSTLNPs5Ij7NmuXIwIIP8vw+N7uXr7eTuWpe2aQd2DPYvhsI2NBmsJrCeSvtVG77bMvzz46fPnlJrg5xSmi36pYiKDB+SWv/rKVoikf6qujLQBthslhyhcQxMqWin9ovDrL7PpcK7IV7lAddPNnWf7HfcfX2C/s1ulrbhaUAW6EMuBsp3ei5gaYiiVhTu4mVGOUmpMXiQzZjDNbKM3IytUfEkYCE1EGT3b7kuMJAuDqX/gU17nsJK+8NbdaZ4WZJKFqygKmzIiulFbT6iqDiXLNiTkwzyHuK4GR5gWimazOPcvb8kCzanbfrwHVSpec9jniME9ipaB3WV8j02cMX8idULps1i0FdhtulcsqrVOw5XG4O6L4S56NrINqLEFb6/8GEzs4sctCsta3vosbd2+yX3qq7tkwFYgfnH1I7Mj7nafXTZ5L69LukSux5ctskPYGt7PUhMAJ/cqrrtVfeql1++eeHvf//A9ty/0gIQHO1lXdZxoa71v2b/f80yP//M2IIkpY8nGBiPv0U19utXabBsos4fbi4l2E2WLUr6jmhFKl4oDUJwNhPheLbEWy10m8tMF/G36bLFYqmxmLGHORyaqJjM2oGpUyE0QgypKDiAKJs3UygjBnZjdLREIcWGBgyiS+kPGmox4R8GoPB4CkGq+JWiSIBQjI2Ysad3JuxAIDKGVqgs6IM+91nQSAeJS65mDMCUwhIngWHeEsCmdzHDhDoZ9Eb2BFTPUH8uELXY6Q3ac4xmelHQU6fEsfaDs108TEQdlDRZI9ZvaLqa+uq4dV2G8273lpcAeXHs7/hH/n66naIU/w+2QfdIaTi8dt9iJuTPLVVjD5GS42ROcZQ4SXO0vihsErLzXglo6/P+/4IMpP/b6EOm/HV5Q3T8e3ePxjpVIBQIELnn5VPeBlDRI62dNf/u3A0/CkZuyi2t0BOJI2MWB95dItRemzIRU/94psJfR+P4a5OXsWkLQAsaALVKSHxSY1v/jJIZbCoQihNkK0N1LB6kMFuxuMDeT9EanSyWRdTYe2WEtxJsd4j99yVXMmIf+lNmg4h2aCWwa/zxpUH8pPkvCpVMSNaAnuPm254pP21llAG2yNPXrDhpNdzuCAJwNB/N8c2eCkYyWGNR4cXnBOnWgA1Wkbl/Up+FBelabFQSL0AZMGYgEyw3RkYwGCK3f32/bFwMPL6mFmGOPLbeeiPoI0Dz5Mt32uposLeE0q/fPRtD4m8jYQKxUuq3Xu2Jw4cFKZv61zzz++Q7aA46QZZHTRfivN2816m2y6hpCvsRo+Rydwef7X3lwCtFcpfIK/W+uoAB0AM2h4roIyrHQYbqkBs0SiBRcBN+eO6S5dr+tErrm0wXGujh8sWSZVRiLG8TqV/EEVERaZz7UiW41yHUyFHXn/MwGIMoPBQySe4WLPlmkPS7zWrz1rkVzL9as/7M1+nmU2T3q1v8Nr/zY9DIrQxfKpr86FnjtABYsI9+rgpuNrNouJcj+VJ7jVS0zT0xSY6vR1N+bOvUqwQINkn/VCt8/xFniPT3Szp32qkyKJMSKFgpFcWXLSXiaLCRcQEoftMjzFtY6q8xkxxeXOa7zlBjUsA5gGyTzbhW6f8y1wx+/6AscZIutZSgKUKWd1upWgK2kcrhwC0UDhl0RgNdvk6JBissQuWVpVjYA2wre8UIzVymweuttwxrPtDySUuxvr7rr6r/wB7asddyQicVx/+BoDM0bG4xKXiFRDOTxnt3hqD/OzXGNEr3LM808OOCgLCptBGT7BClPylqVmRcuSSiPLTFL9PgLUdoch3iEbo2A8IvJBcchEmf9F159M3yxdOH67T4ndIshboZahLjMCX0SFZfbklUm4ZxhIhFS+nLavjCXTZBikGvHnVpGt0kDXhg9C4t+GZVgAIxbGhlVf9v++0TKf/P11xW+zruDhQW50sGfPokY9TPppPsFdLjfp7p3cZMwFlNxX5aX3zbqir7bVfZP5o7cp8UQ36WbxjG/naLfu38UND3VdgVfdmgcl/SbXbnKVRzzDxXmhV3OvZUboqpc43G/qFbY7OuFCkq3y7jTD855uV9uPrTVmLU4tSpLlWFzZFLAtirybZQRKV3zYJ7vObl0+9+68m/Wa7pDlere7T4Jn352uhCi3qPCiR/vLvtSoo+M2oN5wfI2q9xX/mZFVk/v3BlgOZiIzZVDMioiquQgra0r5dKRxtu7oAA2DI3QIDzgm7QWUz9PzZRwbEu0cxtCSfEuUlRnfPRqwbj49HWe12VKRFm8LZP3wV/bd1A79k0mCzS5fefBx4z24zkgG+5W8wIoI8Z2fW0DfBaBNMTJquXZ9FgUeKjXpVUJgPcMk5n01CqMaccy93rq+5kD2jP3TQWIFQ/MeOYJ9GNATl1ow9oO6HqIgEWXY9GxEg/PrGkpHZy+7N53g1OdGka3OcPY6s0N2ofE1DVyrquAcGV5mJHfol+2QiM+7c01xedX7hQbtbnWn6T7zW7nJWO7Sm98vXv+O6ws+yQdrsods1Fv3Vf6ZBya94XhULzLLc53u076Tg2MmOyzoOxnLMQ4uMc1z7YmC/6dv5eneXhN8pGXA3Vb6VO9m8zJ/X1eog5cCC4CSzK0L6knBS3Hqbfmk12bVjcbj/AWf9Hrvtsabjil+cMSbrfPZ9+TGh/oyw7n1gKJPe5l5tM/w1prKAb7vcp7+3TWL9RkuVaIwukAlkrungv4wK8guxO5Ot7rLbOqU2gp5OAbVUIeDoZw0eUlM/CTa1vsEUd/bDTCDmXX0wcxtR25W8bGOr4nRhp5OB4QqIrhuEFdf1CYk8Zcno+puBiKyWhq32VDCNIeyuWiQm6kLKBTmyiqDuBDM4LWHlrBPOQjJnzx9HHNuiU7zQvMSJbQstv/CGiKMB3ECCrat1VpdhvG01S+6tnB2F9fuEEZgz3+Ngfwm2r8G1D7T0OTV1mogzrbI+Hm0GOL0fgXsVwytqV7qFZSqNzNIWdZO7OI6ZRuVjGYa6URvLHbb0Ckv1eKpGrTKoQwPBsA2T+BUecYBqz/ee9Kcu2oapiGdrjiZJ3i4Q5+inP68vVNsWiWltBRLV+Q9VmV0GKK8btPLP+3rbsythyCo6sWm+kwXe93P13Sn8fHvsm2OZ39DZqNf8z49nmcBCz6q4rnSvNI2j/bBzmmK09fYJKQUDsHFjJdjWbvFE9xkOfQM9NO6luyOWf6VlxvO/8u43h0Wkfm0LinjD9y9k+vc4ypf5NfccYmtirzYS5nM4Yp4DMvrrc/WRXbIULhhMZiWAWwQLJbtqTfHzdk4Byajw+biuR5HHAReBYM4SXaYhJusajyJGrDXdj+A93gNCVlie1SG8VmmVJwu0E1z6H5b83PJbyTsyjDA4/AII5JZbEvLAGubI1hkYomxS36k6TxdVJaadmRNH60LRT+PQ4Osn3RUh22kCYQS/eZZtosuA/Q8zdB5jFV5g8YVn9F5WpBb55XcrBiEFwwLCOYzNLxyEo0pabbSdg5BkLTKatqRgLaJW/ccuTENJMEGoXjt0u3Cl5bS0A/ZC0gzhqJtWJUpSRRr06nkj89arTO+spuwFOXjtZULSsBgmIFMirq2DFDATDdJyTWvatVNrulsGxWbhXgagdSZgagn5JW8Hq8bVIKYWTzbakCN+JzfH6iVTpG7F/TpC4ZvqRjETIap4FI68kLiXFY2SHi5hgZD8w5JEPHEx3ixi579/S+fpOBToMUMGRau3p/f0om3D4L6ITX3wJr7/JP9V9uqFaqOHSF+rAeUdpCQD+rUuVZUs5GgQOMf8SH0YimnIXKAAx9VyfKsEAdmQ7l5hwRGuzyFAg+6ARHUuQx5ADNOT9cBvGDVxqN4d5YKyzCN2I3LM0bH/ZJmwmumudLb0IL9hHiDFfFc5G3zdLe45zKmuqSYwaNEXuO33mBP9u4QbAxTdDXctGIPC466XR7cY3UyubH/tfMpkJmsbqVmoJ/GhWd7xknv72ecxvl3Xe0LZ3Lm1ABsk2ePTuYxGjLD77UiNzjd9QXG+D1HrosIv3bOStnvs8yluNsXKKgBC5KJuYgM2k0ZvADSvIjBoiK6vHF1mV2bB0g6BY9LBG6m0N2ZJ+C6oYAWXO0zhOfp7POYgydYorpyWHf/G13sAx8x31DM2uBDi2wPmOlDHjmPp2NoirNMtRY1/aJ73mSmRBtoAqGsruPMv89OPaBEnSdyOJYGaHd2QXIMAq1MaCBokR16LeFZ5F0vaZ7wuAAmF1pqx5NGaHjmWSdRjhm0kjIL8WO58ml40haBIypyKNdr5GnIkTrlOJKHhVeNOSVh1DAUUKacsIbaFUGfaW5ChAxDgKLCCKz+7D3qT4tZJukHBB1fEhtPwfJVytAXvCgZNKWsu4jPlWgu2uSQzNezc1APQNjfrxTAtQWyJpgRYmwt+7NGkMQ1Kxb6zhELfn+/RZpmARVFIWkMmhq5fkUNO6XjJ+tIrFfxZBh0VimriEFS9SYgPYdmE4KbLA156G8je68HhdDuhmyYnElBOCYcJZkc75vxszqhZJdJ3xXfHHVErLHaRy00xaG5Swfowij+VGwsIT3nj8dn5OisshB4xEyH2cSCHPc+RUM3KKa5ZInliEYXE179fh/agDNOQhfkFSb6UmPetTdmPFDiA25W9ddfn+8GvH/HDIfC+FHm0ZnJ4tlIw7sc5xUkYENmLj7VEcE82fsJbgniKLWH7bAWN19njmzE/C1hAwH/t774L6smRvL5pjldR3QuIMtRUVek6B4BdbjtVh1QaoFEKiLltQSpuhF270yIwemX7pPOCDUpPomFDRiQ7XYD1snZaZIOmeP+V1mo2FHWkk9Ew4pBIH1D1JUgMFZY9IWy+z3h6By0okMsjSuyxyU/W0fRBGeZtEVNYanpAc84fB5a4SHE0Dxz7GLJYz4BeHnm5rF6B1x64VUNNvZYTGh48tWUuWt9NC157fypxIQSEKV54kiH4GP2GIFtAexwwYRbLTglsMmvzStKALp+IC0jGEoE4OqUljQmPdSGDdzJgIQLKS9CU5qYUjQlEWm9g/RGP/Ua39/ALfYfWSdr3ct43+EECERyrm0W4k+Nfz5n9ReTgDYL79xzLvr4j7Fba8CJJYU9SwFca0RnYDphfRhwqYxgy7VAr8We+av6LtqoqILk7m0Izj04WDtvPymCTF17SK9yza75qFEBscqAUJQrEy1xOfYkxf0yFYFATGthSq3l1fVvy5bPVtfm6XPN6JQRS6eJxBWzMgjQImmYYL00Vd2trPTZ0B35MBcrqoi2FyQzsLwIZ591/1PAlonZMn8DAgF27KfyBF5EsJgkhOyDFD9Xb1M+7UN+xA/J9hH37M59u/SBCk9+hYvOsgRndDxH+3rP5Xn21z132ktOluB9NGYzBBAHY/+szAxKYLHqcixaiwbNZAB66/1W5tImBTjRTFoM0u0D/HG/E7sRi9Bcih+KM2BrAlu1E4ixSg7MAJaygLDjdmNHVD+w0aZbhBFu2uEUbJfehgNA0//1cRX5ZXe/xhETrDzW3a8mi2XH5fgJzVbsEC73echDbnFsh9WUt6jJTH7TsXkXmdoKvs32W2T6P+s3NqK8B4iUK4EpNFROaUEBZmGSRvk4RzFil2M2Eqwsl156RKU7CY+gUdLoGyqnWMFEUlZI6z9cqT7dLonmKAjeQesuLRd8tZ/c9eNTQztxORllp+HU8PaTsv9q2A+hsxLarKD2FYbnpCTXQaCxq0fYZBc+6jfW/V+8MjXlbcdCymN5fbQdqup0kr3xb/78fM3VvqaulMHzQUVR/UFdrVMVYJqaB1S8A6reLZ58vzrDNvvBNKTZs0u+vjMqztF5esWpLt9lmoKwtTUVRTgYi0vWGatAu7pazYO9Odw1Fz1BV9LKT3yJtA/UZ/KMi0KdikprvrMURAzA77ck9Srx+Et+/Zxz5Z3Td53scxgmp71SKox+m0ofVS0jORyjGATq9n0+WrabipGAwryyGeHqovmxDufCGeOlt8bnrKUWzKNbQrSPTcZUJYaK2DIsZMY6xW1X5E1GXU4YLTOck8hNDnGW8txwfD2gw3kUZfAf8X1m2FSng2V+wnfJKSPaOk3hLiJilBzfm3AyjsrqcgzrTNZhTcjdCL5uE4zzgnE+LjSLEBShjl/h72J1VKOwRX2s3HOY+AhRg1GoQrgG5njAUZGMqmLEjgnr1PGrlMP1tE0CNMzfMw2P02oLEPc645ETrETW3b96/Mu+8TPe8c+T3mWRqC8/yBdUHd1f6m52eE1TtPM3/Yn3+iXrrkqNUyb45/Y3ReUOZvelnl5831AYOEvVcaBYHNJxIdBk3B9vq0StFzqSdXZraXLKOFYqhqP1X/Aw0oK3o8M8IWRyro6ZtLZYKa5vx60lfskSkYoWNxxR4gJrUBZH6JSYdy8dF3BeS+JcWFzxrXYwHzNh79Ed75f6LpMVFebjUEw3UNm/+liHm+8usDbwc6JPXRke16B9MR1jH1KVTbVdvIb3reNa0HvRue51RZY3fuyjCOohqbZT7VxvcvEgrw9eYrbzQtM9r7PKt37ETzs7Z+In60qajWCbEyd8M8c/1nrrZxkZBQ4CYDAtvjZ0QV1QjzgJ8pJqzc1NR98nOq7Xlb8fJ1IE0qja+onT7Hb/OJ4Au0G3B9T93lcjUXWHZqRRSWhrKFLjgA+IThXlV8E2SKVZs/75+GxR5SLTIIgrFXiUr5JD1q+V9Id+vc0cEUIJ5oMUtix6aNiJLjYQ+UFedkfuOKhKXeK/9QgmTHbTw/K7HONTkaP+KV9Lzy8+m17YANqVPMUHC27IZoiaXmZ/+ZnfTlIzxvVv9/p3uPK3mc946Sc83eVe54tMdqnilEY26Ktz41FJCDmKcy+Az111Tbfhe19tFlN1rOXeNbofFMZH2yBcy5LB2iD2uhajxukncRWM91hU2Sz8+o4hvAjY/SpHzLMyWXd/HWV+rS/5Oe7nrjw/zfBFHC+kh2JnV4fXpDJo+5zfeN9fXjOLU6aLVJlPuYZ9zbYsnLArtq5TVkpjAAK9ImMxWg2gpbFx6ROA07pCZ9FBQ+m8dgVTPyOHN6YvnTRM90rKprtZsBco2hBtwyCRbYrB1RrtvRI46+d6r51A7CO8sUlZZ1K8qQ2l3bybIzMzEWpaZU+7EmtkJcvzB51mur+5Xavi5yLIQ6qfDDu8qO/Gievvk+eOBZQJtTa5SqwKASPPlbIPiwOXsObz7Kuv1Pcp+Xd643Z1KDMVlQ4D4Kvz5Q/49PTaQvrRf/w5pOGA497VjZvbvfD0XCOjV1puJLJUX1TXEFzd/c2bvUvB665Xz5Jcud+skWn33fmX9c94+Om8hkAlhXOX60X8LF7DClEltaJK7fCoqoPC3Ox3dNXKaVEAuivODiqrDZwG2ekgM4rQgKuvE2haha6avN/tqhxmNYQm4ZY+LQBG5MIhWQ+UiACfLQoBw59/YX4r7R/2wi/pDrbnP95zL/bxP18TXZ61xMv+3xfcmXt1a8w6QGf7HCD23XqyiPDa93nRF2KZyd/1y/EPxfXpiKsrReJJP1goCEzKgnDFRzzl1X5H+8cky6mbya1+7QExn2dXZD2R1/izO/fmlYcjxmZXecTX271bju8PqoWpJ7V7qAxtpn00cC/0p0EQeY9BtdRZTNDNKTJ3XnPyAIN1nLzNm6dFLET3tmg53g+c8/CnrGTW3d9gfpU3ftnv9nPvgb96L19E5EVRN+5c+PxCpof/qFf6dq3gf0L4B798peWrglaQ7E135iQQkumr5sGHJWdAzP6F5sg+MQPytmjhXHGb6Xl0jQZvhwcJl/tiY4VkU6vOAkMW9Nqi0iHvB0Ctp0tmFAB87vngG2R2EhUxE2h19zaSBPVT7aHh8g4lzvA22qKUXM34DLmeQ817YOeueBpJu+eQl/aLSfuKlfUEci+o10BLhDj1cRxJVYgKyf7byUOgZhmgHSdesSXPMjR5xwd/eXh9qe/53qKOriO2vN8nZ1fvWz3z0OQNtirx0goyfw3u6gGfn15vfPH8E/2XWWr1t8RQ80ZS6b3duVzjmacbmAw3nZyn5IsgMs/4lqbtbobCe8qpu7RF3s86EbkePLoieRBaG0g0hqNXXF3/cO27ik4drNtjkD2ZQkhWeCGLcJV0NpUBQb7e4zT31KCAMGIP23kfABSx6f4yAfyd/FDBnT+PoDN/Ebj8DwaRyZfV+Yk31Hf/1Ctvy62GyCKXnuZZz/WOfb70aLSL5Z2/654dPP/OMHSwxA3OtK9e64I809/t3Vd7+Ym+/HBuO6DG8B1+8J2+z6+eCXLdxcrhAp7pg5VIEjN7qeiBfIW/Tw8rz7s7vxdZH8MXONntszzZRznKB+z6d7n2XW466q6rJfIrPeZyT/sqW5zK6dwNFSaGJH6BBoEcjgDpTA0PmmT1OqvBNBpi+pFmBRzomszy3QoH11tSCWY1qvOBCavSLJ39rnbls+5+U7/wXf+280zIX7OXT43noc7G4anU5xsyvepXrPhP3sfgqr95cBGVQ0MTlSWtg/f4dqwSiq1SnWsxeDcvSE/vd12QRGgA4xFdiSkFF7ablAjwWhXcmS6QSzstiTFip1RoplJqRQF0wFgbErLNScmPH+dpzMAu5PU534I5vLJg3S9NGeydH6Mt1ytSQJcH16UdDth9joo/pa/x6qHVVlv6oeIymzrxpFoUImZUX0EZvLn/Q8YImbzAFw0B0iNGAeyQLjzO7619K8GDvDx++I+79/b4/I4uPdzbg8sbSPxce1i/59P3TfcqhKQGBEj7wEo19/vw/GaOfK5rOTtl4p0O4kHXXE9scaOHfvYu+E/SubFTNgaE4IM+6IjDlNWkCH9cwjDBfNXddPiYl+jzbmRVLQcC382UnrBMXdgCyt/wvLZNatXpaeEtodsGw0cXTGjKRBK7zZ4gSPnDEucEYGVKTjNFh3SrnJPjlfyfgGzhTuBfyY/ePxoEGgC1Iv8Y2+on3ZArP+xhIfeL8W+ee9EhUnfv4Pl2Zgkh22We9lku9pAwe3akq92RPOdY4tZDznD6NJd4vlNzlzU+qF172e15wxV56is9JOz+MRYRblPg6236wY/Wd/Te3w8n4Odsw5qfKPLU769kgAl6AcRWjhR8njMdVWeftnye9QS2zfVz3egl75+SHF0s3vsVH3Ng1NExu1lsU3TjGjdbn1utW2ouUDZUQEamCQtCXS1nPgN3DxFVtI4MECHZUqvQaMBCR0rz1HXqSVxgs9AAbra9U3X0Y5crrlzW3Z/Kfr/rz/yl3njmp4RPtXzd6wyr1+PqxswLO7wmRMs09H+v9lV1z/mR8vMNv3EwKm7muwvc1Eizlml4iRfD9a0EajLW9KTMCs435PoFxzOsXWiIfVw+ZjtHbQGiveTvIwZyDsBlwyDxdk3QJfYNK1tOlG2cIUQNDrlSHl3SGnqJPmmZLY0OICVjXB8FQ7GmI0KgWnJc1ju8Qzaeb7GDO3cF08gRATZcm39hd372dIpzAE1KHNXdiVIYyJUBLSmBnU/V2qmQvNRC+zXX64tRqleB6ICq/6T/Np++f/aa67Wr9/LbPPd8zcFs50y0YzZ+ne1KoaX6wZxVoMX+380d+7zBZHoDyfTWz77sV/H3LITPMzZ41ZVG0WTaLQByXm6heXDTjXtDoABkbjyppUZ1dq+1TvTwvVY/o30cWl9fJ29DLkoDqE6kJHoyZxf/cFwAOC1pkwaUcyeldIGoBBbRLDVacgoZP06MYDWPL4RDSjp3aFgZuhDkR90+/hKzuSEc/YQbx181C5qvROeXmu3H3BqpfvHZ+bG31hy/HK8feU/9gmfLsFmVL3+Uz926s1eXCeS+eYnLP+kInlmsB0V91rfWARF7WN5yXYY1O5/W0EDyYi/7fK/5dpuVwYPb8gf+p3/q5fmUCQBprE/CZyA/xZp8pqw79uqmrhSdTdT+pJ2m2bLEqBpT3B4cZpdVmcThMGXeusB559mswld/QIqnfysHxFXk+JAwr7nRxbjMALF4036OIju9qYRpI2WCdm4EPQaFAsI+LLk6uSt8QVvEk+gGkKg69FyoWz/OtR0z0ZXMuvvPTM84v8Jb/7vzLOR8I+vy2bGMqinlIF3u8JrKKNPrfUfvVemnnN/7IOKwA7I+KXnbEOwNzRIQv+SrspdW9TbT2HA8SgYNDg0YIJROoGLv6UzHZNBBZ8YFeb+OyjwjaDLss+srIbqe8RmB/RW9jQDZBWTXK5rOQORXxGQ6oIhLDquIxSjzXdyn95fy/l4rhaguE4XOCi31z1FhqyhDiPluTifYl6GOYQQ1OH1GSEKyX94eHFTWx6+nCtpA9VvKLzfXfrX1Wuq11URRaQ+Lep2NyvNP956iM3nkz3+fqCMpEqMFhPvBIPEKoGJVBpm3noROx5pyXAQvudhmQq2kBspLRnPXUTZXns037MqcO6eq8d38RSF6gmf1JFmWMKjK/Sc+NW3orsBI3yxkG1RD3BibHvEAXJwlKkiWVbSiFqqdgwEKHldbjU9U+fG2jVXHwspPsHGMD7vyi83Kj7O14vVLz86PsyX0XlLESZVVJQIu7CFFXULwalsVYYDv1xNFyjs/67JUN+Ywln+ydRUrOKUiRDWWhUA2BwwgNVUBRDRQykzFmEhutinR3CjQFPdhV8+wJwWiHTCDi3QkKLqyQJzV0+hK832IflHzChb5+iQWm9XDDNxi+/vFwNgMy1VXMuvuV2KC5zOG+dX/eNaXk/NNHgrH56WBSbH0eV+mGGXa+H9v9LPK4HnJ1299XajyBx+B+pYn7szujZJhifWc89jQdkvJwOHNHSlivaHiRvQvCHykBDRjqzQfabzgvoHlA+d9FdTaXbKD7GKQKFqpjJKjxP4ZtNl7JpsclkL984ywMwm13nhbbPEHw0CE9uUwSjjmbrczeeYzRqw0x5dWC3XKmO3KCYuOHGDjPZEnl9IVPN0Mf6QqIIEar1HvpE6VuInpgcm4DXEBuGRdOwngJqRNZQho9GrGW5gvCyAEfjnFVaAb5iWYKqh3udNsIoKTWhBd3a6+YFHVM8OEotrfTn/EsbCvfvPh2OD0EwdgaEXRtWuQ2VcPQbkj3GQoeCfItllsoGlIRILLNuTwkOxmaQUM+tp46LQFiDkZFxfKyAoSLQjGyVwCi5EZSWaBe5opbSDAsJlI4ULiVCRWGEO8dBZRJ85E7AROQZJxTkDQXFzxBCDqRsZbVVqJtlCwgyg6YBYigCedtnAA0xKO3/Z6wrapjgUN6/KEbFc26+6/RkHb8+v9ddez2vD+WtarwMdUHAOf92Vqs0yP+tWaQb3WkfuX3/MFmftyLR8gAM43C67HlJHiiJ5up/xyRebMpQCUWOuYlBStZ0JmdhIABPPeCYxFqYBPnMzTt6EKUhXoc0NtsJQdGXu/cA1YMzjXM0s+DkSR4w211KK5okQwHfQ+V453hG/v7m4n7lE3LcMe/Vb0zZcoGC+4HXdSvy40tB9M3r4MZdgjuukZoXFxUhBKHibf7f2grFRnzLIgD2YUJJj3gEh03o6t4qTrCDOCMR0SwOWDlQFizLd1reR/wudho8oKCoDH/P1x2R9XbszjWK+FvCBLfWjXEKkH9d1h8+s9ymlpqpM9E5Y9xotZbE4dsgoJKc6BuzpCG+iJcU8XMZECGAh1t0BEtALWl4WJh5SA6BcQOM0UiFCywpLUOhE8MbEaa5nriZU1GXNePkrul6te5SGIFiUAUxc1qIAA9xRdhdmy1aKpuWkmzVHK9tBkCe4GAIZLYwRcGQuHzAFGShLjPTBhP1zGcb909JZVSHabmltgm4pk1RllYwpwaAYZiUIxfNgJxTCCdugEwwJ40KaiKDzbqiFlzyW/NpLCqt+w4qXyHJwvMeOlxsQyCodWh9cks0yP+WNeBxxUXaxcOVdjGCfUSj710Cpx6UvqYwFmBvCa/sMLxOJ5nECJB/utcJI9lAa2ZR7it9q58tpJrDOE7dMrzLfr27sKhW3p3rx2KM3ZPPcNAwxaQxC41hFjvgK7fqL7XgKMgRi6MroSgCbQksgRtMzBpkniPJO89wQVSyIBwN9/zV+xGL034qKI+Y80br0qJXD951i5+tWrM5da/NBa0vGi95673gjrpvEBLpQja3pa+RWjAIkVK62k3BMpgolgqY/8uprSKXu9m381Mx2rJCTKlojfcSHEXZmezgU8OlXKsoipF83dTfWvTzGt1f9fpyXjq6eK1Uxy9oNtoDDhx7q6ffPpRgYtlUig1PiSOHokaMR2odPsdJVXsA+oV733caber/BjSCqVaWy4KZIoCQXNICjYUwA5qaYM7X4ENYzw0rKBWZiTQGtRRRjK5JDE8KzRkopKtIASFh0+CMmQ7QJwB9m5uHNKjJyifIX+yJ187O5EGlhR9hmyG+ynsS7W/yNFAeY6684i0ZXPuvvFhMqX73jesfqqT3PNJqHQ1UN9viJTUK/5kX48p/gHx1oQy2aSsG4ksMXVoNhnKE6rg1GizpIWJ/Sw9Qkx/4Smzk6V8hTM9lGQQJs/sAN0yVNFLXj2uWGx4JZiou8jpMLsQrHTXtAmbdYpKSvYIxYQwIC44Nv5OI3x9/UbZew8OGJ6dHK0DobOWJWtkDcBeEKXixAplMnWSnSCDVQLIcbpEV0IYhpBZaeXtLJ69m6S2iiVwxMEJ3INpBlpaGZJd1ErUYhNMD23ALIeZFdvDAOEyH//39S0/kE3TV13WXLXz3AFBeFwfYTCA258ytM6B/XnUODs7SAgd3g49Q9pxiBDhaSW2YSHiTYbMEvtOrQanlCVOSzRpFpygcc5s4AYAvpxOOi/+SbYV4nrOi8cllJWEFFPxqmQ0jMLkwCWmcoM0VInYPGhMwaAUnPmEsGSuEZVFnAwQVJlopBJzMyJAEAF1gnqBIDSboLpTgWFXiUtBpfuEF0ivzyW+5JlA92keD9j9JM4R7A2waZpm+ISjZXQuvsJ5/3+RD/7WQtw5bNlupI0e/lk9Vq5aYIiGQYtmZHo3E2sRPNcQWIW6FmxL7udh+qYZsSMh50vfaVkkdyT6Rsqg2pfuE8cUmdjgOlu7peeRZ7juCAtPzbenZEwZ+oLIoauI0nb7TqABrzPoInjXNFtlQUYeuSB1l8TPSNrRQl0Ms04mziU8ZVVV/ABbH0Bu4lJ+ZW3kMzpOEw/XQSp8Yiqna0l5SmI+I505MnnjscCAGbThryNOrCURx9e8wi9mmXb8lJNgpLlI8SrJaYT5m3bzOfQBExuizJSLsv6++RzGu5W65SJ9otjR2bUJiDDD4ausF+S6mk5h0oqVtg0s1ovmxhgDXlRSTCAICi0KiTN2FgpDdIUOHgkqE6QtjIFH7bOy2rp/BZoZtf08foSSAkOUk/CpB5h6iY5lOYwN2aFUyfItoM56hXMmrk0cbiIqalF9QyTjJBSYVGdjAMkKdCkLFYN65ikQ+qKjbiNau0AntoVj0nJDYJEXtZ6FYknsbognLBdd3gF1sn737+yWXd/aU/rzPr0qWc+LQGax0avV5731eE1yVYmn50gZaGnxITxO++OWu+/RMbjWH7foEmMlRpS34HTSpa80hf4HPxj+kn8OM7kIC0TjpBmf0ULGMdpppA6pUOCADhRQSQJgZpZq5TCcdpTsYJoo7NWc2ToGSwUl5RS7LKTgJRaXY9QgYrsGzgobOppxrFgJIlaooIUQT2XRTTP4IDgNLUUiHli5b7/6SluEeQu3qWqskXt6/r3/osjyn7NgBsanKFoccFi6lRC0CJIiEoyADvrfYKAGzptE5g5myZp+hhmT1oGdzluEcgPeAYTkWqu9ouJKlECu55ECE2vRzstx2efRWEgUsUleRLF2rnfazHmQXvYtdb1cJtMZFa4Sj7oAlEouDJEok8DXnDcIIY7k/PhWpq6z34xxBQspJWzZ7AJMyGQILozgIPlLEQgaMww0Rg8ZiBIcmKJWVjBLJHVCiMzY2aFmBDCOSbacYdT9I0Y6ogOQJ5Wj5PgagA5bjmH2Hqoinm/noR9BVTC6mD7wyubdfeTF3ZxTOV59y8mwgSR7nsD8/i8LxMsZfI8StRfetRka5PfffOkBPR22pViWqUGBB5QkELy2ryrhC4AJPPVrpjP8Y3lXUskMDgKZAxQ4jQW32cY/GvndwyKbLeGB9Oq9NudT2VToAEEB8Ad03W1IdruRauMtxWplBo5Y2RGiTUx9pgJsWVVECJaFc/CRUKeg7wMHj3GqPXD4kDkWEgs1e1RJBkcR1+H+1/EP/8Nw2BCbMvxK0UgiDBRhRQQzUSQ+8G2K3MqCOhaf3k87/USZWujvomZnCfBpZEZ3jaliHDpc5Jlb1tBEK4XJREyq21Qqt4sdD7i9FMDhg+K2Z2sVaQFhpy+BiYhFBq411EY2BRJ1vEBwirYe1ZIELXOnTNVGpSRE96sESxg7pcZe4KoG7NUC4BJA5lXCHATrtlVENFL6CupRGbNVbZgydncRNTAiIAV3Ino5lKqi7iG1IYxThsmIAFRKaiKQUUNtIzZOpk3DpUJokl04+ji+EmMAt/SUMvx3NvNVjbr7ifef9x1p/zcRvHZShOVtqtb7OnwmmApU/BbQ+Lf9kAuaddwlGZBMhTaFy1j4oTgewmEUCJpmUP2NB6Pd3fw/jN9tWDQfPyI/S1y/wwJgKFHV4/EAODZZBgADrs4epKodN0owGAhxqCsLL9RIjF4CMt+IoTDd5+M6Riji6zkyLEtgII2+71ZPdHVQKBAVYQv8rsTBujLiIXWJi3NHODD8AgzOTeB693Bq6fakg1mxyQgWaZq1eXMFbxQpBWz17GKGXM3MDwFqGC8ZXTQzFDiTZO27nyePRExqcK9N2EX4wvOp0GnuAstNgKXof0iDNf//l7dP11gclr+E+FEEi4yuI6tDNu9m0hu5aVtm7YjH0jmJDZQPWygmz3EOmDhfJyNPUxqCTamaNQhqAWOgDFxTcxIHSmwGCwVTipR7KoPjc4o9zYPwJ7YScCWMoPYWaXTmZkTc6A+QGSYI4sGJEVWS2FyvRfsDNYJMYF7xJ7DAAzYsnsQUJgcrMLh8H1fEPaTWDS2B/UVAvRgHRVY2ay7HwHd3HDwPHymiq3iw+vlPdS4OrwmWcrkex7YV7EEXePm48RfaMdBoP7n99fzZLlhP93cznNGzBHAuhgrANZz7vPDIe4LUgnZbzz2gpgK2JSM0YYj5mO2LbF6VmaSVfS2wARcBc2u7Kfe5bcEsU51PM5A6yNhvlkviNq0uq5r1bkrgi1VAqlBP40ksPGKhuqJLxi5KCHp6JxiKsZTLYNjDvUTFtQGaHCOJ+i7RsLBS20pi3jSEQHByIiZs/0gkuj0C5bLoBSJ6DRrQ+DPEJB2l7iLNyvOMCbT5zjXjCWjvdpfkeu1XlfLw3K3SFmuj1RiTB/o6G8ZrHRa1ok0mTCjRAk0kbsrCS6nhwgqCBE0JHaaWC0mTVQmNGeSLGMn6NMNrBdBnRgb17HWbqoEMjO5CkdTVjVkSm6UnYnI6lwtcDdkCnOIPgoMAltISBCrGWtiM0AdZTDJEYCCqgwhJldI8rSDICch9ZikbvL+dRdM0jEOQEA0addhb6BzrDN4i0s3A7WoWsDCZZ9brnTW3c/rQs9ag2fikyzpvn9IefV+X3VWepr+dhus6XO0rjS2X/D01TfKHWLHaZkNSGMFwwLPxNBnLB6J6vGIlk3HaBWVu7cObGeEhftin16uv1E4JQ4RcZo5VqrkKDa0kE8JNbVoppi3vQMIRRkfPLDPEu+O4I13RIQ54s27u2f23mbGhG7dyAKNrHh3R2nTIgQzo/31B3Kk4x2RCj0GZuw9ICZ4xk7pORcMV4qA3ITUsq17ampGsjb5LdsPWh6BYva7VspSRpJkSpD8io1VHrK8m4tOVXdzv7+q9+zqRSLt19+v36CbHPhJzfz2cMJMQv3HlWs+r9RITy/TosGwjZ5BMUUCxoAMA9BEHY42UEhcgBColEGZAiScKgO5MF3B+1DdSvmSQNxzhVotJM7sVXfKlktOCnGCiMJUk9eip9WImU5eHnEyFeGcjKs1aMksDnaQiioBmixb0v6AlBUsBkzzlNNuW3f4ACmSd7AL3SC5SfI0AOWUSTdomxEH0TyJtYAUUV0CnLCrrdfd3/JmZUUupeaizm4EJQOEAHe4m6pDjOB9cqKc/e7nkr8Y0sz98ezN4IbEg5XjRsldpiRmhboZzDKSsYi6hlquC2VbAU1mDnF2CIuwRvZkgmQhk7iVns0S2IycZWp3cCPTs7/b0Z1qDYdWXnCP8bjuk6WGQpBOXAQWQAmJgVKJVMNUzuOKawcpwCCSVAQ1IcE4JIWtmnOPIFDZoNKBQI7nwuOaOA3K9cCv8RFD7pgIfKWBmOJBLTbbDjx3oi1zrqqr9yKJ5RosNwQBkmBhKrLjPkyPlrpkpED1xRENrdyqcDU/BQXp24BfWlIvdboqUi8nLJbpBdOALCJzXv+VVstitj7O5C5NOgRZKmsxEKjNQ+BQrWc3ltA5LY0jiFyvUYrJ4J4Do0JJn9W9Cn0ciGh8RlRXGnXqAxMhTxes7SpV6ilO//r7GZFP/6HTlVVEN6ObpfgDqCays0TSzIxvkqqHCe03ZkorCDxoCLNGFVgJToe4JlKbKg5jpwrGmOFRQQKKQXDTaie0p4wXTBsVzBEHeOAgaBdsPnK8EVsfRQpChYCHlYBtG42XnAJ5YKEvuEPMJO6UxdPZbqak0JgxgYQGdWwQ5auexC2WjwRgzD4u2nrd/RAH4MactLAAWFAWNbRqz7TCCCm7qoZEFPe7n0t+ZRW04v1cfGErj9Js0OVL7jJlN0liiYyMQ1BUaFLWpAUHXQFNpkkrNLkm1iwME3aUVGjSOsEEDEbLmsJm1e7nyyRCVeJ4rgbsu0K21FnAApdYNfddljdEaYZ7ee1ZENjEIc+Pqw6pwAsITBAByBSSxCLI8RR3qcz4hOBoh/HM+KzFwB2tpZPKlyrAEJo4T0ttQmNnsbQhh3oBM0nse5FyBF5OuzqwERjjGNokLWvKqH2tJWXg5e9PZrftXVo9Mb+iu5nJxNiVZygXQF8QOn3OdMimkzrfFUqlkDkvps6XF4NMe9OpaBxLYcSnDLXkYTcVIdFAeT7WJvfjzsEq8aFFxf0sRCYh5Y4DiagwUfCdkRP2nRhYfFFmhOq6/Is1Tn/zr11UC8ZVymbgijsJnAhMW7lKmIPVOlG505YQHUjWdgO9I7JDohvmHSXwsrDqkgZ2EwOHtzIZIMblkIKzKjzx6VdgkCCybeBMwkpwh88Gl+Ppc6AeEAzBRkQadYTD8YwKJow0DOacevECLKPKGQTyRTLMcZpgoRETxdRbbFpiYJ1durbMbOt197e0S1idzVyFDZY6zUQRhc04JRUqFMAJ2L2CmJ7g3c8lXyieJvo8F3889xm46DxTJoaqGGcllhiFMoBIEqvJIhlaoUndwMk1UiEAEsDOOVVocmFwUji4yipqaIUmmWKZ6Gc3itjBziAWi65AsSWwOjmxnmtBkfLBeCzsyr6DwJMhMZpEqAegyDMJgK1EkiYpJ9Rp5FHF00ATgu2q2rwH3I4bJVJALKvARYw4gLCpI01Fkib0+6GvgQVZt8akX2tL8HiZS5GXkMSIM5SZSOy8rnJB4ZbttZ+yMgpAq32+HZ1v4NOqTWZG+uMJ93F8QczVUq9os0HzuqFgYfUdhat91sIdM2BK+VyMJlUqotzfK0Wq2bWUjlAKzegiO1o7ORL5gRW+806U2ysxVS2T4x3jV6vjEp2qhlmFdoDvRE7LX+SsyUvgJN3spoJaL4Q1HTXvtXJsdDqCpkcIbppTyDM2IoqQiiyO9iNowfSuQvJavICMAnTUQl/oJEpytwfjUqCsahbTIAPa9HgQH5LoCLRrLQmH8kS0uqY3RnZOd7X7tcU1VW3c58g4tQLqDM6EQwyxNQQbyB0XtlKhjim49vUWm5Yd8LkMdRlwyipq63X3JzI2S6zBAI0QkwJiZjlTy3umleLaEZ/gc7/mbBx+N9fzLW3OVo+wEJB2UjTbsD2pDDAqw0iDR4+uVJ6L/0z5tUifc9XzZDIh0nD+ES+1CxfLSg4yhiVCyB4KoVZpgqsDwSKEXWHsHC17RBCDC7Mk02Bq5oA6y6Q8LzOlei4kzhLrWXCcswf2Sku1YCVTxBDTjIMOeFrzUWIiFpcRo0jcUzJuBlUQl2NIY4ubChUFxACbdjwZEnhK+ZFjI45JK6dUX4wNkHxIx5TPZlfOI0qHSE4gqDdYx1XapKZ+qH2NMZHVjGQsn+LgAjavJkxyEAoCmZQ8qfUhHV3s/Oov8zd892X9Zr3o5UwF7PVuRpvSw3Uyf/sU1Rcw+ddf8vqcOB3uZkzYd9MuMyVJ2LkTgklHXrb5Q5V+NRCe0fi48xMR+u96UFgBYySBV8lk7DyLkrUC2aeBwrwf3C6eRQGBqP4+YZHgiMKpZeJ5WTMtmIGIuOikKyoOI7jFEQ4SGeKK7i6vdF5qsU2mjy/3NCEXDougjgisREozWk5XWBNyEV5tcLqzU3vAoPFqcSgSY3Uqu3RXL5ppNDWBLinuyb3XgW2UgQAh63AQ0CRGdANksKKHsxIqRqHBaUE8MfuhDIaLAdhiHsB5Ej0GuaF2zfkamEdLnhVZhV3YqVCyOq7NVIlxFdTAmomphV3Caq6RTENwgygTlAzZWSCAFj1w+3D8myJ9quuL6Xj0FZHZW8JACJVDtyZB3AURosA7wEuVqXouPlH05hkEc25kWj5lMrHYnaEnk+SgXA9ZomSv5UjCHJVbpYkzE7kwtKiAYIaylMhRIKj4hpmQsueUSZxlCvdbmfBsmcDHljhXmglIoribhvVcglLeWAc8C2QtcQnzgGcFjHETAWsgka+NGxQq0oi12UzCQuCptMGgRMKpq9zoDbRtiBKAr8q9bCIzXiulgEeVXASeCDQPeTZurq5mwvMNaqWURyctYb2XtPjJDZ5LAgsg0DGB0Jzb1OWGAgzoZolOO8GsBatypElXvrGPj4Njr6pg3/TsA4mfj1dHURfdD+bZqQviAATB+JMjb3UTz7ovmOXYTXR8xFynuk6z+/15FhIhKef1hzfXIuaFkBfJBzVxWi/CeVUvcOPNoG7qNfYE+74KJKI0XsRJmv5wKG57+v6DBscpCQgDbzbRh1YS5XxJWAIKlEEQeUlo9zmG+hXilSaX3XWOGyCZMzMDEzQ4aISj9CBc7KjSkQpVLb8GNNUnObctrgQnzYAOC2JwAo4SMadWDEjVTeYUiyouk80IInYOuIhyG+gpJauARrtoBLR4BWZIU5HKsaqjmG/r//aDlphgoFn11dt63f3Mze8S1gJwF3cmYwmQlvZMKxHji4os8s8AW7ymeI2NGMVpxDKLTg7hKjRhKn1A8Xr2gJiCsOZAKXuUSbUQkm9QrZqlKjXRJDUVSsSt0RRXlYmRTQWkLW5qVg0AK7OQ5poIAE3OMhXtxjvJVC8Ybdftyh6ZD61gkkIIm49GopYleJoITIIpykpFnHZjirBVmfh+RFdgA0GQ6Chs80eUHFToODWSYIrrbFeHRkwrBTI9qsh01vYld7Rn5d1oVDjW5QbHM11X6ahMZRRqpLzGoplmxWz4Oo/6E91HBHCBwFXU01Lqieo3azhw/fxM4Kz9uCret17rCf6AJ6RHLK4sa6rT3ijAd3A3g77gkPgZNIvWM7Uz074LsxAkD3y5Krdhjed0fWliMd38pMXWyQcJA/J6yxpqm1uZS1D1ji8HpzyOftqOO65VSSc4FeGelfYLeavSeoEnav6d+7LCqYO1jx0QWQezakEEKHqjjzQoE2HjdgEVh6AtdDYePD7E1kTvXVwDMw7mNAzTZCBEgEXdRVWdTEKEhXaKho142CO0cw6XSBsY7/TwVId+nArJsdhY9yzBsMQFowEfXX3OYuqewmVJcChKcF/Yj55sjhIhBBPCKrohpu1MrtBEnsQsmKsgrcMl9umaugHKUdVZI5jBbkYCaHQXQq4FtEG1tEtYzY2MpIlMhkmUKlSTKHuoZcMXHDS+wO8bL3t19O7nkq+IVp/Oc/FJxAzg7Ms83u0uU4YRu2tmZtMYuaYkTTRZKzWxcpndHGwtb2pWM1NVyypkOVEmNmeZuJGJJ3ou+kz63Dskp+TqVLF7TY70iwU+Vtxo0kEca9DPCJs4hrwXcbHdpo8IzPsJVkAvbyfG8yamuY1dTK4hiSFsbALAUDpEdHQQt/paVlYkBFdGRW6US6mN4UoKFjbE+hJHFI31sNmJboJBEcFWYCZ66RRxSueTJoLfBFqfGC5chMjjTMsKgk3dyjeg0MJ/G/CrNqWX8RxPCiIi1ncy96Mc36Ql6As4hrrTwJEdHgGS5C5n2lcHN0WSTJ9XOpbGB1OoTlwkVXXe/Y3d7htc3PSXswiyDW7jOCWqVc0AqmUmEaLKOO5cCzfqXlpi7mk5rto3py7N7QHA8oCAHIBAMZ1d4w6IktpIgpQhch00msWcAdyNktAGkwjudVj31OEpcWiwqRNM3zydJNy+iacdnKxS4YoFyO51TaM9VGoY0iBTLXRZi+0TUGxDYeOMZXtyF9tsio/FGFZZJ+oRUmCdDsFW5SFutpfoBGgYJNnKgKwn0YSjhkqgbe+yNl93vygLu3QhGBamvzMTa8wXPDYq8NG60v5W1IC5XtzNljk0TBdcpJRYg6ORdkibm3Q5wGUqRVS/QQOwtfqrRN3LgEHEDex4nUUpQ1xaKsbMnA8Noii3n4vPlJ2cKXedZAC4y0QsxALWzND/ozttd1IBi/20A/xu1OPIlD0o0pr+FMtxqQFAN4oGwkSmzH//qkpNH3KQn4EBZ/DOaNDFIlHGN9WVYp7hT1hyTeOf8RkXmzpHoAfJkDC9HE6tMVMQmVCyegwmgpY1ZVsoyP38QWcTNMCxYU5BYn1bEcAKb65pJS0r6ztr9wni+SHVEZACYwXcClA7oNRUw0KLE0kOjiS9Sdbato7SXD3GGbQkYZrZvKhwpTGcX0wNi2lT76AFek2giVn1ZpoGGeDVCzMVpMXIZj0/s5Jrkwy/JwkaVbrG82nXbIOsEkQ26xeAiadoVdPaz7Nt1QpScuDcMVSYAec0YpkmVeBorymLMhQVCoWFTJpZSb6SvLYMW1TbrFzeb9aeY2GXGCAYQSM57yDcg7acGOoZV8UlVhnu9TGzPwKH8SWPWdZ1J8TjW1LmEl0WjE+BvN2KfAuCQiMRqxujQ8h0Mu37rZESx428chJamxIRs2LSODJyB4LCTD3VQyENvqlIKrTft1BWwvR2VsSIdrFxt1PsvkGLDWF2knw8dd/hS4rBm0TuxZhH7Ap59jU4mblXN5EgMiMdlm0mUBOUylxeDZMVMNY9AQknTZHDMpwseKUvIwmhWkkV265zZ+v0sWFxUXJS4IFv4h+1gQpD8mTvCWUlEVbqWhui1XAz2Xz1MXIlgqarRaE80yAhUqRKl+v9gJaqABMLYhmYr4B+24RmDdV6zPkzKm3rdffX1DKhEfe8291ite+wxLQ7yVyJNzzr0QXMbGQyT/G1a3vYuNvrfurl3+ACY1zlHZ/0W86zzY8bsrP14rjCHp/0a6+0x51e8tqfer3PHNkm+yIg/R74/0+9/NW/kNFGS9G7n0v+wOf1fbiv5+IL6yAj+Ca3FHeZyDUbGpHLkZ6FPtrFX+bxv2TdNtiyb93rE33ttT7woi9w2d1e9zN3HEKu+4XbD2Fm1/7Q824is1kRdhzkel+YQ3befDXf1udYbPIVllrsdt39n8KsA8Jc9W1vf7Dji6qTyBX3Olv0HmcRwT9/vhHPspz/Y6lpN5JZTV7/jFPKgB2KBGgmdZapg+txXhPsPBPimku87yiGiCFKJdPKZLhe24Vs4naLMpbk+LE3nG2Xix6BG7b6Zrb5qMf6fZ36M0V5XAYnKd4uXneu3SxwCFs2rehNW1dTmvfrzeCy3Uy3keJlgGLb3nN1GnShw2zxAVvVULJig4w/u/YLkVHMtv6ou3s3vuEb28O7buvxhQUstAJDGo3FR+75HSe/gibl2/ZT7fwlNne3237C3bzT1p/iATkPWXVpYCM3t6f32NHzbPYed/BiZ93AdTrCI1a0hj2823Qb+L+N3UrDrHPuZv6D7O5tYylhW08ICx5y9l0S16LKzd9T61rjURQ4b+8pZtlsxyESLRdcjajA5NeCeVa03eqyiEeME34B8Gr9gEdWf9BcmVE9t/bzwWRfT4sZtVDJA+or9bPY13yQV82H7J9XWu8tDVovHMfonqGsEFOpdCITsz/SMzjel1l5QzJ4DxRyEUKBXb1AWdizSCEhq9ZVJbEIOeSKtmgmnDZcKc5vhcExaBdSaODQuX8KToZiakyZ4YgNzAJynDMeNuWWTulAJBkviQa5FKbEVk6TABKfkKTUHYRB2mmKXD0RhsfdBKNQahLNSM6WTmLwoOcK2IJBAyoadbKImAqkRpQUZBANTKcWL+I0lQtzDwFQsZEDY1mBz8spsnq9JE/iCAwoMzy82AbdY1Vo83X3Z0/Ui/Bye10rwL0u8Vo/8Trfc6u/mVjgsq/zBqcZs4D6t4eNe7z4iz7gPq/5K6/1Pa/3R0c/ZesBLrVLcJKBXv/hgT7udoJX+4lX/6E3/4+JRa6wxy1XI8zA5+TdF/6jQgfvt7rf/VzylQI48n4uvqhoXpLUUuIxfcqUs8txxzHQjfASr2aDdu963MPSCqdzbeWCw47LcYf9vMYP/Nv3u+zZ1vof4u2DOk5MZpTiMkwQHjqnbQfd5z6v+zuv+r2v+RsPuMdX+6X3vi6IAUC5VDRAWa0HxRXetJ+LXc/yWj/11X/gNv9wTN3He5O7HmN8DivNERIysznLpKmAw+fKJCDzzVx8si61+maHU42j9UZvcrJrXODQpv6Cm5vmU+bZ6yZudtETzLpt3vJ9/mHHQadfL3eBi7VeyP0s0SK4q2poa49xb0f+Ydf1wYpSHO8PWtSww+c86neUrlqJxdvWut2nWehwU3/IDX3YPy1yjC3c6zovDpt90vVM+9XUAgc4wlec+L+Y53iWSiNig0Ylbu+Z13vaI3/Dv9/UdBttWc2dNSkVeNoMbutxJ7/SOXb7GNf3PtN8sTn3usHr3NJDltIxNR5aVnGVDqc42XoWa7HYTfM1J/yXrT7oCf+jxzjzHcJH6bb2sEZg1u2tMAAKrKbx0xTX0KKyI/2wgTMYMpyFoSMkz3vboEqS1upIVUfPYyrfBpH6Rj/muT28qh7w3+B899VUe8hUjKAn0M85do8R9XDjBCGvwuwmQiZXX4sQ8TPuN98phJ0qA0TTwVFNYiU6US49QEYqpP47TuLe3iuT1FdGfsOiPHWm449Gh6iSEYZT4+EpC3RamrCrTH24Bm1/RfSuMUQ+iBCISmBIBkonlB8wmVPajFFhCLikZsY4cZIiaccMNhvRQWwuG/e0EEJJA4JJEGUdOgzFBoE2uzkMTVNcVKICeKQQdZyA8MoJMPCKeZgSOzYCZodkCW7GCl3lltMyCQCjxsuK3vrzgccMvZjBgmb/MqknYQKQHQCCrQGBADzjs4PDSMWT24uVdatehkW8/T4m1XCfxrPLWXd60XNs9tb/wAKccyN3O87/P1+2nNl0z2vsft2RSUd0Yizn2syJtz7AkWmX6vw/c2rucsZDn3POrXZnsCrhX3nujT8+PqvXBfa7n0s+QGyy6zwXn0Tq6vvcykQg7jJxqpZihhiXk1xqJ+sm2PlYJ2apcRrgcbsBD5/nHqeYXOa7Xqhx2HNud4Ct++lKsgwpLDgzOFASw6MNDfmFd7vKXrcpdaHEg+57v8ucbzj93M5tYgYKlMwNZ2gKOw462O+t/u0MweIvmNHgHie4xE7PtcVb7yNlr1JwiWrJWSYNbmTCefaguAXYQAGBkBeKDtj7wcmuZtYdzrFLadrAhRY8uBk2sdl7aFJhnylwsvatTHaFhZkNXhlRSMxb58Uu07v+i4f1m5u4w56THOtXUSQWLc65XJ/H+MGdvexXvHWcxN3Pv06/iQ6nRJYauuycO+kyzGRXYmqlQfP2mxYGLtlvmkHzuPmyrgAqbjas93KXbN1Mm+h9ejB0uSVa7qg/WbTGKa+zTlWv9UL/9ET/stCRDZhVvdWih3ey9azlHNdyFgbHI8F6rmjG7VvkmARQ4A2YWe95oP+cfaelSG3qeIjpt6z9CQEIGmTazZvOf5B59hsTC2hWuFCgoygh6FdGwM8p/bdj9QKUg/82di+YmgKcYOsKL6LfOadPqB7H/AUznnIhX1HVi4gZCYiiXzDRIwhKzKJq19epnV5Mnq29yvdKQBbKV3unUl+bY5AfXw6tvyalWexLjEBS71eApwFJCdP9JEQUlHM3HW717vSrQivve3FCILwDvc2I64SxyKEbyH3GaoCGQxeWahEoI1C8rh6p21zYNII0pw/al0sGjvi4PO4eG2b3IKBPg0mBcSdhCxswHLBhVBvBDK3tUOMXsSoRw4w7zTunm8XwTsuMYKEOMGYb8L2rERIDmQti35siRycTwQaqrjbVDJ7EKWBOs12faC12tf26+8UbCXZY5wFTTKnhTCa73+F6H3uP003x58LYDG+cBam630RnCOwwoOqX3qjb/SaYLwGiiN3u+jm26o1phhTh74SY4IWqD+Bc8hN7hOpnT+hKX0ifMQsTd5k6KUOYIZ/jirscHuZuRzu1IMx9u34aMfe85XKEONObj56CPySliEYkLAvSe4UFPedGjqlzi//8jArC6GnntNhikH/LjkUGVTiAaU/abQfZ9zHzBUEMPOgOV3rXOx5lQpaQegPRALZWLX0/9IN8vkzuPu5vp55Icv02Y92fgdgGb+CdFzlqUMyVlNWhjW+e/Epn3rJSLd6ygjTTbdniJzSp9KrrbV7ucf4aRGs+z1bV3DyKaTfDhy5yj+u/SiNgJDME/eeY6nPA5fXEVhi0aYWO9jmoS8aNItVJWRa5IZ5zrv1gK+FjZb0+p7fI8a39whqs0fVevcsoy3cfIjXos6U66jXJBq8juE1sMHCODscyiRgxbxxwYIBSQulqHdoWSKz8ui59OGeH1vJaWVwSORYEz3iMp2H1j3wbsg4vgwIRnnJGMwLZ2kigKkKUnjDeZrjxUhYeOQ+ParD9IgyF4fIqd/7SZhDTYxbHeZEWeI7qCw4PldRfjtX+vpeHFbyQivlz2nt+XSkppK7YQpSb4FAyhJTIo71CP7dXS4kquD+1TLLLTSBnL4aNTkEEEQw+xII2aYgAgSGLyRBNCzRvGy5okF2gzifjChqEggeTdtwoTqVKB4wwA/CNXXmmANiTGszKbvAUZoEz7Ia5wewbLr5VAKjhKbLianuBIzS5nDj4krByEE7h0EB3u0D0RJSg9mavRj4FSX9FUEDl7iWcwtpNvK0DnB+0nd+4QlZlNAIMdw1OJBJziPjGASgNDqwFYWjvgpZqA/32Yt35GDCNCPNEF6jsN6FxdygOnRPRvRdQa7SdkHetoMsA/Jg4bE73rJ4XC06vOyyiZIZfF/BZtM55OfXVqs67n0t+zoC110PPhOuXzBWb7jIVypazoQ/t5Xdn/QR73GRsyZK4lDeZUuZnAkwFhz0TzsYNmIYKTV0xAZJ1Yh6Z9iOyg+Uzrhoa0PxdohEpHohgj0g8IER3itvs5xQmuE+v+dX3uIWWTqZQN4izTJIm657HPBfxQiCwfGV/3JcW7M1LK6J2DS3RipFcUGcQ3JfoNmbzapTsN2XnIVEBSI6h3LouZsACU3820/NX3ciAeW7oM9zAI5ZxX+DFp/6ch+DQdZRQKRo37x1jKS4N2LAgbGg5HtgEFLgMYYV+SpfJjMuZziDv1O8qPz+qSZamZSzVph03K1vMEmNLddOyxnh4DAOW69KgRJ5IOR5wRGmo06DFqwxZctZtLtszFRPEzTUsmYOfSIUpbAISPb+4H96tDK6HlNqXEX/Ji5CE55xg1PfOuReMt1DQ1NgjontYQ6cNO0YAqU6hWn1BmrFzqFnPApQQJybJiQBA9ewPA0mzQS7PX9Jo1nGTAaQHoXIPEXLQuttsBK4oxSJzWEzy/fiyvppKEfKw1BT11DK14yW9J23BLFPBwQVQo5M8XNAGQIpJYex2TjgH2xBRkgcGGSZ1PAJFVjPUiUP2GCk2IYesaghhYawBfJK5Cm7igjIGDCQKqsCEgxkVmeCVZDJW2zOCRCMzO2Xb7HMSJ3GYMC6yshVWxBWSrYFQRJHk8JgrxDmzTt/9JGZhvG2oX3DIqkhtvO5+U9hnwQ5DfPVlyH/iRPwT1oVwgIsif2x8XlURk/TmPRl60mKgl2WIea26mpqk2VIHuM0MZMOfQP7dfLVhzFpIvAqIqkVOBPFYxbbJ4JUbxZ31XJzKQoGproP1DJnKKBrtrbpTXn6P/T383dsN2Yuk5ugCoJ+bfyFrIALPE4DlIh+baxWaDGJ9HfRg+DYus1M+88Tj3soGB2xABTsAi6rM77MeB/vEOTe6FLULkgFgOTjQGWODxSDCRfIo0wKK+wXP/QBatuqK91rJJGteUn0by75JivjlrT/a2QFAqRaVvqShQC3asi3e3TRfr/8UAUqz1vNc8JjFyQqkm5VbUMC2HgmoJmEoyQi7JDQrodOw1h0Vr2DKVW4hPQXjchJAeZblOdygw02mof+0jJiFwdLpp4VGpWLXqFzoP7ewZmSlROBvtUqzklWahE/jZ6alcjTAIyqhvu1E/7C5e2xUbP95O/Z7J8v1WrwScawmZ8ImppTJr58hne4v3WFlELw/b1dEEPA4PZ6HVUWa5PgYjk45K+nub0wzmwi5ON6AT0jDxG7qkSiWuV1Y7eFKjFXLOSuTpJbOox9YxczgJ+6/HTjHqkzqDxMjL+1K2ZM4EQFdPK2BigCX2wlh4DGG7tN36fQ/hOQ8fOxWDnux95ljRHSue4C7+ph26pDKuKIcDKXGKH40OkaOINsJHUs2hhEkSEHSoQ7I6SkQVtvwPQM5b+xOSIU497lsCYReSHD1STOkABYu3VE6kzzC3ISaBrDuoZkt6jhcqyVCEQGcNOAAJAhKfUpZyetxCNGKGD9wp1Rv+x2gi5Z1/VNYVfLDYd39/x2m1FisY4rlSPB+j3hfnSSYY0oCS6I/LRpxUjeSZbZLbGMkg8hSM11JzP5EfFWKX/AFZju8MvPu55LPA8a808/Ff/npi5oV9d5dJg5krH/i2n76OLzjwd7jHP3dnGMjCQLvgvuLxJhUMy+wOE2pk5BWV2g6FurdGTFbZGpVHPfQk+eJttSGk2EpJoxFE05i78WAqVWWmtqvDDrxuAc96I/PJlxRQUota+JsxpPny1Q0GEuA7glyL1lJ6wt+8V/D7OADuo9zPwp+U9P7uSA2TOJO3mFxbgsfY/ZdmVjLuRRmmOrLK/RCtyhL8Ypdxwbw0ZwBnWsvS3WgTL6yERWIaV3lnR2u+e62AmIWyDSzAkMq7oploCSHVhg0MYg4CoNViGLpQUkuCxDHm2RA8sCnRj4MWUZYzPHYRcENYgTrf4749Vaz7q3+DFbV0Fv+yEKHnWvvxWM6n4xY3HSiBeOAk7SBVqZIiZnvo09rZaP98Omf/rTjsuirEkAlqkimYBeMrFprtBcIx2lieVWVkLxUYM1gdl6InHcqBg5z9TO+RjUQkQBOp6X9cAz4ahJEuTr+nCthBy5i62mBav1BeMJ0r7kRCwdPgoNfjv5w6jT909EbKD9KrTXnRQCuu1uMDOYgQMNrzv2SS6iYHMITAQIjguHRdEBjXgsBSbCg1WuQq+FkzWMoAXFfNQh9hUE2rL6ogCDaJC2aXu4YQlcHrthYDUDdOvG9sRIjKgHKsc+tIKtz706/bF8tIAgIIEFEXCxT7LY2wUvHZTWroUZWv+33AnSZqf0wbVURtG3X3b9GEs9pgsPnnFRCzVSypJqehI+lOYOgvR0uMvxeMaPB1+zHwRWHehjgZiZPsrfC/9nQFwIQmV51L2BIUAAGqUkQVNGwk5yLpfaFevaR5FU6M7VrI3yOTEEDK+s82TseYqbozJoPvOvWAw6PWBZBfpUfglWUEvd1+38sg6aawlChqa9LMM9sYZ9onwdAyszMGhLhJMtM4n2dAvLxcNAz5jQAEzGCsYLApgYKzjJlYN1L16rntmE8wx4UcG7gWx28Xbbe/5d95nbBufc7z74hcka5Y2tiwjVWXbrddV5QYRhOWtdFdRrwmL+RVoaep3m18+7TS8dkeX4qr119RwrAs5AqjSAQ8DACHXCXU6Ud6QbQpEzlRwWqU9gaFgX9Zwz7nhaalCodUJRD41Iv2H/6lVqJQCGlNYFJ747AYYhATJSualNetLbJrnADV7fISWbZQopypjAsidvX107iLq58k9FjKIgDlKyeJbWP+PBmLkBgqpLjZ0TFB1GnPPIP7aIvqDAC4fFocIUq4QjUHdULsVidCWXr/LgZnvM0zqfzmGdJ+VB3Xqyq2zcLkVPd9FzboKIxYgLBEzNaslo3B/WFhuGu88Mgp5apoXaNqs0JjWVtmOXBCyXmFSizzoOds3Bv0kHRoxLRJgcy0Q0JOPA+QqWdhpppN+fRjICjuC0nhyITBLCGgpWYDcJomovotGgCm0EchaCCATjpJjrlohZW8VRTA/JAJlFVyFzSKcIBhBME3S4LsWlvUqtAww6wik6nnsQis94PSGm/vSCevmZaMXNNRwv0oc9YjkiELfh0k1AOvbxc8yPvc5WHTACJjm6kW6xhZoVJBQGMTMhGXjcbkXRmA+YPh2FRf/QahLkryy+1/0SZvwFwt/8MdnAGxeK7d1tAolXhnH4u/sinL2pWku4ypYpseFaLr6XpwQ87reqFxv2To+ZHbtDZZbgNNg6Lvm4cfNiCsdhkkJsMI69/U4AuM/0XppQQ9RqEN1/lIovDZ8USQ3xXFZr6MPZxevhzDNMFMTzMZ2Ni4Is7vqn1vsZCYI+d4qVn9LJAvDIpgI+mjPMRcao3kuPxQrf/Yu/kVXuf5gR/QZES5gSCtV/oK7dvkzgiuuoGt/+0x/+Tnqfd5WtOt54l2lAmvXeZ/Cqm+cQhyxJzTTSQ06yO1g0s2ULxsvTsQRzacDHlAoBKkw4xCCsdzX1XgpKjoF2jZmqGMCa6zF3dOlSfKaz+iwxdZtluMpRp4WZW3cS/FcflFXA/rrzLxqIkMAmWs5Zz3iMsdGQSa8iqy3TfMX5p4AKbvyczyKWb+8yEsSL1R3IL0cpwU3YFeMTWWSLFy5I5PqXJQlS/MuBevuRnU+EZd/PrMQOoDFLIiMXrt/MCcqLPKYNvLc21xhNEwtanmaxWIoJlqo5WiOv1wl5w9mzGi1/GNB3gWEx044m0HEBOFQbBChKCABPaEWIanWFFlMLYS9OSK09LQp+MKaa7ZN0wrfqK6B5GdmU5QJ9MypDEcqqc7qYlprF5sdwAu0BPt1zuFjq7oHskS23jwJRCF4LxuZUpxfFeOlMu9CErUZ9TkgCrenhirUBGxA7vAUUILlzxQDICNNRdtF/n7Mb1sGfZadvqoJPCjdRA9U64C7ZTA+Vx8iSea31eThmcNfaTatuoAnu4Bnn3bgvoDJro8q/767/eX/1ySmrn257t+rn9Iap+BjZfxY/7aUJyGZlirSBvdAHVieX+aYsNb7cfJ4Nt25dGzH0ntXQicKW+4H+jEFMi5t27LSB1Bave59n4c3ffyORguVLuMtVcxOStPiOJfbk3uMDHOtd64Lr/BFd+j/tdY/QTCOpdMXcYEpzEf9cRKX/N5bYU0rCg6yZYasmkB03xbtby8Y7kZBt2eeEx9r4N4n+MDTtIPYDCaPN++QziKRV/4He4xb8wugH85Ub5C39nl/O3PsTlEGocZ5lC3DKps3cBFGyxdcG6nyMrdTDltW7oRo75LT0mFdrRqzuLbTzS+efbO+b5bMcv23OCnqeZ7Iqm+nQkr0VM/+/OX/atF9iLCn6TGhm38pC1R/iqALHGRfI1wRczCkJ7DmilHKXTDCSWA28ww+Z1OKmLhJ39Ouu+xKU7OdG//KbTvsX1Xm6DYgbPY4gimGpd62qanWU7BCYrwZuYU4mOybEwoJTBI2ziVqb6CoLcGPezTtHjhm8EpUl6VlUJbGyl8mDz4yW+QOtWb3FzX3149cWg7JSAcSN4juojZChrOanb3lpsXa48NMabgZ5yT8nIAsgoL1pY2NdCAqcqAXV7tZYwKywhOkKBOyvKXvdrCoeUju1B80CirH1jnsVMBBFTs5J4kAwSi94AsUdFaHoAXsk0+VqTsCIS2KILsLk/GeWDwSHRtDbI3OVpNsEmJ5KFhpxCuRnOJKO4WTGK2QFwegVaHB62gYRHjbhJkDxYQY2YrhUtoDiOEXlI2PQyrpMeLe5INDw9slsotnrBHNoU4mkoXJlWMH2ZOZSskQMw5YlioRB2rX5MrcCZahxRT+Jq+FzW8xyWmFW0GvRnIlKOjpFyBKZBAlMxmSBub5e5JvvlP8HYLLuecZ6G/0cbdrrTyxyZdueTKN4e02tebq93PsFcHpZ1E+z0sl/41v/WbKntva/yeHs9eJZH/apS3bbXs61nnwn+m8D/BEr9RfGF/6hUd6J6iIhSHBC7oDBU93EOOzye++FUDvNc/C3fkGkEnKg9yiSqat/gQzIHnlJn77tuszZrh5hRVabU+L9HtnO/Kx40g6VeFF9pqcVveP87JMVXu9C497rIAdOY/M8XfYm3eYSx7PfYn/pSu9j5pDPqiL3n8w07S/QW+xq90fTIRdaN+7HmiKpv1u2OgywyPCoNuT/gjpfcyWEL3OM8XQylG+GvWwy+iQ24hW6fvcW3y1TELpNCFCDC5DklrdSxy8cK3eWrluY90V/1mBgnalXNVh9BHf37DVl6jiGKbfJr/PXBiy7TxUzblDQlETdzN3c4+44tfCwfo2ERG76lSYs5yd+EHjbKfG1SKFMcAIh5t9EgO8+yAFReVOk66DbGz3/nkh3TSI2L2sajNsgyzwEJXJhvrzt+mW0/7vH/tt/0UrJVte96lWm//RAQgKNqKY3Jj+eEwky1Dl+ig2fqOemkJVoQXqR5lauqF8fZIBEVjWR69dxSySRYvXOloL5CnYiU6w/Hhcr9N1zcPZknVFek7dXfvSYQ95ReHae3pKfsAGeQ10N9f4FPS8gNWR64fzlJ3eWc2cEF4fBisJ/LOSAcy+1IFmyf8gB6EJ9tgQrtxYhdWKqm2yCkfBUxjEXQzWViqdJMgF0oWa6FkFfcZNBzMSkdDOlwoS+AKQx9x9x1KxM6WJkBaYanshKzcxCyenNax0SOa/dV5IKjZdAUmAtmwi7WEsVFU2WUKCDgIAcxiMv2HQGwxA5YswRA1YgyeAAdFAgAbEvgNgEQ58BQMkSCcueFDcpaBFbZA/CaDdREXUYh4JMYkP35t7q2Ja5YIetue+C2AsCpZbaSAtMM6JgkQy3h27jYi3TFnVxxkcr6SXvQHp3hjU7TaQm413m2HuLa72dqlb9uSMRBXiYU3fUkXW2z8YQcu5xxZCrX+9zJZTrXidqH48EP3PtuzQyggT+DRLXklXn3bgvgp+GlwHI/+2l6+qJm3bZHmQymjhOVDXmfh/zLFxnz9vvbaKu7nvMio1x43B9wSiW/4fCIU6vufJjrfpafdo2lQ57x9ht2MrnEF+7ndljEf/gYno+LLG9z+wNc4lWv+a6/2zuuE6Ofyx9wl1M2ahbJdr/hZXdzrfczoeAChff8fd33slv0+j5BPibNPU4zMumTfOYHWWqwXlvwKTqfqHR2kutTQbPbWaYidpkur4DOIvlLMEnsJ4G+ijiblu3SLarsNUmfSds20rjEvjOc5J/Xe2I0LsfzGhWzq9c1g0f5vh7jo8wFFkvdRm9tfZd7Uy/wEW3qjOe910WOyoklhJg05SMvH+f9wHn9UPYcZ31XuLl73MwduDKKmSGe4UiwVDsD59nSfQyYtfsYjcpsXUPxisf5jd7jZJhbsurxf3Mz97LTl3jgB/yOFpV0HOSk60XxpRUAjwk7IgTq9Z7xmoMX7DTENy10ZE/y3Fu4z7286y5ednP3sYX7newqz9y5z0qXsjBK8YZ2B0ve06irtxMIKnAOeImqc+4Rq4RiZtXr/ez9aFm00RcAICtPBjXJD1+B5lGtJtR/VlBuoSc1tPBDmyztzbB7RpNVZHOuyC9juqeWHBlZDTeyOkYhUfQEv6+u6nm/GBBzqqYzhYKiAFEAYNkrh9vC9jFFU2AFUjjNY7Bt08EScAigNQC4nHAVbCFfAQi4gjSqF8kTRvY5jIPNQRE0zA0kFC3W5MyYHiIUs6/rPClTH/YpDYWKNhWidtOgKZ6IF0JU2dnqnYaIuNB1j0BIdjMAl6q70KN6ASqYKFmdNAroMEnFvEecBnLHMnU8T6Ju9fAg1Ow7OUkKtVN3OBYZGnJDsU4WkNzKsWlwT8L9Od7PR+7tzGyBCXnHZWGwnoE/9Q0usn7U4TE/8qHP2fm4dzrMP8tKxAfPcbN/ulEnw0J+jn0fOSHPpKpulGfyfp+/8q8g+bnv9W/czmfhRjpg39+92wJQ/Wm4k437c/GfzEFQqD0SLXeZKsK0/3/v+yWCyALELmfY5wndHC6U8GUWu57n9oc5aNq1g04qMK7oxLwNNg/7K/V0GWKXk9zjFGOLDHL7393lOOPzDg5yz0tI1KXAv3Lb/ayfcliYwV5+zjc8z23+5adKbjRT4Nb/uflKBwXszTBmgQOmndtkr3ss0X2YpqPmuc2/XT/h4DB9WL/VX/SNz5qEHgnBFZvtLJPELZM6O2evCGDNk0kmNQCXt91Ygas7cx/avMKL9Jhw2VZ+RHicloi4mLfmc/iqpdrnqbIFcMuXsm1dq25Yq1p6nWauPVuyrb5zaGrS9ObYvUELeQDEiGTHAWfYQDw60VYn+t/5D62gkA9QcbPiws6mNAVqqXaP8rXtmmlXb/dRO4/Qsd+hiyBgcZ3vNeUxftoazrFNbU3KtnQXvUa3Qm+XL6TNrvbUnYfFcCck5glSsupxft7aLnKSIgfMYlIv37sjfe38T/39PDiyTDfTbWH+I96GjBzbVokWjcJdYPZlHLvVf0jCkITUxChc/ZCeA1VBXh4DIrC+LHl4MuzqQdA7qNKXfI3TF6CSEolaUQ5a9PAsAoEjzNzTOleU7v2BCBRedzpQGIn4Q1jID6wEcn1LWoDpZAqlJCJi65EDOOrGRKEAHgFeN28npdOEaQKDBtajDxKC0zEKCBdKbbACOFwHhek6RDuCAt4B5pA3OcuTVgMgO12Y0IkncJFBaoUJg0LbYFJs0NaNTDOZLwu3D4dAQc1w4OEBKZLnhS0zSwP4ypfHuMQFz5lJILVPmYaPuy4yYndoN+UeQl1gbsSxBTkbuqF1PUruwnkS6wCx3g+4Y2L81DXTaiDv3m0B0OiSPBAzIGaGhAbMPL5ExVryEYNmSn/J/lMqg8my2jyFg2cgcv4DCDp3pJbevdsCEFbfOzCe24qfvKhZnydTXyAnM4zL++2KMLw2t+khMyiR0fi8lZpwQmkAjlwA9FBNU2oe/owKTd/SIQtka0bTQsMvyLCUx6UldSsxo+m+MwThQFupStpX68VZJo1dJpKoSdjxcbqZXaACDrAhMeJsRFeoEEwoS2Sg3mHgYSNAzAQAAIlhfrkgLmWaWr5L5gYr55O0+9QWaQUnM8nSQ+ac64DH/3fzH8634wahiYlKAqHVe2Yf5SOPc0IVBNSGYJlOqUs1aOIMGcT5tW/VAQyLYVNBzwln3yHNRNXewEXm3M30G5h5M4ses9/UPGUiCqVknvI4gdUaOKwKM0mEF4BEwFjTM3bOOSL3HG4y1H2LDAG2X8wTSIgd+Hk1e5FAMgdlbVe1cp/BINvPZaG9O+POMpRM6vuioZGw1F/Pz7jSkzIxQ56JyBIcqwZ3MYJQBpUyIRMgXXk2MVCH+mKeqlIRjBRpJ7xSJalRMIxzbLbInmJoJNbO2KQbUXpGEiGa7WpNVTAB2fABoJXBrA7aMOig3SqE0R2mLp43ZarXFExBLi0rhZ7BG4wDcC/fPSnZcDRpmh/Vwl7317OXZaidbnmKtuCNDhw0m7se0BkWDAwsaO0N3jRiEm6fSXHST2JdIDfVuVyvnV2007tKsp28e7cF5OwtPrYAxmncdM+0CsC1yFC2wM5NTsenDYaPe6PfvdsCGJR6ovX8vy5d7o0SbkZ7cZcpwdgMoQgwKavU/JZihSqUWLwtNaHM2L5v8CCws0zELZO6vO84eN8d2NUKqdW3YcbF4iB4gYRAktwDEAY5geLIS9QoJl0XKWd6I70GHq2uCuOiIDP5EDGTZoTjHxG7aFRwyUBjs2nOLgvvVJ0hXyCkHzFv51nelsCT+f/jWZCM67FJzjnDrj4tMeqJM1UXZkwEnspe0nOsagGalrzjqQqTWBVuERQdlWBG18eB6bhAWekEfUYkaSU0vHE6KRPAjOn2MQef7dYbyBNIX9QwKbGKKgEUJNjP5tgm2/PZi9F62iJldsxuqmfV8hxGLHBuRCK/MpiYOmYaDxCCC40QoxkEiMJUQR1L1kKyFAgPHu3g0SJks8pyg3XCRA4kYs+R5wUNhmDKpVYMGLFceHUbrROy4qYCoswgJ6xAVFpZfeCVMvJCAl28lclV8sl6NUemubdNoJrGInji4QBLFEAlTobMfcyhyibIHOdICU/RgUNmWEWkmnUeQeryez5IoruZQirq1pk8iTMwYckJTthV29Ppot5v042Ty2meW8mX3fCig2kkq7X42AIejc8FgQpxzURJ8ipLKZuwE2Di+K7ZcWMKweUCchBUJWJtcAxSXblQOOgk0LO/d/jpi5p1YdxlyiFk95o7kENmtoisYCd2gyBDzdtW0ywUIu39sqn321mmELNMCojxTnGeCJl5dwlL8wzCjqK4Ap6kiIoa4iHyAqCeyxxCz0eyJ0IGO20ySCyTE1E+MWAwlUEguesTEGNQj62uUKH0FWID+QC29JgKLI961FQGox7oyjwj3chL0Yy0qPKwYcfcWuoQPuL42hKrRYgqM9JJmkx7NGReNK4vp8Kr4sR6ViLDCR27FxyCRpeSESOTsqorxbGGIc+oMuvVmp7wQ6sU1Glh+PMpjAeidFxZ7lRVpU0BxZa0vg5aewarESnHb2p8xm1Y+bT8km096wj/dG4GTaRhu+knpgxECIJe/G1WoQIG7yxZyXfcQXZgKYRENpEGWKCQE8NpXTp5mLg6RCoSUMd3DXmZpJCQV6AxvAIK/YZMOieHS90fx3SKOo0zDCrFN2VCvaooMG7yJC9preAKWlQAQzUgqytGRFhgV6giVlMV9ibSavaB2eJ49iqg2GbMKuh+LbbKdfoxmCVCsCCvF4BNPu2N9SF/9DeYtedGCsVHY2iTUAeJOUrHiQRDOTk5YoHEMGFjsLAy4QwsBkq2zFmNs3BIggTKnCiGFncJ66oPoNsCgG5qCXgu/oyb1s7rYO524C5TSkTKJCXFWCV2CEcTTmwkAAhmJdpSEw4ZdI9Nl2o7y6Sxy/TRGYwFmGeBaUaMGDxQWlKGJAmwsXL+mGcBI6aCZJ6IBzqT0R4v9uFpJ6WJqxcmwOPEJeNWlbUVT+dMjDYpDYbK9YCY0KYCO0hFOQU8qx2LhTxVbMH3+1Zg0tdM5xEjpvMsGTcpstSgqwSxlHTYqEqTkrN4s57O3fGmrop+s+A98mJ/5Jy2u8uBWCH5vAykTFzbir5g9kMtrFLlggqesiwlc7Mn1G+WJWdD44ETXlu78MTkNt/wu1tfreTntM4psyKZrI0UVGxd3z+rLbPfIrQzFGktoMBZlij3OwaVSHm63BgkF4rqpYINYE/J7KIRgCgaiqvbWg4bkbqjKyE9cmUYftRDNiEg5p1LEqVzF1fXR6zjBGhggYalmSNRQWscpcco9A7dTp+k16QnG5O4G4WY7J4thqOAaVOi9X450Ebo6a46ESm4ScPgNahMC10N4MzeNKbTC6yCzW4yKTTZYJnbBHn0tnNxvcDUGof1LAjX70zrI7VEdtLJzkQOCe0OW2lenVjUVIEEBkB1+8/vdJRJRXLTXcKqSbPCcibJzrUI9mn2RLDaCk+7Cqy4pulQgUURcHXKLhZVqOfi358LO+uU+mLV5S4TmKnTDNnAWisSG0yLCk1+lxPMapLqFtm5LTVFOCfZh+LHLjoVL9PlIcekVGz39Jrv8rLlfsG4ImaIq8AzJV2GCK4OsCGZ1L5nISopbY9SynIuYAhDQQgYtAYI/EyuzpER++LBeodzV1mBS6/Yb5pCEUcDzbFlE2N8K6SyZXsCl7sxuZ5TKp+BRX2RNUmMqG4kNo9Rq57AMaQwwBCnGoCH/XBK3JnXlVWcT8cgEr8hPmJO47vlBePLIOTVCfONVXHrm41nNbhYwFClyI5GPz8nET2pYSLzoMvOTV4QmSHBkjhYta4b3RTIEwA+IN875EXIzwwqTruglnwYxixmGrYBSJADagxXEo+cFUQkrSeUf1upmANwk+cUe45GBwY6q9x3uU+ClZRYBKyod/oMOS52QLiSyUbU7U6hTaIr7hwn7A10h5kD5gBEG+xtuMMNBAabZ0V2zSmANGEMDyIipTzAVfU56Fg90rBd6B5iTOC40SSaFpMqgWkVHKqhh4+Bc+8LJ22NBRAlsA94OBc3G5NtPIkFy3o/IKsD9ktpn7xmWiXMu3dbAMw1QcBmyM7G8g3HZeFC3My5xlIY55KtZAfDczIieUE7pHXlvHu3BQC+h1Pp5+KTRMbpRnkoYuIuU4rCRmaGmrIRW9ZksVLTpBxcY1G0raba8aMznctqcD5ylklil+l+ap3m4zxKTH3SuqYIbMiTAVYok0HgKfCoJOIyLmqSG8qLtJdoMUxFqDAsxVNly+OdTnEKvqG6KI0EfPxvFrkwU2gyQ/CI90UslUZkXP6mSQxwU/kSEZPIc1LcJISh/SJCyJE2S4OPRClBcqwpfwy1VeA8YhbbIxITtS4hQ/+0Oyh3WPnJaN//Be1a0x9QffePgXUY18f7GPGc2zhif52CWOU7IqdCpiNIVMTCq9Z/2ndhTQ49MpiprVbJhCfNBz9P3ATz58/YbbN6TIcAjV4p9sxI1T5bImgM4qYlCQGmwl7LaGG74OdRkJJAPBWWipA0D/XH+uXFi/sxJ0F2JL9OkRcQFInOtgm6wS4s5PLBARN0pkkjQnlOpVvCPn5jJAqhKoG70YMg6MrqlFnVCDvOGRqqGAcZAVCExQoBmnL0mpARgGZbMKZDdIpwKxsT1WkgI2Yc8QhIde5cPOr3B8vS1B6ikFgh3a6jy0dcKr+tX33WxtRKILeLrFR8sV4q9e7dFmAemYxJlaHWil3CCpOSVFgtsnHLu4T1w/4Aui2Axa4SkufCZLHs3lWLBXeZODNzRiKLEHH1SGIVEwXTw0OT3UVfxNnn3ov3984yEbdMKnBou1joOKcPL7nzLpG6YFEFZd+UaOnvJd5LRJwwETdt0DEFKmB+EluSuFTeDpDHEfNVzIQq50+1xGFkPU5IQRPLehSUyyyacmIaJUBjc2kNIgAF0BNTTlzS1bTOuc28rfNIEyL2xdGYUSbqH8vKRAzA5YEt7h/41Gmz25U9uckEN9bVwfkHqKbkXkCvR/2Q9NA5p6yZThjaq8r2y9okpzR7IAyfBXjgKATxW3B0b6GqjhH4HvJlXasCVKf19WVHGaJ5AaS9Mj+L4YJZ/sgCE9gpIagZXJwrABEEQcSEvTpB2ZYMV2kcYERy4d6DifuiDkIzxKws0ma3A4Bj5JF923IaFVmIgCTMXFIIT09Ao9Wj2AsZEi+W2UKTRzT0gmudN2UCVSZRCzzs+DX7wB/hnGB1MjpoVKgTnbFrizmIbHRwQmchMRCh1AibHMYdq/O40IAiUicw7E67ZC5lnXj09NrvMdtzdOrVIdhrO6GGL6o8fZWw3vXu3RZQgwgzRShbhhNlUgabqZHUyRjq8IqzdkAy1ORlUqEw8vkAui0AVV503/+WfOaG5RdR8R5/iOtlLr2g6VEm9+jQNVmzBIsOl8wEEbaM2sNBU9hbp6BeJLzWx51lEkuZfAfFb0oAzprvd63g9s4+HbQE6zzbSYzPLw05wjfoYlgmVdw9YuS6/DYdxqgVxiRVMAoLCITAhqR/06k3kLTynDMNjhc3CHkimQoJIIB64gyNNKXqKfDKlZ3vlzTlYAQmkAi8ukfELpu2FHGGJjxiWCfGem7causRygo73CqWRQ1qhXHlvvKxn+cf4KrjyZ4QKuvczcj2quLPf+NvaJjpt1f2iEN4vXgza2EtDlTDcTm84Je0afC3dTOVZ9x6Z+TwcTGBTgwyA+XLmdUDkmyKOwdlatfVkCEkDyaBORFpPZO/ZQRTJRDRWtQQmMsRiVUz7Q0qWVtKPlaYAMsUdsYNvWxNY8xRBIJJRBTtKoD5eI9xNyrnBdUs9YBhhbAVdJeVuCmVAHmmWzJ9yVCRRLdy6FgooKajlzEpq2iuToDagjxbM7By0nh/JjTow8BDEUADMHU6NxxsGoGPgRZpkUY0RQVpRIVTNae9NVC3qR6X1IJPulJ8EgsbPMKp5SNt6yD+YtqRzhq5ds5goAlmSIJzDlWMuzeIVDeEWnhsAZycTJEymK10S5pYCzKAFYkyj9ceHE+UKb17twUE78mrjj5R53kgv5jtRqbIFZ/XtEeZSmHmHE3Nogap1ERePLw04SPfPXzZPTjBR3SWKTfLNO/Vcs86rULecJ0cpFalQARL5GsRBB4xoKlQZalWiYmCmEwRFxeHhPkhbVDZ3E/mk0GhHgfZJavBhM5jBCtnBTYBbCzUW9S2EJnMyZUpcCST2Woe2jL9iGUzEsggUc/PuTCKWLWICCZaVh2vp4JHceMyKtIYWqxAZkZVVo4Z9SITPkz9wYjkG3E1fJG8dh86QRC+Dih7te8FJe6esRtfoESEyEqsm+92jlVAxch44qATse0rG/153T1nE7cg+aORM997OKmvoL6h0uSa4HZnb8+lHsadc4DZ/gpjofTxfBpnI0HNND5r5Modz0QikYl6DfHeucQAhEZbuEETVxCiH25lV1VAAsUwPAesarTiVgkpqmfNxll9qkI2SZkusBpXErlo2jmFPbbuCTPoSQV2YS8G9NSW6+HAwUuvXqqmYOtLwVSsOZXVInHcAM9Mn1NiOVUsjprTF4vwBOU59pgNTiZpIw0jhTnpEMkqNDmuIsz7xkBBpVnAp0yAT7+GsDwU1Q7s2xOKv0LCB3+VsKZWPLaAqq4BkODUaUFcvSoBYiVrZpwap1clzJ7r3bstIHig+vE+n5waTT4Ln5kILwE+U1kfBe/dZXI3lyTOarCISk1SYzpd08NFk/i66hXGezB6z4ezTMEs08J3J17iPJa9biJAgQZgrxhu9+USJhcQ5VMOVvr7uSUENuSFkHgCTEmayscVBDVIsjJby1lY6PFiRyBogRciQpqrrDNuXMS1O/qSQ4gNdBiKoUAaRRBYVU7GYeKFWAYM5dwyx9ymzEGgxtAUdmIlbSFQVc+jFxmXk4A4csyLvEjEMGqz2BTdNdTuWZqy8/Yf4WqT9Y9Qd0/p8gkk5OtZBSJ5ydzIfrUf/JIAlXolNVREhHJaPMiwr+ZfDUUZ+n7+uB19EPgZTglak4XzUC9i+1fn7qNvlEVMi3IwUwY4NAVMcCpUF+SaJxuzoEATLLaHgdpm6yv8ptR39tKQfWiYhDudNjqVnh5oEMa22qFpoCdgY5YXFSFeftnsBiYFRkPzjBm0UyFjdpGBKZCiK2lUOkvAyttkaoM5p+UxZg7QC8finrLZZrqVs8uPHpM5j2sIdVFB0qW4T8PlIrITdjlltOgADbcX0jQrGSd6qSQECeeY/uyg+JYJ5Z1me2ifo7b3+eL5fstVwtqXYEZgIT3o6sN2AIU0ylyNwVmiKWUYZUhNkoZo2Qph8XoSZk4QY3eCW3Jw3X04OWVBp1lskxQj6mSoygwtcrfvh5+S135Ojnk+NS8opLp6ZRsfucvEyTRDTIg1a6RSvVKTa/Fw0SS8+z5ATvesvBxnmTDL1P2Rdi4+72HDohlbTKuX1yRwodse5zUq1/WI0wapa9INiNkCdBAilS3um2IcgrjyhkITKc5NufXYMY0QUgyTUWZkpbaY4/EJuTHjcjIXJMb49pXwPAd5aSxivCYQ4EJGekyYlDYxnsKWIi41IZlPJGPJQFjYCUUYt5VBGhQu4os8e41JP2ox+SelH5/+z7Qaow+o7YcFUbwYX3DCfmb3frVOYJb3LJI71XBcBFNXJ5AoKwLRyxq8VBYU+hwiNZKR3qwtrBKeoUQkBrCaTr0KS8YT3lzxxdm537qyu/cHhagWFSkHIK8gEpmJ/JolyueMbVkTKEzamVkb0ljapIMEwJx9gssVz2pEgGacIoaAOo6dgDHL4WoGOrcylXqa07iHBhqQLuigy6Xr0XWPKHCLIhlW3CqSl4yKpR5JHBcFH2J6L7VeYAwi1uIZu2tKKDNFTjclduxoVEbOcZwXL1uJrbsM9OMUCDYU4pS6K0hlgZPy3DbDtsGedCp78jW2y3x6e+wIUS03+4IU04CDFpkxgZQ5hHpuBFwSGMKIAUvXNrEdI1bRJbZB1SDlhiyyXLbgcC9x7pm0716593uf18K6lSzbkCETCkqPBHFbSWgIAAssKUHJcjFzgoMXmQ50Uqt+YHmExn6/+CNbYEOTk37H18RNNB0zxUFzzACqYi0Ogyx9kTl/ID6mjzSBiFKssYm0xpCfiExoByu0VaKQBIJSAnLZLUVBAWVPVnDEUAxK2M5OrA2g9FtrCwGj27TcxDJyq5gecu8lHw+pT68vI+c+NQDthJddXPb/9f+SY3d6eZ54Z5We30F2JzgDMocatq2CP22toN5FrOx/ygv90fdaK+5NMKEZw+8dlI0Yp5sgkLfFLQCnM1/pA2SCw+dreSaELKQkQ0JGMTVTBJ1NHYuSoqpcaD1xOgmZtiUEknzSXQcyBDAtKyJKa/GHyNKsAwjDoGXxCEABovQL225BqSRguzkiIgGmUCYEUZDPeaaVAJDpojevX9dfu+bP3u8390jWUnqI0jz0k/HRKuolDOyGpCrqgj9U+w2ZVOtWJrSPyyLQx11yaawbmbjwMgRAJdjTuj6kGuSdwuuNTLl/1DhdgUQuClVYfSMTV8ACxDIDT0qjwCz3CdbhRL1rjJLpLwtfDFkuNKrjQ2shQgCYVQ2zAFLEYVcrTExW30k/vhpXo+4zBVkgVk4epQZAmBjztYf9eqekZv/84CYZuuYwFLaJyExgks1RF2tQWl0tozIcZRNMirTE11N0Gu81FKnroA8IualiM4Eg6pqdWHdPC97WlftifMLqgH0OLkSO0Ad9MdzAqj0xguiQOGbNWcEYf4FJFo+uSmuuMBkHPOgE89MGxmKAGYUa0spD09iLTDKdBZTWmmG08BG67QBpgkGbOENOGDkao55Kk3Juo6jdkoLAl3NJa7Wlpdi4U8IQJB4KogJbZdhg6X3UYk7Cq8s/ZeZiaW3fnBzsfIWyQ/sBiHD/vHHc+RQaWhSeNcqmyTK01GLSSM/r2yHcR2sbKssNe7Tgssk+vHAfwijkzOm02a4rJEK1AsDi4ley01xnC0naB2rDwB+1+by2NDsfufMtm5pVxCIJiM47px8hicq7udMGN0Fx+g3XctnEfJakXV3WAJBCmUQyQU6ZAACEABiFvXZQAEoTajX6j0JWiH53PoLANpnTMiE2MxI0ExA4IgjgbAtyPX81Lr6iuWG96Y97lT94DEcyPGJNvcWfHNjDGkFEjs4EdjYxRB1cupWJtKpcdgPFmBBXAS1tPC0TZr9NpjTPGzJxjotYkkFt8CyQmAp5gL6Rqe9w21ER7QJ5rAUgznZiGYBWTkfXIUElAeJLJ2t9SMAChoeUIZ9BcGSwI4QrkGwVryrGiJxJsjmFAaW8KgTeayD37PQxzcXUgpbp4WE9sHSbFKc85si7NqiKCddzXsNCZRPHYI7DkBhoe0VhaFl3rxA5wIpZSfmmfaeRAGRZ7shMLWnqjKFQfddriko/o9sCOqXOvcMCZzCE/8dD73kMcHq01twMYwJwSI6xR0gFXImDmFDH1xQqNS0xPOgWjzw9Wes8LbdC+88pXoGHiGmKNcH1EqvWNd75a+uhY7cZNg0DkVSrNEWYln0xChA8KftUB7TGLy8NlkHAU2cBx1I2DXu7tRD8SQlAgggETo5CQmfLHLVpDRklABwXq5wXxvkd7/53Slqz21JpJfgdr800CDA8DCH5G8kcpUmek+/gj56jWlXMXt/77eflfv+ifFs0+pa5Sy8sjrFVU7EpagANCkBMxwOyCw6iabseeLUlQCQXUvRnPS1AQE4vKAJCr5aYyle3/AKYna80vEpCwBC2TtRJQBgJNwq0CCJjXq9QJ1stJAuOmK1VTuYu3fVB8p5bPoO2lq/6VW8u39nn2rWfHtj+s7lOdRHADoSYigpNaB02MjxA4EA5TaIRpClKVzZWlFCQhyVmCn3PVOSVLsGoLNezZDKC03UtUB1c27V2DcJBxbxZLn0yjhyEgAN0KcDgJEP4dgyhGHdyE74w3i6CczPzDTobDEN4T7uqXr3PYtmJ25XsGzmVRKsZ8VQBDXd50fG4M4HOZkYTsmD7uVWulk2dj52iOmNSKhM0wspkoNbW58jT57hRpOeuhJe2mSWojDPpcslz0B0juwYDqcsaB4GrKGZ4WAtlV5fQ5qGzM4o9VSmvcjGGiPezgWrKFm32JFN0/r3W/U9z6UeNBQ44wrwc1XoOFb9nSq3ja0KlplnTTJb496rCaM3gV130AL33WOLYmNxojwNwNlrHzYGBKNodLxTTqaHUO97tFDfxTIfcaz7eMRsblcH1EXYVJVgQlPWSDw6LcpcMRMQ+DMIAR6rFCvzozamUTXzOrbY9pTJ9PYRiBc9JKRG+yew9pKl/o92gZBqmsF2mGmmjaffhM3wx+JY1oLWu0ybiZEVQWPfdfdGuzf33StgH5myaAdnZBqQDoBcYUSojxYQMAKYyXzHVmhXtdK0XQYwiZsJDXGaFqh9staLKSMQCpAugazICII0qG/tTsnw0jWHTsQIKCdAfJr4wid92h0AZCPKKJWCxC6dfbQhgHIog5TNq/9iG/3j1H+3vursZvNbop/Ws/ni3LWEESRliEpA8gzhPyoSWfR/FI8UAIzihXCxeSk3XrUxVfLtMZMGw3pBpXiaodF93zgHnuiFx+AiYk5DiwgETrgA54lJHyOiAKydmNMeFdaMGrbq3zVNjoFWdMhAMpJtnI0iaYY4be3Z6XrrPdF5uInTVoqCLpDKluax33eCj5gBRmo7B2vJ122MAOGEbw3H1Y6dl6KaCnGsmlkM2VI8rXTpNo8LWdjiBNCHAAtjCeT1yCoMcDr4izKwQqT7AACD3VG5CbMfV3GamRPYbK1koqunTLoFAZGLmslR10hKPXZ1a9RZ+9Nc7QmDSf5lnQr2AGpUe2Kjja0oVmpYZTphnNrA6SeveenecIrLk9xVPrthMFnF8rbeSqdFxEUs08a32/mGIxgpKYb7f/L7d/NtIOB9gWfoXALdagMJDbV4itwLstIhsl0YyfslIgpsGGnawfwdEAIEQCZJ2ztn7GlwKAtrgOcBW6ZTG47utna3jpX9SHwW4jLZjJ2208zoFSe58UtcWrnG1KlFBo529XiZ+jX/zDwJIRQODEtEiANmYY3cJpADMYkYrBgAhKJPTKgIkAIzOu03LpMd2GmFYWVhskhZA5o2Ehcr/E68MgF6RzHccRCYyExiYTAiaeeXKOvU6VhOJqXkKCMokAE6EIOB6ws3Zp5ZH/LTH3K3CN1cbufjTV/5kzXfaGk1YeUImNM8bMpl1I5Mfd4Y8GuKcL45z5m0yzYsugDhik5Z4CE7EO32tHddaCib7TZlsIkBy0FaoOTO7U0TImLjffKrUzqSPOn2jFwrd91jtwAjmwLJqKGoQnpsl5oJuplkVg/hSOBv3ibCGL8TR8h3A9aGK8H69jqedATR7SRkUUBq63hEblaefMjsvheCia4KYUex+P6mTjm3jJRQ6Kz5gjPTGOipeDCgJgCcHauGSvZM06MMyDrMksWXsxY5EptpdCMTkgiougy6xsJzrOj+f01eX0poB+PRHjgf+/dnnECqU2URXAppyhaZ5OU5p5f6CArNe49eXm6Ljj5AVbNMi39BoDxJX5VFSSVl/3yo2fGhARHhopYkWy0ZQaDlPI6JteDLP6KLi8ThYLMo8A2AVUPIcGnAluE3KbU8NIQg4Zcy2+J3wCPJrEQbpe8M+SvByTx/5aaj9oAVsPKcxstL9e1uwAduujBfyozGVgwc2IHq1KquCSSTz/7/S2GDPpRY73QLIUPJuOMNcJsWjzoCUBsprRZC3R7uHAnknyUf7j0NAA6Mzu+k9Ns0Zx7bnwU2QhBApQ8UbMhZMRW9ITTZtNvlCzqKVmQgayayjwXRsUhsGiJj6tfFMbc8YMWktxVGe6aZoQWITuLlm+fp/7+F/3ir2eeXKzNrV+sm9u737znCW5E4uVGUPKmNyIxOn2HiZgC5afW8Ak3INHYmsp2WK1o1MHmnTx04XD5bUDVg1m7qfpkofdm8qFN3rfisTiAP0zhCTE8WYsz0i6AS6r4f3nWzdNANJTBuVsjNQMjxuliPn3sYehDefFFG8zr5YeZycXvowjxoXde9BGznbGQs4R7f76OObvaRcDTyAZcOCAzYZxepC2y4qyHXPJpEBlWAj4s3sjB/W5ApK9eqXuKFAphk1LYS4g33QYNx3BDFqAPoQYd7jWpU4okHqOd0WoM6eYXAPx85qWqzyrVcjte4tEY9/zPd/9CPm3FCZPSFl7via8sM0LVGcb1otW6kJqt97e7++/JC9/hjOiTgWiQoBZW2GlBgJbSqjVGKJH13ye06AxpIOSnldnlzuWaswCBJpZhQegTY7BGPCsqd7AbdxElrGapTgtDPSwPVLFoo/Gl530zJVQBHtddMjpghkA5O0w/hJwiibqv0+HpZ7CDJe0dZxsLUV+ycbwi8uWWrQMtesaKiCVfcQdqC8Ssf80EzMIixiagWAtoexpxAQSIDFzo42CrzNDoITBfOtqrearFAW7DJllgHJne9sGjBwZkyHUCP5rYRQCxGUx/xwxXYuMQVy3gFSRa7O5gxhy2QC3oLhvOJJGAc+ikLQovxe7IGkmhgo5OVzV/+lfUdm/QrFrvwV7rQj+w9aqQk5sWROnpIpWi7sJmyKO9eUpAnt8Lg6L0DfyNSst8qkVbxfvekjGxVOgEMjEy00A6NTPcmbMmWqXdAw0HVXO1EgdiLDqGK92kE6EHmKXTWkjIQGmNuPCjGYibnVrNDRBIlzQNBTZrbS8io1UIxmHpNgNnBKlZobAlxtaJ99myJMJCXpyhqYUcZYQOkaHqPUjHJ6NjrG8ehDrxA3mnTjMEiTKnJ0GC9VeNite8zEI4V7jfLiJmJVrxoWJMjULMlSyBSx7gwh+/8tlMRaeVSA4r/3qInA+GkWXPaPaQRAhJqsHDQ1srzXlKi1mpizV7u9X+84ur5/hxegBj3svEw6Ye6/Zg4Wljv3qJlzVybbdTtnIZKyp5cz+VZLbwIHSz8knwdrG1ZvlRQfJNCkjZv62HKT0qNk2LVqILDZhopaxtgF1067b5Wq8DCwsi8ZPlU3CcSavssg+BTX3mcH3mD/cnISVpt7zNWZGe48W20JBRVMI/39/vLN6+5rdSTDhZCBaIwgMAUNKKQhVZmSxpwlAJGMlfI7RSDoLfhObxikfuuqFTtmdaMdTT0ccCpDStcBQHGiwCqWDblJAajFzhAYdVptQAkSUSjaqeRTQMiAmJpJNymrqjvtXnXhRBVPICUNGYm2b+5/Njvd9C2Uun69sZi3fzljltMqTbWXai3dyNRzql0hztg77WoxDe97TcO9qwHGpsqh1aeW79FqMKwbmex+D5IQCw+cdagHzlmdoM5gFFrlEQG6kN4xKcq9M2HXNjVIpgTSKrKxEczR1eEBHd0vONfZmKQZyeLaunS6xGMvl7ySgsBaKnfOlSPCfM55uKurzf84PQdutP1umLVdF34b/qMuCRY7qDjKM2VfTLWUjlVIdwC4WgHD0UEzpycIjuUIa2cAMOy9VIyBojASyc69+lxzE9h7XjcW581uCyhN13nxuDRok2UcPdvoimnW6mMCFKke/5g3nljxmIssr+FMktHxNYksJ+mZsBuFmQnQ2oNYVA/C7b1Zl0W6bbGky7KuO1wSYuemZYqA8+mhYQClVB4czSAgrIwu2e9objK2UsZ1ULKf2NpyPfIbaPE4KCdAAG4zPCpu1p0w7+u7vI09obeCe+H1hy8R7HROCXBhaOVwQcnTt6GhdleM2X461z0pw2lz+Eap9raL0j6GhIOF9RVmASGgosHK0Iv901/u2HBfv3d6yEERsiKYKwBEpWG0Kbgh87DdAcDpYmup5QGJNKI41DAEZhukMRVw2hB4/myiRGIQrYmSbp/SOlE7Dkn5W8eTSq7tBIDrI0Oq80jcDZsNKEBGKU+BHwUfvrlfmcR4nBr1b8tngBqVBIlY8l58/oGFr5W1WqWqb5nCI7/eeMx77MgBAyJTSBWamBXMSY3PYhgoGec0tpaaZx1OhEkhAeJVUjmrc7Ln2sfuHCBzIxMdBKwbmfR4D5olg/P+XEC/QNN1IxMn1ahMoZUwZRIOig5kSl4K4ATHDFFYJ+wAoWPi7gZxWk6MlyvwMakJVGI/8KJ2nLmDJees2WxAqNUV7iVLZUwizY0asHBsO6Xz8lnORf92e6zx/zahlLrPrleozxyxjT6ZRLCEq7cr+yPv40l4zpiE7MOpmEGUVYFZiLtqvZktjNK5iZKpTiMyQxFiohVUnAYHvXsdkLLIDLR6AA97MxN41HTE1GkXPmI5DxLljq/p6/Rc4YAeQ+YVkARWovpq/u19evcB+h+ADEgFM5iZoPHSujzz0sAAc51DJFUU+36rlQtkbe7CLXugU054F8xPvKDgSTO/wsdloEEbEGcJp93SxNAoWvl6V/6598E6ic0VqUatLt4BuGAUeh8Ez6nNtG44bXvhfW1TY9GwG53Sm80694L2XPdwUoFnjxpfvKICQ0mgTglvQvOc7/eXu5u82Wx7v7nuCIVxGMwVwXrBqf3v5yUi4FQSBUzCoxUEJ73gqr0gQa9SAKZ26YXq6Fk8ZEBIodF2oJkyT2kNQBolZU6RYcpuNQgCgAKNTgKgEJhFAWMKmpO5gtKLE1AIokXzOrDVg6YzKW4IaLdamvvOdX8oJ/NfSTLr6Y984zfep9s9R7OAg70MJOphVwJ33crULNdwD4vpg9mnx+cmBDbvx/3hvEUmvtfimzKN6+0ycR0mUxvpxY/eX8H2Cg6oS2Kuw/vgbjNQJrA3IVtk1HSlyRTuHNA3Hy/stpwGqhNXF51kk0RX0HFkHlIYhdzw4kt1n2bxof54fxo+RO9PGVgnz7diJAK0MMbbxpg9CfvcJy9z7eRBDEPW03uMbn02RO3msB/uZ01HJTXhZtsHITd76SvgtXAyRu0LuDZ3j6gw7ARMAS6ERKmNN1rnbFvqpZLbQpmHGb8ske+7OTnoSozCJ6l8gvZJqfETCz5tbq+zNgNpT65lXtFl7cbTZwMzgRnAvzez5PwlFpdo5Omussy0I2t6hwbSLh4aQ/Zqc1Ana7k4uXBdkTMkQInsNQegH3y/7ywDuiwZgkxqLvD/Ip1aCklpanf/KCGN/TJfQDsTh/EVsxZaZQdMrXMfG/voqDt9Eig2D2F4bHgqbnOfAW1a9mbgD25Ee7+BIbTCTbc0sxucS7BTAjiCtuT6lEJa8pTjfOjOJDw3dklgw8osKWYUyUQ1MXpx5mdf+/mKJ/vMSJ5y282PZs65n/DDewl7lvxd5joHbdRGmqofIDEDs9h+sqkdDAMUJGYybYytsOkUAYKYihXMW5t0kLPUC0AYgZGcbcH8CiPwBVGEFSCr0fP6LDhakvoaY77lCQkKh60GSaNlOGwLSuTZVhUarYRJIaNg0v3fmlFZIbq81vOP/2ijyDVOrvrQM/qjHjOJ9gEDHjyQ+Q60QhM3itXcb8iEZhTDRQStox4ZfQ8Rc5vqO2XMkzKNz+mOzkdibmWqLGWY2WhgWNw0q/pWJtW09/W+PEjbL+2TmimcVRZGSYw6ZqNxfEJ3MEIsReuQfbBECOJsgQDj0mP25mSVQiSxfNpkgNrrwplgY+6d88lD39hb3/LLDs6GFi4qx2z3AVoHdnhEF1YNAAYDQ3HX72T9Ha73lsO/QJ+nz2K/1+NjZ/QH1gTnFX5D1dWnnHLK6WVJHV7TmpMft6bQFdWkhFV9zTJvumZVVqg/52fJ87//4qs7GBOecrCo5mUOFE596m84oOHss10+ZL90WD4aqngjdVdj3qnmPek3rFcZAgiETu30rpuEs45oFIXCbYqS9CyiGCgZ/TXIrBC8hZwZRCFC0l3UBMpb8KfV+OyVQYTCjg/IytRsPurN0K2y8juhmYwTYIWomDJBbwBmxJ8PRvSa1M81Hf681mR65NhEO48XviwGOh+maRbG4e0Zn3JyNLO9LGLogsvszQmVvhOi20GV+k2ZoE59cSCApA5uZMLxmzKp1ioUTr+erQeSbA7owoisbhxXu3ClnpQpFphWkJw27GyQZa99uFZpq1HXWcc77fIA+8r77lWUde9GeXisqK1Uu9iRjyf7qkLiFtnZdJ/juKWmrGJ/kYlPCPJpbV9Txdfzxzfwu7/0NF8G9VZcsC+2/c4JZMAG4f7gRb0fMAgYAqwDrAeMAD4vNwqw53qcWgvKbbDqfkrVsrNaJpEOr6lWz77imkAIq+rc5z53VXVWnTaDVNdff/+uMjzlA5XSqYsdLPznQcLFLjOTquNinhBRZ1uOPu03jTVi5somVF19/PHHn7K6msjsneLPQJQ9j69k03+naMW4DbqX2VOAep1gy/WTT/igw4B1gc/bsHvqueLDbXBgCFEiEUPHfk9zDqoMtMkHrKxlqdNukGieayjlqSRFn9m+/TLbm83jaiNmzLIjthy9ZbKdS+wySaWmMqV3ig/QXwmvr8+zaS80DJ0Cmr5HR/VVpw4APq/PNU1nbstnV2HW4U/yysptNUkB4rTemwARCeSpKEyVSptpUyk57g5AWVbOsnYuAhX4JKWYksg71R9waPes1c+y6Ub4bw31Clgl/1VWET6vA+A2ftB7HX08XB5M3+lMbxIhISI6Lo8/zIwoUqkjIBGRd5q/D5C2/TybAtQNdUsAgC7Jqk+X/Ym3V5VIiRRFt/LZHCKVLtM2QNummDbK9ho7tBcAlHDJRBiRfgrQimoAV0gAAOicbIQ6wPlRDU4OysiOUKfDLN9mhsqBQiPU6VqWn0W1LEe/hBHqdDZ4wRVVIytH08AIdQYWvKQXVWWbAABAGxuhzq9I+8XHsLDxcGX05gj17/owN97utA2tIzBFGAAsFDeUI9B5H3ePEu9ss5jYQmqPDDCIM0VGoF8+bPEfvcPNonCb4STAfIlzREaU837u95nhpfcKm4/WgY2nAIAZk44TveQI8U+8t/u9cqDHXmrsVn50vWEAsFjiVHnufgT4kWD2Hu/38ADv/hi3C2HrqU2ZAgB68oZix43+3CIJSyT+R2dx0z0xpJo7lIWap72rI6YGGRvMnYtyONfVWhsZ/Y+6TWJdqcFBoxkL8KSJOC+Prl+tfGaRSVipPs2za5uHiUMj4qKRIgaNitPzBm20C+/vpCJXVtOymEcsU2P7v0pHW7Q6jQFWZkDtzulhPI6yXJxGso25c56O+NbzTL25KR2rmyew48oNq71IY+1YTSJumjND7c57xiuiLLQlRvKhtT67Lty5u9DL7+ay7hnJK9dPZNquYPKalTeL/ytqUdkurX+avDtdm2Srur452OixmQp2KcAICJV3LFO9PFZDl/ufn7V3T3Doswywt6v1TKOirRfKi+7MJ7xb7/dbr5tHj9foZ6XOLLD/53mxWo+O0YWZ7/j3XptXupcB//a72Vze+JbCbTIcAIhFE0+cdLzYMaLA1GLNzN2FZh/7N64r7pm/q118oJ23Pkv5tNHa/f3qa4OC4tjC1jhWozWYZmuqhHzm8LXH5qi+p2w8debgVOuuLhaqtapWzrrUenanpjODqVEGgPxZi61zSVY/0Txf5ufA6MUHFrS5a327PStqB66Y7lUG7S00bZpHm59mQ5VQ7P5drz0wx/q7b3xRJ7/rDG91pt1ltfpKrap6p3Xz/B3BKNT4IQUolmw9dObOjfaZ1jEwemPRPjA6es9c6+vWMDTPqS3Y/ro++hSQBXbs2mMLe/OXNo8OsutUBqMzXYwfuO5kc1PbOdNl2ryktsjm0c/KWsXUNYvaurVHJx/mLRmZOtKb1tUX3MUlg+1QpGb54vlFnz55//LFDhbZNgJWGKfXcvzm8syRTYWMPmH82MK295LNNK2pAI1FM11rZ+s4dMXO3Y3rmtrofNzV69rjV1f2vI5zJ5oarVE7bwKwc4ntbjN1YvZ65rfiwMXHThc3r1on57b2sed8mt6ahZsetjemh/b1ZSP5vHWflgPraIgYXmpnb2fRoDlxpCQv5tl1Was1WC3L3bnV5qgFwO6pw4U2p/c84y2fNn82x3nZpdmq1K8ePTY/zX3rhSyxh1nX6fPvX7tOhLzIdVBvFY1q/CnLZ/FWu/n3W+umN3LFwUsPXpce2dzWTAl04wKrwFka33Bk89CG1poCWWSHG7WDY3tatcnDd51p5l3WSblaK2tfsXg+/8kSiPi/JJKOLLZd/8+3DPv79PxwxT17Rztqc5c2b412aW/KSJc+WKsxSPOo0aWLtsboL7unXjaumTl49Pqii/FDq7j15GjPeuhk1l6+LbfbNraT+/qLu4o5c/PAOhot6vGze8tmd5Gd7E19aF1xwV1yyanW5gY6o7SPXRvp0ubXm2plUOx+6vjodf3sz3bOTEa7dOTWg2MTu+sjRkj5aLTk7SXWvX25Pki6/V+assKsbgyKnLHRM99+oMjHfU4HB67rq3UEJh77lfOpE2t3P4Gf+nNAQyrNcAypf3BtYpcyOXfKPn3hox9XipyNRMBLpD3+ry9s43s36uhHPzrVCjA+08Wx05f05/l888Oddl0zNK659cQKrVZ5vDG932i94vQYAEeWcHiUqekd0dYbPVBs0t192tJ65dq1A3p42LbYdJAvvy/L80KzQ80QMbx0O9vOmi/HR7+jVxd93Dy/K9p6pTmi2/MsevbAIrt+9z0X7lpXI1+S+bX34kY5+7n6fpB1IkHjAnr826egXziLh2nR+fzzH/2FvrylYd/V9l2f57MefYP2QfOmCdXwv1jKd3zOdwqXnZNP+sb59z5LGve6eQ2bSo1vVLYVqLH3wg1qpUKdNDUhSeOuoXU08zc1PpaU8sbB65ohDSruOrQVqD167+cfS0cHZVli7f255rSUtN6RQ4m13kIV558qU9N6Z/FS515q99x450D28Y8NzlUhP7zYiqO9a01W1eNXuNXZNEva8uOx9y+zz1Wf7M2+Oyaf/0R92uj4v97+i/vW0ftfeFtuh2v1L/9phoqPe92pQeqfqVfTg+s5XXa4k0JDVg6q9dCZoO1uFs7R/l1ne+F5iW2xke0YG+RLXhWK4z0cXK99H+7GFVqpDzePp9//936qpd689OtIr77wvpNNtKiN/+vF558csheYr7F0ZtvrmLgo8HGvmnqrsRP7RsLJNcL3rhbLJCdPx5ePVCS146P7xw6/qL3E3iRlP+urlWV6YHH7mx9Xv/xtVuqzrGRt1R64/7H/yVk87mRfJr5wHyebc6E40Nlql5ZHrvjjX9Ce3mXz6NOR7GY+7kXX76+f3Ldn41rYuqa7PSjh5i95qjWoVnb+hZ2zLMdO7r/lced38pzbe3VXJ3mmxbP++I+x2HKgvP2zTFIbnxifOnL55JH1yYT2gmkszLcc5Mmjv+Bjl9gEvbPjEkU3smt//USv6trYPEMnhDPllhMFQ8N0d+bOjg275e3F5kWmoL5nrMwCC9dNnXbVk9fmvsevWKvST7eW6+z1MC1bb1E+eXPhJ3eEe3tYmrnqY0rOZ1F0heq1xlxKfXApL+o99rAA67XSbh3JO9xn3nnx2MS+vjx5v8rMItORB16gvfjexxDdTPMlr8qki8UzWq6rNdy+Qp/la7Wed7Z3Nmcfy3udDKwTvdr3hfs0ssnm8qyzJkxeJGGumykf31roxjnDr7+8XnT7LbsAWMcKvU1zfvvXO+3B+elnYl+fTjTZRF4b/ddHdcfYUnuR7c7jtfJJu4aYE0J5aKCN7Du5676duze/ng7hqi+5eWZdXve0vMc6KUcW2Nf4C5cOYWTProuyUMwstnlz6I7V61b5LG/zqZd4Z9vZ89il9rnqd/Rq38QJs0vXC5dZzi91LWCt2PLU56d12LRdd+rQ7zd9x/SnWVBdLNp1Ml/RLj2aBW0vtcOHfvXreKA9ceL2W45suSembl7Q+6pLtjaga7Qil2ftxpEHL+xjX6/66jChicAbtFRdLK5UrkXMlvaJ3hXp0tah+o59/XrGZZO7H8zDzVm5q3Uq2qWfbYDjn+IlrHMoT+6PdOlNM48b+cJ3r9SKytdy7bLt/t/j/sXzuP/nyBf+he6Ybn3Lzt4zGzvqm1uvs7X/gLUVbb1dL+x9jV05kN2+Qn2h/eDEwvYl/7HNY2+76hdAL64yWeTmlX7xCkedfCdH/p+vcjOatQ7NTvdqjzaueYtjEsKZstX6iFsaupt8trzkxb0XnYKxer28KNDY1clV63ZPuv2zrNCtf/PMnb/HY3+FnjzjxL7NDdWvbM7q5pKnTR6dy/lzWtfis8zWGpKFxtM/xcNm91wBzc9y5Wz+hIVu58Xrd3//lz8Y6kpT0ge1VuzRcDjNXj/4KZapsT9pcF2Vyc6z2rGLnvzhVmtFVipvLrbl3H/28Q922SBPvuPyiSN7gizWEvTIBknYpKfe1MMlL7C7mqr+28/vv35+/1VVFw==;" vertex="1" parent="1">
          <mxGeometry x="200" y="680" width="680" height="328.67" as="geometry" />
        </mxCell>
        <mxCell id="7krn6m4Ij22ZLWRI0r_V-23" value="封装libuv的代码" style="endArrow=classic;html=1;rounded=0;exitX=0.1;exitY=1.025;exitDx=0;exitDy=0;exitPerimeter=0;entryX=0.5;entryY=0;entryDx=0;entryDy=0;" edge="1" parent="1" source="7krn6m4Ij22ZLWRI0r_V-17" target="7krn6m4Ij22ZLWRI0r_V-16">
          <mxGeometry width="50" height="50" relative="1" as="geometry">
            <mxPoint x="130" y="460" as="sourcePoint" />
            <mxPoint x="180" y="410" as="targetPoint" />
          </mxGeometry>
        </mxCell>
        <mxCell id="7krn6m4Ij22ZLWRI0r_V-25" value="" style="endArrow=classic;html=1;rounded=0;exitX=0.355;exitY=0.992;exitDx=0;exitDy=0;exitPerimeter=0;entryX=0.5;entryY=0;entryDx=0;entryDy=0;" edge="1" parent="1" source="7krn6m4Ij22ZLWRI0r_V-17" target="7krn6m4Ij22ZLWRI0r_V-15">
          <mxGeometry width="50" height="50" relative="1" as="geometry">
            <mxPoint x="450" y="430" as="sourcePoint" />
            <mxPoint x="500" y="380" as="targetPoint" />
          </mxGeometry>
        </mxCell>
        <mxCell id="7krn6m4Ij22ZLWRI0r_V-26" value="封装V8的代码" style="edgeLabel;html=1;align=center;verticalAlign=middle;resizable=0;points=[];" vertex="1" connectable="0" parent="7krn6m4Ij22ZLWRI0r_V-25">
          <mxGeometry x="-0.1291" y="-1" relative="1" as="geometry">
            <mxPoint as="offset" />
          </mxGeometry>
        </mxCell>
        <mxCell id="7krn6m4Ij22ZLWRI0r_V-27" value="封装第3方库为Addon的代码" style="endArrow=classic;html=1;rounded=0;exitX=0.75;exitY=1;exitDx=0;exitDy=0;" edge="1" parent="1" source="7krn6m4Ij22ZLWRI0r_V-17" target="7krn6m4Ij22ZLWRI0r_V-5">
          <mxGeometry width="50" height="50" relative="1" as="geometry">
            <mxPoint x="720" y="430" as="sourcePoint" />
            <mxPoint x="770" y="380" as="targetPoint" />
          </mxGeometry>
        </mxCell>
        <mxCell id="7krn6m4Ij22ZLWRI0r_V-31" value="" style="endArrow=classic;html=1;rounded=0;exitX=1;exitY=0.5;exitDx=0;exitDy=0;dashed=1;" edge="1" parent="1" source="7krn6m4Ij22ZLWRI0r_V-18">
          <mxGeometry width="50" height="50" relative="1" as="geometry">
            <mxPoint x="920" y="240" as="sourcePoint" />
            <mxPoint x="940" y="210" as="targetPoint" />
          </mxGeometry>
        </mxCell>
        <mxCell id="7krn6m4Ij22ZLWRI0r_V-32" value="核心模块、用户代码等" style="rounded=1;whiteSpace=wrap;html=1;dashed=1;" vertex="1" parent="1">
          <mxGeometry x="950" y="180" width="160" height="60" as="geometry" />
        </mxCell>
        <mxCell id="7krn6m4Ij22ZLWRI0r_V-33" value="负责JS层跟底层库C/C++的交互" style="rounded=1;whiteSpace=wrap;html=1;dashed=1;" vertex="1" parent="1">
          <mxGeometry x="950" y="290" width="160" height="60" as="geometry" />
        </mxCell>
      </root>
    </mxGraphModel>
  </diagram>
</mxfile>
